{"glyphs":{"0":{"ha":782,"x_min":93,"x_max":690,"o":"m 378 0 q 296 15 336 0 q 222 53 256 31 q 166 96 189 75 q 135 125 143 117 q 102 228 111 165 q 93 358 93 290 q 98 472 93 417 q 111 572 103 526 q 128 644 119 617 q 177 685 146 661 q 250 731 208 708 q 338 767 292 753 q 431 782 383 782 q 490 771 457 782 q 558 741 524 760 q 619 703 592 722 q 660 668 646 685 q 683 569 676 628 q 690 450 690 510 q 685 338 690 394 q 672 232 681 281 q 654 149 664 183 q 592 87 635 122 q 494 26 550 51 q 378 0 439 0 m 432 101 q 496 114 464 101 q 549 146 528 126 q 568 238 563 181 q 574 354 574 296 q 571 457 574 407 q 563 547 568 507 q 550 606 557 588 q 468 661 521 640 q 360 681 415 682 q 292 672 328 681 q 232 647 257 663 q 219 592 224 628 q 211 513 214 557 q 208 425 208 469 q 212 324 208 374 q 222 238 215 274 q 236 189 228 203 q 322 126 268 150 q 432 101 375 101 z "},"1":{"ha":529,"x_min":57,"x_max":467,"o":"m 360 0 q 324 3 351 0 q 260 11 297 7 q 186 22 224 15 q 118 33 149 28 q 74 44 88 39 q 78 65 74 56 q 88 78 83 74 l 146 83 q 188 94 172 86 q 213 126 204 103 q 221 194 221 149 l 221 540 q 226 606 221 578 q 233 644 231 635 l 231 647 l 57 628 q 61 663 57 646 q 68 686 65 679 q 201 731 136 706 q 318 785 267 757 q 342 778 332 783 q 360 765 353 772 q 351 715 356 747 q 342 643 346 683 q 339 560 339 603 l 339 163 q 333 114 339 135 q 322 86 328 93 l 458 76 q 463 66 460 74 q 467 46 467 58 q 438 24 458 35 q 395 7 417 14 q 360 0 374 0 z "},"2":{"ha":758,"x_min":51,"x_max":689,"o":"m 114 0 q 90 13 104 0 q 63 42 75 25 q 51 74 51 60 q 141 139 86 93 q 257 247 196 185 q 372 378 318 308 q 459 517 425 447 q 493 647 493 588 q 435 670 474 660 q 345 685 397 681 q 229 688 293 690 l 203 522 q 186 514 197 518 q 158 510 175 510 q 134 549 146 524 q 113 608 122 575 q 97 675 103 640 q 182 734 131 710 q 290 771 233 758 q 394 783 347 783 q 441 774 413 783 q 501 750 469 765 q 560 718 532 735 q 606 685 588 701 q 624 656 624 668 q 597 539 624 599 q 529 420 571 479 q 438 308 488 361 q 340 211 389 254 q 254 140 292 168 l 576 108 l 636 233 q 669 228 656 233 q 689 217 683 224 q 685 148 689 190 q 675 68 682 106 q 632 40 660 56 q 575 12 604 24 q 525 0 546 0 q 483 7 514 0 q 411 24 451 14 q 328 43 371 33 q 249 60 285 53 q 192 68 213 68 q 167 44 183 60 q 136 15 151 28 q 114 0 121 1 z "},"3":{"ha":643,"x_min":33,"x_max":569,"o":"m 203 -146 q 148 -133 183 -146 q 81 -101 113 -119 q 38 -69 49 -83 q 49 -42 43 -51 q 61 -29 56 -32 q 141 -40 100 -36 q 219 -43 182 -43 q 315 -37 269 -43 q 396 -18 360 -31 q 417 22 406 -8 q 435 87 428 51 q 443 147 443 122 q 406 231 443 199 q 313 282 369 263 q 201 314 257 301 q 203 333 201 322 q 210 356 206 344 q 218 375 214 368 q 250 376 229 375 q 289 385 271 376 q 376 460 342 415 q 426 553 410 504 q 443 649 443 603 q 385 671 425 661 q 290 685 344 681 q 171 688 235 690 l 136 546 q 121 538 132 542 q 92 533 110 533 q 60 591 78 553 q 33 675 42 629 q 118 735 67 710 q 226 772 169 760 q 331 785 282 785 q 376 776 347 785 q 437 751 404 767 q 499 719 469 736 q 547 685 529 701 q 565 656 565 668 q 537 533 565 596 q 463 419 508 469 q 368 347 418 369 l 368 342 q 468 303 422 326 q 542 247 514 281 q 569 164 569 213 q 559 103 569 139 q 533 32 549 68 q 501 -32 518 -4 q 469 -71 485 -60 q 405 -104 450 -86 q 307 -134 360 -122 q 203 -146 254 -146 z "},"4":{"ha":746,"x_min":35,"x_max":696,"o":"m 443 -146 q 430 -142 439 -146 q 413 -131 421 -137 q 427 -69 419 -110 q 435 13 435 -29 l 435 82 l 100 82 q 63 117 83 92 q 35 178 42 142 l 410 758 q 442 768 422 763 q 485 778 463 774 q 529 785 508 783 l 558 765 q 555 730 557 753 q 551 676 553 707 q 548 611 549 646 q 547 542 547 576 l 547 172 l 683 178 l 696 156 q 691 130 696 144 q 681 103 686 115 q 672 83 676 90 l 547 83 l 547 -119 q 519 -131 536 -125 q 481 -142 501 -137 q 443 -146 461 -146 m 139 169 l 431 169 l 431 525 q 436 597 431 563 q 447 647 442 631 l 440 649 l 139 169 z "},"5":{"ha":621,"x_min":19,"x_max":549,"o":"m 186 -146 q 131 -133 167 -146 q 64 -101 96 -119 q 19 -69 32 -83 q 31 -41 25 -50 q 43 -29 38 -32 q 124 -40 83 -36 q 201 -43 164 -43 q 293 -37 251 -43 q 368 -18 335 -31 q 385 9 376 -12 q 403 63 394 31 q 418 131 413 94 q 424 206 424 168 q 399 245 424 225 q 337 285 375 265 q 254 323 299 304 q 167 358 210 342 q 113 381 139 371 q 72 400 88 392 q 53 414 56 408 q 64 529 53 469 q 92 643 75 589 q 131 739 110 697 q 210 751 160 746 q 318 761 260 756 q 430 774 376 767 q 521 790 483 781 l 549 778 q 541 732 549 756 q 524 688 533 708 q 504 653 514 667 q 356 665 436 663 q 211 668 276 668 q 189 604 199 642 q 174 528 179 567 q 165 456 168 489 l 249 431 q 413 372 347 401 q 512 306 479 343 q 544 211 544 268 q 527 90 544 147 q 485 -9 510 32 q 440 -69 461 -50 q 378 -103 419 -86 q 286 -133 336 -121 q 186 -146 236 -146 z "},"6":{"ha":711,"x_min":79,"x_max":644,"o":"m 354 0 q 275 16 314 0 q 203 56 236 32 q 148 101 171 79 q 117 132 125 122 q 87 235 94 172 q 79 371 79 297 q 96 561 79 478 q 138 705 113 644 q 188 803 163 765 q 232 854 214 840 q 275 878 246 865 q 339 903 304 892 q 405 923 374 915 q 454 931 436 931 q 509 918 475 931 q 575 888 543 906 q 619 857 607 871 q 610 831 615 840 q 597 817 604 821 q 524 826 561 824 q 453 828 486 828 q 397 824 429 828 q 333 816 364 821 q 285 804 301 811 q 243 710 269 790 q 199 493 217 631 q 258 523 221 507 q 336 551 296 539 q 408 564 376 564 q 474 549 439 564 q 540 514 508 535 q 594 474 572 493 q 622 446 617 456 q 639 377 633 417 q 644 300 644 338 q 638 211 644 250 q 619 144 631 172 q 560 83 600 117 q 468 24 521 49 q 354 0 415 0 m 404 96 q 439 101 419 96 q 478 115 458 106 q 514 136 499 124 q 526 193 521 156 q 531 274 531 231 q 526 341 531 307 q 514 394 522 375 q 465 431 496 415 q 404 454 435 446 q 354 463 374 463 q 303 457 333 463 q 244 444 274 451 q 200 432 215 438 q 196 397 197 418 q 194 350 194 376 q 197 281 194 315 q 206 221 200 246 q 217 189 211 196 q 275 139 242 160 q 342 107 308 118 q 404 96 376 96 z "},"7":{"ha":708,"x_min":69,"x_max":672,"o":"m 289 -146 q 255 -134 274 -142 q 218 -116 236 -126 q 186 -94 200 -106 q 167 -71 172 -82 q 185 8 167 -43 q 235 122 204 58 q 306 254 267 185 q 384 391 344 324 q 459 516 424 458 q 519 614 494 574 q 553 668 544 654 l 203 668 l 172 544 q 158 538 169 542 q 128 533 146 533 q 102 576 115 551 q 80 627 89 601 q 69 672 71 653 q 101 712 81 689 q 145 755 121 735 q 188 783 169 775 q 228 781 194 783 q 306 775 261 779 q 398 767 351 771 q 482 760 444 763 q 535 758 519 758 q 564 765 542 758 q 608 776 586 771 q 633 782 631 782 q 660 757 647 776 q 672 717 672 738 l 528 463 q 444 310 483 383 q 377 170 406 236 q 333 50 349 104 q 317 -44 317 -4 q 319 -78 317 -61 q 325 -110 321 -94 q 307 -131 319 -121 q 289 -146 294 -142 z "},"8":{"ha":725,"x_min":79,"x_max":644,"o":"m 342 0 q 265 15 306 0 q 189 51 225 29 q 126 93 153 72 q 92 128 100 114 q 83 172 86 143 q 79 229 79 201 q 83 295 79 263 q 97 353 88 328 q 135 399 107 375 q 195 443 163 422 q 251 475 228 464 q 181 506 215 490 q 131 535 147 521 q 113 599 121 556 q 106 685 106 642 q 111 758 106 726 q 128 811 117 789 q 205 868 160 840 q 301 913 250 896 q 403 931 353 931 q 472 917 432 931 q 546 886 511 904 q 593 853 581 868 q 609 797 603 833 q 615 722 615 760 q 613 663 615 694 q 603 614 610 631 q 547 551 585 579 q 471 500 508 522 q 534 475 503 489 q 590 448 565 461 q 624 424 614 435 q 640 369 635 401 q 644 299 644 336 q 640 215 644 256 q 628 147 635 175 q 547 72 594 106 q 445 19 499 39 q 342 0 392 0 m 376 93 q 431 100 403 93 q 483 117 460 107 q 519 138 507 128 q 531 182 526 153 q 535 249 535 211 q 531 317 535 286 q 519 364 526 347 q 477 383 503 372 q 415 409 451 394 q 328 440 378 424 q 271 409 306 429 q 208 356 236 389 q 194 310 199 339 q 190 251 190 282 q 192 215 190 233 q 196 182 193 196 q 252 136 217 157 q 323 104 288 115 q 376 93 358 93 m 392 525 q 440 549 410 533 q 490 590 469 565 q 503 642 499 611 q 508 707 508 674 q 506 753 508 728 q 496 794 503 778 q 458 818 483 808 q 402 833 432 828 q 344 839 372 839 q 305 836 326 839 q 263 828 283 833 q 226 815 242 822 q 218 773 221 796 q 215 724 215 750 q 221 639 215 679 q 236 581 226 599 q 264 569 251 575 q 293 558 276 564 q 333 545 310 553 q 392 525 357 538 z "},"9":{"ha":710,"x_min":67,"x_max":635,"o":"m 276 -146 q 222 -133 257 -146 q 155 -103 186 -121 q 111 -72 124 -85 q 121 -44 114 -54 q 133 -32 128 -35 q 206 -40 168 -37 q 278 -43 243 -43 q 330 -40 303 -43 q 383 -31 357 -36 q 425 -19 408 -25 q 458 33 438 -8 q 495 142 478 75 q 518 294 513 208 q 458 265 496 282 q 378 234 419 247 q 303 221 336 221 q 238 235 272 221 q 172 271 203 250 q 117 310 140 292 q 89 339 94 329 q 72 408 78 368 q 67 485 67 447 q 74 574 67 533 q 92 640 81 614 q 152 703 113 669 q 244 760 192 736 q 358 785 297 785 q 437 771 399 785 q 507 736 475 757 q 561 696 539 715 q 592 665 583 676 q 624 556 614 626 q 635 388 635 486 q 622 241 635 314 q 588 106 608 168 q 545 -1 568 43 q 501 -62 522 -46 q 442 -100 482 -81 q 358 -133 403 -119 q 276 -146 313 -146 m 357 322 q 409 329 378 322 q 472 345 440 336 q 518 360 503 354 q 520 386 519 371 q 521 422 521 401 q 517 494 521 457 q 508 561 514 532 q 494 599 503 590 q 438 647 472 628 q 369 678 404 667 q 306 689 335 689 q 270 684 290 689 q 231 670 250 679 q 197 649 211 661 q 188 615 192 638 q 181 566 183 593 q 179 511 179 539 q 183 444 179 478 q 197 390 188 410 q 245 356 215 371 q 306 331 275 340 q 357 322 338 322 z "},"A":{"ha":1022,"x_min":25,"x_max":1001,"o":"m 296 0 q 265 3 289 0 q 208 10 242 6 q 140 21 175 15 q 75 33 106 26 q 25 44 44 39 q 30 65 25 56 q 40 79 35 75 l 53 79 q 87 92 69 79 q 122 131 104 104 q 159 204 140 158 q 196 318 178 250 l 358 903 q 393 932 369 915 q 444 964 417 949 q 497 990 472 979 q 535 1000 522 1000 q 581 988 553 1000 q 639 958 610 976 q 685 922 668 940 l 871 117 q 882 93 875 101 q 908 82 889 85 l 989 76 q 997 67 993 72 q 1001 44 1000 61 q 973 24 990 35 q 937 7 956 14 q 901 0 918 0 q 862 3 890 0 q 797 13 833 7 q 726 26 761 19 q 662 40 690 33 q 621 51 633 47 q 626 72 621 63 q 635 85 632 82 l 675 85 q 713 88 699 85 q 732 106 728 90 q 726 160 736 122 l 674 399 l 318 399 l 263 194 q 242 140 254 161 q 217 106 229 118 q 193 90 204 94 l 386 75 q 392 64 388 72 q 396 44 396 56 q 367 23 385 33 q 330 6 349 13 q 296 0 311 0 m 338 471 q 466 474 404 471 q 577 480 528 476 q 653 486 626 483 l 569 863 q 512 896 542 883 q 453 913 482 908 l 338 471 z "},"Á":{"ha":1022,"x_min":25,"x_max":1001,"o":"m 296 0 q 265 3 289 0 q 208 10 242 6 q 140 21 175 15 q 75 33 106 26 q 25 44 44 39 q 30 65 25 56 q 40 79 35 75 l 53 79 q 87 92 69 79 q 122 131 104 104 q 159 204 140 158 q 196 318 178 250 l 358 903 q 393 932 369 915 q 444 964 417 949 q 497 990 472 979 q 535 1000 522 1000 q 581 988 553 1000 q 639 958 610 976 q 685 922 668 940 l 871 117 q 882 93 875 101 q 908 82 889 85 l 989 76 q 997 67 993 72 q 1001 44 1000 61 q 973 24 990 35 q 937 7 956 14 q 901 0 918 0 q 862 3 890 0 q 797 13 833 7 q 726 26 761 19 q 662 40 690 33 q 621 51 633 47 q 626 72 621 63 q 635 85 632 82 l 675 85 q 713 88 699 85 q 732 106 728 90 q 726 160 736 122 l 674 399 l 318 399 l 263 194 q 242 140 254 161 q 217 106 229 118 q 193 90 204 94 l 386 75 q 392 64 388 72 q 396 44 396 56 q 367 23 385 33 q 330 6 349 13 q 296 0 311 0 m 338 471 q 466 474 404 471 q 577 480 528 476 q 653 486 626 483 l 569 863 q 512 896 542 883 q 453 913 482 908 l 338 471 m 417 1068 q 391 1082 403 1072 q 374 1100 379 1092 q 465 1220 421 1168 q 543 1301 510 1272 q 589 1331 576 1331 q 616 1318 599 1331 q 649 1287 633 1306 q 671 1249 664 1268 l 417 1068 z "},"Ă":{"ha":1022,"x_min":25,"x_max":1001,"o":"m 296 0 q 265 3 289 0 q 208 10 242 6 q 140 21 175 15 q 75 33 106 26 q 25 44 44 39 q 30 65 25 56 q 40 79 35 75 l 53 79 q 87 92 69 79 q 122 131 104 104 q 159 204 140 158 q 196 318 178 250 l 358 903 q 393 932 369 915 q 444 964 417 949 q 497 990 472 979 q 535 1000 522 1000 q 581 988 553 1000 q 639 958 610 976 q 685 922 668 940 l 871 117 q 882 93 875 101 q 908 82 889 85 l 989 76 q 997 67 993 72 q 1001 44 1000 61 q 973 24 990 35 q 937 7 956 14 q 901 0 918 0 q 862 3 890 0 q 797 13 833 7 q 726 26 761 19 q 662 40 690 33 q 621 51 633 47 q 626 72 621 63 q 635 85 632 82 l 675 85 q 713 88 699 85 q 732 106 728 90 q 726 160 736 122 l 674 399 l 318 399 l 263 194 q 242 140 254 161 q 217 106 229 118 q 193 90 204 94 l 386 75 q 392 64 388 72 q 396 44 396 56 q 367 23 385 33 q 330 6 349 13 q 296 0 311 0 m 338 471 q 466 474 404 471 q 577 480 528 476 q 653 486 626 483 l 569 863 q 512 896 542 883 q 453 913 482 908 l 338 471 m 511 1086 q 385 1132 425 1086 q 336 1250 344 1178 q 362 1258 344 1254 q 400 1263 379 1263 q 436 1191 411 1210 q 511 1172 461 1172 q 586 1191 561 1172 q 622 1263 611 1210 q 663 1258 646 1263 q 686 1250 679 1254 q 635 1130 676 1174 q 511 1086 594 1086 z "},"Ắ":{"ha":1022,"x_min":25,"x_max":1001,"o":"m 296 0 q 265 3 289 0 q 208 10 242 6 q 140 21 175 15 q 75 33 106 26 q 25 44 44 39 q 30 65 25 56 q 40 79 35 75 l 53 79 q 87 92 69 79 q 122 131 104 104 q 159 204 140 158 q 196 318 178 250 l 358 903 q 393 932 369 915 q 444 964 417 949 q 497 990 472 979 q 535 1000 522 1000 q 581 988 553 1000 q 639 958 610 976 q 685 922 668 940 l 871 117 q 882 93 875 101 q 908 82 889 85 l 989 76 q 997 67 993 72 q 1001 44 1000 61 q 973 24 990 35 q 937 7 956 14 q 901 0 918 0 q 862 3 890 0 q 797 13 833 7 q 726 26 761 19 q 662 40 690 33 q 621 51 633 47 q 626 72 621 63 q 635 85 632 82 l 675 85 q 713 88 699 85 q 732 106 728 90 q 726 160 736 122 l 674 399 l 318 399 l 263 194 q 242 140 254 161 q 217 106 229 118 q 193 90 204 94 l 386 75 q 392 64 388 72 q 396 44 396 56 q 367 23 385 33 q 330 6 349 13 q 296 0 311 0 m 338 471 q 466 474 404 471 q 577 480 528 476 q 653 486 626 483 l 569 863 q 512 896 542 883 q 453 913 482 908 l 338 471 m 511 1086 q 385 1132 425 1086 q 336 1250 344 1178 q 362 1258 344 1254 q 400 1263 379 1263 q 436 1191 411 1210 q 511 1172 461 1172 q 586 1191 561 1172 q 622 1263 611 1210 q 663 1258 646 1263 q 686 1250 679 1254 q 635 1130 676 1174 q 511 1086 594 1086 m 417 1319 q 391 1333 403 1324 q 374 1351 379 1343 q 465 1472 421 1419 q 543 1553 510 1524 q 589 1582 576 1582 q 616 1569 599 1582 q 649 1538 633 1557 q 671 1500 664 1519 l 417 1319 z "},"Ặ":{"ha":1022,"x_min":25,"x_max":1001,"o":"m 296 0 q 265 3 289 0 q 208 10 242 6 q 140 21 175 15 q 75 33 106 26 q 25 44 44 39 q 30 65 25 56 q 40 79 35 75 l 53 79 q 87 92 69 79 q 122 131 104 104 q 159 204 140 158 q 196 318 178 250 l 358 903 q 393 932 369 915 q 444 964 417 949 q 497 990 472 979 q 535 1000 522 1000 q 581 988 553 1000 q 639 958 610 976 q 685 922 668 940 l 871 117 q 882 93 875 101 q 908 82 889 85 l 989 76 q 997 67 993 72 q 1001 44 1000 61 q 973 24 990 35 q 937 7 956 14 q 901 0 918 0 q 862 3 890 0 q 797 13 833 7 q 726 26 761 19 q 662 40 690 33 q 621 51 633 47 q 626 72 621 63 q 635 85 632 82 l 675 85 q 713 88 699 85 q 732 106 728 90 q 726 160 736 122 l 674 399 l 318 399 l 263 194 q 242 140 254 161 q 217 106 229 118 q 193 90 204 94 l 386 75 q 392 64 388 72 q 396 44 396 56 q 367 23 385 33 q 330 6 349 13 q 296 0 311 0 m 338 471 q 466 474 404 471 q 577 480 528 476 q 653 486 626 483 l 569 863 q 512 896 542 883 q 453 913 482 908 l 338 471 m 493 -272 q 471 -261 485 -272 q 444 -233 457 -250 q 422 -200 431 -217 q 413 -174 413 -183 q 424 -151 413 -164 q 454 -126 436 -137 q 490 -106 472 -114 q 518 -97 507 -97 q 541 -109 528 -97 q 567 -137 554 -121 q 587 -171 579 -154 q 594 -199 594 -187 q 576 -228 594 -211 q 533 -259 557 -246 q 493 -272 510 -272 m 511 1086 q 385 1132 425 1086 q 336 1250 344 1178 q 362 1258 344 1254 q 400 1263 379 1263 q 436 1191 411 1210 q 511 1172 461 1172 q 586 1191 561 1172 q 622 1263 611 1210 q 663 1258 646 1263 q 686 1250 679 1254 q 635 1130 676 1174 q 511 1086 594 1086 z "},"Ằ":{"ha":1022,"x_min":25,"x_max":1001,"o":"m 296 0 q 265 3 289 0 q 208 10 242 6 q 140 21 175 15 q 75 33 106 26 q 25 44 44 39 q 30 65 25 56 q 40 79 35 75 l 53 79 q 87 92 69 79 q 122 131 104 104 q 159 204 140 158 q 196 318 178 250 l 358 903 q 393 932 369 915 q 444 964 417 949 q 497 990 472 979 q 535 1000 522 1000 q 581 988 553 1000 q 639 958 610 976 q 685 922 668 940 l 871 117 q 882 93 875 101 q 908 82 889 85 l 989 76 q 997 67 993 72 q 1001 44 1000 61 q 973 24 990 35 q 937 7 956 14 q 901 0 918 0 q 862 3 890 0 q 797 13 833 7 q 726 26 761 19 q 662 40 690 33 q 621 51 633 47 q 626 72 621 63 q 635 85 632 82 l 675 85 q 713 88 699 85 q 732 106 728 90 q 726 160 736 122 l 674 399 l 318 399 l 263 194 q 242 140 254 161 q 217 106 229 118 q 193 90 204 94 l 386 75 q 392 64 388 72 q 396 44 396 56 q 367 23 385 33 q 330 6 349 13 q 296 0 311 0 m 338 471 q 466 474 404 471 q 577 480 528 476 q 653 486 626 483 l 569 863 q 512 896 542 883 q 453 913 482 908 l 338 471 m 511 1086 q 385 1132 425 1086 q 336 1250 344 1178 q 362 1258 344 1254 q 400 1263 379 1263 q 436 1191 411 1210 q 511 1172 461 1172 q 586 1191 561 1172 q 622 1263 611 1210 q 663 1258 646 1263 q 686 1250 679 1254 q 635 1130 676 1174 q 511 1086 594 1086 m 593 1319 l 340 1500 q 362 1538 347 1519 q 394 1569 376 1556 q 421 1582 411 1582 q 466 1553 433 1582 q 544 1473 499 1525 q 638 1351 589 1421 q 617 1332 631 1342 q 593 1319 604 1322 z "},"Ẳ":{"ha":1022,"x_min":25,"x_max":1001,"o":"m 296 0 q 265 3 289 0 q 208 10 242 6 q 140 21 175 15 q 75 33 106 26 q 25 44 44 39 q 30 65 25 56 q 40 79 35 75 l 53 79 q 87 92 69 79 q 122 131 104 104 q 159 204 140 158 q 196 318 178 250 l 358 903 q 393 932 369 915 q 444 964 417 949 q 497 990 472 979 q 535 1000 522 1000 q 581 988 553 1000 q 639 958 610 976 q 685 922 668 940 l 871 117 q 882 93 875 101 q 908 82 889 85 l 989 76 q 997 67 993 72 q 1001 44 1000 61 q 973 24 990 35 q 937 7 956 14 q 901 0 918 0 q 862 3 890 0 q 797 13 833 7 q 726 26 761 19 q 662 40 690 33 q 621 51 633 47 q 626 72 621 63 q 635 85 632 82 l 675 85 q 713 88 699 85 q 732 106 728 90 q 726 160 736 122 l 674 399 l 318 399 l 263 194 q 242 140 254 161 q 217 106 229 118 q 193 90 204 94 l 386 75 q 392 64 388 72 q 396 44 396 56 q 367 23 385 33 q 330 6 349 13 q 296 0 311 0 m 338 471 q 466 474 404 471 q 577 480 528 476 q 653 486 626 483 l 569 863 q 512 896 542 883 q 453 913 482 908 l 338 471 m 511 1086 q 385 1132 425 1086 q 336 1250 344 1178 q 362 1258 344 1254 q 400 1263 379 1263 q 436 1191 411 1210 q 511 1172 461 1172 q 586 1191 561 1172 q 622 1263 611 1210 q 663 1258 646 1263 q 686 1250 679 1254 q 635 1130 676 1174 q 511 1086 594 1086 m 485 1285 q 474 1331 479 1308 q 467 1378 469 1354 q 538 1393 517 1386 q 565 1417 560 1400 q 571 1472 571 1435 q 495 1483 531 1481 q 413 1486 460 1486 q 408 1503 411 1489 q 406 1525 406 1517 q 425 1540 411 1532 q 455 1553 439 1547 q 481 1558 471 1558 q 517 1552 493 1558 q 569 1535 542 1546 q 619 1511 597 1525 q 640 1463 633 1493 q 646 1410 646 1432 q 630 1383 646 1399 q 590 1354 614 1368 q 542 1335 565 1340 l 526 1285 l 485 1285 z "},"Ẵ":{"ha":1022,"x_min":25,"x_max":1001,"o":"m 296 0 q 265 3 289 0 q 208 10 242 6 q 140 21 175 15 q 75 33 106 26 q 25 44 44 39 q 30 65 25 56 q 40 79 35 75 l 53 79 q 87 92 69 79 q 122 131 104 104 q 159 204 140 158 q 196 318 178 250 l 358 903 q 393 932 369 915 q 444 964 417 949 q 497 990 472 979 q 535 1000 522 1000 q 581 988 553 1000 q 639 958 610 976 q 685 922 668 940 l 871 117 q 882 93 875 101 q 908 82 889 85 l 989 76 q 997 67 993 72 q 1001 44 1000 61 q 973 24 990 35 q 937 7 956 14 q 901 0 918 0 q 862 3 890 0 q 797 13 833 7 q 726 26 761 19 q 662 40 690 33 q 621 51 633 47 q 626 72 621 63 q 635 85 632 82 l 675 85 q 713 88 699 85 q 732 106 728 90 q 726 160 736 122 l 674 399 l 318 399 l 263 194 q 242 140 254 161 q 217 106 229 118 q 193 90 204 94 l 386 75 q 392 64 388 72 q 396 44 396 56 q 367 23 385 33 q 330 6 349 13 q 296 0 311 0 m 338 471 q 466 474 404 471 q 577 480 528 476 q 653 486 626 483 l 569 863 q 512 896 542 883 q 453 913 482 908 l 338 471 m 511 1086 q 385 1132 425 1086 q 336 1250 344 1178 q 362 1258 344 1254 q 400 1263 379 1263 q 436 1191 411 1210 q 511 1172 461 1172 q 586 1191 561 1172 q 622 1263 611 1210 q 663 1258 646 1263 q 686 1250 679 1254 q 635 1130 676 1174 q 511 1086 594 1086 m 636 1335 q 576 1348 619 1335 q 481 1381 533 1361 q 385 1419 429 1400 l 283 1346 q 268 1355 276 1349 q 254 1374 260 1361 q 295 1434 272 1403 q 341 1488 318 1465 q 381 1510 364 1510 q 441 1497 397 1510 q 539 1465 485 1483 q 639 1429 593 1447 l 733 1515 q 755 1504 746 1511 q 768 1492 764 1497 q 726 1422 750 1458 q 677 1360 701 1385 q 636 1335 653 1335 z "},"Ǎ":{"ha":1022,"x_min":25,"x_max":1001,"o":"m 296 0 q 265 3 289 0 q 208 10 242 6 q 140 21 175 15 q 75 33 106 26 q 25 44 44 39 q 30 65 25 56 q 40 79 35 75 l 53 79 q 87 92 69 79 q 122 131 104 104 q 159 204 140 158 q 196 318 178 250 l 358 903 q 393 932 369 915 q 444 964 417 949 q 497 990 472 979 q 535 1000 522 1000 q 581 988 553 1000 q 639 958 610 976 q 685 922 668 940 l 871 117 q 882 93 875 101 q 908 82 889 85 l 989 76 q 997 67 993 72 q 1001 44 1000 61 q 973 24 990 35 q 937 7 956 14 q 901 0 918 0 q 862 3 890 0 q 797 13 833 7 q 726 26 761 19 q 662 40 690 33 q 621 51 633 47 q 626 72 621 63 q 635 85 632 82 l 675 85 q 713 88 699 85 q 732 106 728 90 q 726 160 736 122 l 674 399 l 318 399 l 263 194 q 242 140 254 161 q 217 106 229 118 q 193 90 204 94 l 386 75 q 392 64 388 72 q 396 44 396 56 q 367 23 385 33 q 330 6 349 13 q 296 0 311 0 m 338 471 q 466 474 404 471 q 577 480 528 476 q 653 486 626 483 l 569 863 q 512 896 542 883 q 453 913 482 908 l 338 471 m 511 1071 q 466 1099 493 1071 q 401 1178 439 1126 q 313 1297 363 1229 q 328 1316 317 1306 q 351 1329 339 1326 l 513 1192 l 671 1329 q 695 1316 685 1325 q 710 1299 706 1307 q 621 1176 658 1228 q 556 1098 583 1125 q 511 1071 529 1071 z "},"Â":{"ha":1022,"x_min":25,"x_max":1001,"o":"m 296 0 q 265 3 289 0 q 208 10 242 6 q 140 21 175 15 q 75 33 106 26 q 25 44 44 39 q 30 65 25 56 q 40 79 35 75 l 53 79 q 87 92 69 79 q 122 131 104 104 q 159 204 140 158 q 196 318 178 250 l 358 903 q 393 932 369 915 q 444 964 417 949 q 497 990 472 979 q 535 1000 522 1000 q 581 988 553 1000 q 639 958 610 976 q 685 922 668 940 l 871 117 q 882 93 875 101 q 908 82 889 85 l 989 76 q 997 67 993 72 q 1001 44 1000 61 q 973 24 990 35 q 937 7 956 14 q 901 0 918 0 q 862 3 890 0 q 797 13 833 7 q 726 26 761 19 q 662 40 690 33 q 621 51 633 47 q 626 72 621 63 q 635 85 632 82 l 675 85 q 713 88 699 85 q 732 106 728 90 q 726 160 736 122 l 674 399 l 318 399 l 263 194 q 242 140 254 161 q 217 106 229 118 q 193 90 204 94 l 386 75 q 392 64 388 72 q 396 44 396 56 q 367 23 385 33 q 330 6 349 13 q 296 0 311 0 m 338 471 q 466 474 404 471 q 577 480 528 476 q 653 486 626 483 l 569 863 q 512 896 542 883 q 453 913 482 908 l 338 471 m 350 1071 q 327 1085 338 1076 q 313 1103 317 1094 q 402 1228 364 1176 q 468 1307 440 1279 q 511 1335 496 1335 q 556 1306 528 1335 q 622 1226 583 1278 q 710 1103 660 1174 q 696 1086 706 1096 q 671 1071 686 1076 l 511 1211 l 350 1071 z "},"Ấ":{"ha":1022,"x_min":25,"x_max":1001,"o":"m 296 0 q 265 3 289 0 q 208 10 242 6 q 140 21 175 15 q 75 33 106 26 q 25 44 44 39 q 30 65 25 56 q 40 79 35 75 l 53 79 q 87 92 69 79 q 122 131 104 104 q 159 204 140 158 q 196 318 178 250 l 358 903 q 393 932 369 915 q 444 964 417 949 q 497 990 472 979 q 535 1000 522 1000 q 581 988 553 1000 q 639 958 610 976 q 685 922 668 940 l 871 117 q 882 93 875 101 q 908 82 889 85 l 989 76 q 997 67 993 72 q 1001 44 1000 61 q 973 24 990 35 q 937 7 956 14 q 901 0 918 0 q 862 3 890 0 q 797 13 833 7 q 726 26 761 19 q 662 40 690 33 q 621 51 633 47 q 626 72 621 63 q 635 85 632 82 l 675 85 q 713 88 699 85 q 732 106 728 90 q 726 160 736 122 l 674 399 l 318 399 l 263 194 q 242 140 254 161 q 217 106 229 118 q 193 90 204 94 l 386 75 q 392 64 388 72 q 396 44 396 56 q 367 23 385 33 q 330 6 349 13 q 296 0 311 0 m 338 471 q 466 474 404 471 q 577 480 528 476 q 653 486 626 483 l 569 863 q 512 896 542 883 q 453 913 482 908 l 338 471 m 350 1071 q 327 1085 338 1076 q 313 1103 317 1094 q 402 1228 364 1176 q 468 1307 440 1279 q 511 1335 496 1335 q 556 1306 528 1335 q 622 1226 583 1278 q 710 1103 660 1174 q 696 1086 706 1096 q 671 1071 686 1076 l 511 1211 l 350 1071 m 417 1385 q 391 1399 403 1389 q 374 1417 379 1408 q 465 1537 421 1485 q 543 1618 510 1589 q 589 1647 576 1647 q 616 1635 599 1647 q 649 1603 633 1622 q 671 1565 664 1585 l 417 1385 z "},"Ậ":{"ha":1022,"x_min":25,"x_max":1001,"o":"m 296 0 q 265 3 289 0 q 208 10 242 6 q 140 21 175 15 q 75 33 106 26 q 25 44 44 39 q 30 65 25 56 q 40 79 35 75 l 53 79 q 87 92 69 79 q 122 131 104 104 q 159 204 140 158 q 196 318 178 250 l 358 903 q 393 932 369 915 q 444 964 417 949 q 497 990 472 979 q 535 1000 522 1000 q 581 988 553 1000 q 639 958 610 976 q 685 922 668 940 l 871 117 q 882 93 875 101 q 908 82 889 85 l 989 76 q 997 67 993 72 q 1001 44 1000 61 q 973 24 990 35 q 937 7 956 14 q 901 0 918 0 q 862 3 890 0 q 797 13 833 7 q 726 26 761 19 q 662 40 690 33 q 621 51 633 47 q 626 72 621 63 q 635 85 632 82 l 675 85 q 713 88 699 85 q 732 106 728 90 q 726 160 736 122 l 674 399 l 318 399 l 263 194 q 242 140 254 161 q 217 106 229 118 q 193 90 204 94 l 386 75 q 392 64 388 72 q 396 44 396 56 q 367 23 385 33 q 330 6 349 13 q 296 0 311 0 m 338 471 q 466 474 404 471 q 577 480 528 476 q 653 486 626 483 l 569 863 q 512 896 542 883 q 453 913 482 908 l 338 471 m 493 -272 q 471 -261 485 -272 q 444 -233 457 -250 q 422 -200 431 -217 q 413 -174 413 -183 q 424 -151 413 -164 q 454 -126 436 -137 q 490 -106 472 -114 q 518 -97 507 -97 q 541 -109 528 -97 q 567 -137 554 -121 q 587 -171 579 -154 q 594 -199 594 -187 q 576 -228 594 -211 q 533 -259 557 -246 q 493 -272 510 -272 m 350 1071 q 327 1085 338 1076 q 313 1103 317 1094 q 402 1228 364 1176 q 468 1307 440 1279 q 511 1335 496 1335 q 556 1306 528 1335 q 622 1226 583 1278 q 710 1103 660 1174 q 696 1086 706 1096 q 671 1071 686 1076 l 511 1211 l 350 1071 z "},"Ầ":{"ha":1022,"x_min":25,"x_max":1001,"o":"m 296 0 q 265 3 289 0 q 208 10 242 6 q 140 21 175 15 q 75 33 106 26 q 25 44 44 39 q 30 65 25 56 q 40 79 35 75 l 53 79 q 87 92 69 79 q 122 131 104 104 q 159 204 140 158 q 196 318 178 250 l 358 903 q 393 932 369 915 q 444 964 417 949 q 497 990 472 979 q 535 1000 522 1000 q 581 988 553 1000 q 639 958 610 976 q 685 922 668 940 l 871 117 q 882 93 875 101 q 908 82 889 85 l 989 76 q 997 67 993 72 q 1001 44 1000 61 q 973 24 990 35 q 937 7 956 14 q 901 0 918 0 q 862 3 890 0 q 797 13 833 7 q 726 26 761 19 q 662 40 690 33 q 621 51 633 47 q 626 72 621 63 q 635 85 632 82 l 675 85 q 713 88 699 85 q 732 106 728 90 q 726 160 736 122 l 674 399 l 318 399 l 263 194 q 242 140 254 161 q 217 106 229 118 q 193 90 204 94 l 386 75 q 392 64 388 72 q 396 44 396 56 q 367 23 385 33 q 330 6 349 13 q 296 0 311 0 m 338 471 q 466 474 404 471 q 577 480 528 476 q 653 486 626 483 l 569 863 q 512 896 542 883 q 453 913 482 908 l 338 471 m 350 1071 q 327 1085 338 1076 q 313 1103 317 1094 q 402 1228 364 1176 q 468 1307 440 1279 q 511 1335 496 1335 q 556 1306 528 1335 q 622 1226 583 1278 q 710 1103 660 1174 q 696 1086 706 1096 q 671 1071 686 1076 l 511 1211 l 350 1071 m 593 1385 l 340 1565 q 362 1603 347 1585 q 394 1634 376 1621 q 421 1647 411 1647 q 466 1619 433 1647 q 544 1538 499 1590 q 638 1417 589 1486 q 617 1397 631 1407 q 593 1385 604 1388 z "},"Ẩ":{"ha":1022,"x_min":25,"x_max":1001,"o":"m 296 0 q 265 3 289 0 q 208 10 242 6 q 140 21 175 15 q 75 33 106 26 q 25 44 44 39 q 30 65 25 56 q 40 79 35 75 l 53 79 q 87 92 69 79 q 122 131 104 104 q 159 204 140 158 q 196 318 178 250 l 358 903 q 393 932 369 915 q 444 964 417 949 q 497 990 472 979 q 535 1000 522 1000 q 581 988 553 1000 q 639 958 610 976 q 685 922 668 940 l 871 117 q 882 93 875 101 q 908 82 889 85 l 989 76 q 997 67 993 72 q 1001 44 1000 61 q 973 24 990 35 q 937 7 956 14 q 901 0 918 0 q 862 3 890 0 q 797 13 833 7 q 726 26 761 19 q 662 40 690 33 q 621 51 633 47 q 626 72 621 63 q 635 85 632 82 l 675 85 q 713 88 699 85 q 732 106 728 90 q 726 160 736 122 l 674 399 l 318 399 l 263 194 q 242 140 254 161 q 217 106 229 118 q 193 90 204 94 l 386 75 q 392 64 388 72 q 396 44 396 56 q 367 23 385 33 q 330 6 349 13 q 296 0 311 0 m 338 471 q 466 474 404 471 q 577 480 528 476 q 653 486 626 483 l 569 863 q 512 896 542 883 q 453 913 482 908 l 338 471 m 350 1071 q 327 1085 338 1076 q 313 1103 317 1094 q 402 1228 364 1176 q 468 1307 440 1279 q 511 1335 496 1335 q 556 1306 528 1335 q 622 1226 583 1278 q 710 1103 660 1174 q 696 1086 706 1096 q 671 1071 686 1076 l 511 1211 l 350 1071 m 485 1350 q 474 1397 479 1374 q 467 1443 469 1419 q 538 1458 517 1451 q 565 1483 560 1465 q 571 1538 571 1500 q 495 1549 531 1546 q 413 1551 460 1551 q 408 1568 411 1554 q 406 1590 406 1582 q 425 1605 411 1597 q 455 1618 439 1613 q 481 1624 471 1624 q 517 1617 493 1624 q 569 1601 542 1611 q 619 1576 597 1590 q 640 1528 633 1558 q 646 1475 646 1497 q 630 1449 646 1464 q 590 1419 614 1433 q 542 1400 565 1406 l 526 1350 l 485 1350 z "},"Ẫ":{"ha":1022,"x_min":25,"x_max":1001,"o":"m 296 0 q 265 3 289 0 q 208 10 242 6 q 140 21 175 15 q 75 33 106 26 q 25 44 44 39 q 30 65 25 56 q 40 79 35 75 l 53 79 q 87 92 69 79 q 122 131 104 104 q 159 204 140 158 q 196 318 178 250 l 358 903 q 393 932 369 915 q 444 964 417 949 q 497 990 472 979 q 535 1000 522 1000 q 581 988 553 1000 q 639 958 610 976 q 685 922 668 940 l 871 117 q 882 93 875 101 q 908 82 889 85 l 989 76 q 997 67 993 72 q 1001 44 1000 61 q 973 24 990 35 q 937 7 956 14 q 901 0 918 0 q 862 3 890 0 q 797 13 833 7 q 726 26 761 19 q 662 40 690 33 q 621 51 633 47 q 626 72 621 63 q 635 85 632 82 l 675 85 q 713 88 699 85 q 732 106 728 90 q 726 160 736 122 l 674 399 l 318 399 l 263 194 q 242 140 254 161 q 217 106 229 118 q 193 90 204 94 l 386 75 q 392 64 388 72 q 396 44 396 56 q 367 23 385 33 q 330 6 349 13 q 296 0 311 0 m 338 471 q 466 474 404 471 q 577 480 528 476 q 653 486 626 483 l 569 863 q 512 896 542 883 q 453 913 482 908 l 338 471 m 350 1071 q 327 1085 338 1076 q 313 1103 317 1094 q 402 1228 364 1176 q 468 1307 440 1279 q 511 1335 496 1335 q 556 1306 528 1335 q 622 1226 583 1278 q 710 1103 660 1174 q 696 1086 706 1096 q 671 1071 686 1076 l 511 1211 l 350 1071 m 636 1400 q 576 1413 619 1400 q 481 1446 533 1426 q 385 1485 429 1465 l 283 1411 q 268 1420 276 1414 q 254 1439 260 1426 q 295 1499 272 1468 q 341 1553 318 1531 q 381 1575 364 1575 q 441 1562 397 1575 q 539 1531 485 1549 q 639 1494 593 1513 l 733 1581 q 755 1569 746 1576 q 768 1557 764 1563 q 726 1487 750 1524 q 677 1425 701 1450 q 636 1400 653 1400 z "},"Ȁ":{"ha":1022,"x_min":25,"x_max":1001,"o":"m 296 0 q 265 3 289 0 q 208 10 242 6 q 140 21 175 15 q 75 33 106 26 q 25 44 44 39 q 30 65 25 56 q 40 79 35 75 l 53 79 q 87 92 69 79 q 122 131 104 104 q 159 204 140 158 q 196 318 178 250 l 358 903 q 393 932 369 915 q 444 964 417 949 q 497 990 472 979 q 535 1000 522 1000 q 581 988 553 1000 q 639 958 610 976 q 685 922 668 940 l 871 117 q 882 93 875 101 q 908 82 889 85 l 989 76 q 997 67 993 72 q 1001 44 1000 61 q 973 24 990 35 q 937 7 956 14 q 901 0 918 0 q 862 3 890 0 q 797 13 833 7 q 726 26 761 19 q 662 40 690 33 q 621 51 633 47 q 626 72 621 63 q 635 85 632 82 l 675 85 q 713 88 699 85 q 732 106 728 90 q 726 160 736 122 l 674 399 l 318 399 l 263 194 q 242 140 254 161 q 217 106 229 118 q 193 90 204 94 l 386 75 q 392 64 388 72 q 396 44 396 56 q 367 23 385 33 q 330 6 349 13 q 296 0 311 0 m 338 471 q 466 474 404 471 q 577 480 528 476 q 653 486 626 483 l 569 863 q 512 896 542 883 q 453 913 482 908 l 338 471 m 440 1068 l 197 1246 q 219 1284 204 1265 q 249 1315 233 1303 q 275 1326 265 1326 q 319 1298 288 1326 q 394 1218 351 1269 q 482 1099 438 1167 q 466 1081 478 1090 q 440 1068 454 1072 m 657 1068 l 413 1247 q 433 1283 419 1265 q 464 1314 447 1301 q 492 1326 481 1326 q 535 1298 503 1326 q 610 1218 567 1269 q 697 1099 654 1167 q 681 1081 693 1090 q 657 1068 669 1071 z "},"Ä":{"ha":1022,"x_min":25,"x_max":1001,"o":"m 296 0 q 265 3 289 0 q 208 10 242 6 q 140 21 175 15 q 75 33 106 26 q 25 44 44 39 q 30 65 25 56 q 40 79 35 75 l 53 79 q 87 92 69 79 q 122 131 104 104 q 159 204 140 158 q 196 318 178 250 l 358 903 q 393 932 369 915 q 444 964 417 949 q 497 990 472 979 q 535 1000 522 1000 q 581 988 553 1000 q 639 958 610 976 q 685 922 668 940 l 871 117 q 882 93 875 101 q 908 82 889 85 l 989 76 q 997 67 993 72 q 1001 44 1000 61 q 973 24 990 35 q 937 7 956 14 q 901 0 918 0 q 862 3 890 0 q 797 13 833 7 q 726 26 761 19 q 662 40 690 33 q 621 51 633 47 q 626 72 621 63 q 635 85 632 82 l 675 85 q 713 88 699 85 q 732 106 728 90 q 726 160 736 122 l 674 399 l 318 399 l 263 194 q 242 140 254 161 q 217 106 229 118 q 193 90 204 94 l 386 75 q 392 64 388 72 q 396 44 396 56 q 367 23 385 33 q 330 6 349 13 q 296 0 311 0 m 338 471 q 466 474 404 471 q 577 480 528 476 q 653 486 626 483 l 569 863 q 512 896 542 883 q 453 913 482 908 l 338 471 m 640 1092 q 618 1102 632 1092 q 590 1129 604 1113 q 567 1162 576 1146 q 558 1188 558 1178 q 571 1211 558 1199 q 601 1235 583 1224 q 635 1256 618 1247 q 664 1264 653 1264 q 687 1252 674 1264 q 713 1224 700 1240 q 733 1191 725 1207 q 742 1164 742 1175 q 730 1143 742 1156 q 702 1119 718 1131 q 669 1099 686 1107 q 640 1092 651 1092 m 365 1092 q 342 1102 356 1092 q 315 1129 329 1113 q 292 1162 301 1146 q 283 1188 283 1178 q 296 1211 283 1199 q 326 1235 308 1224 q 360 1256 343 1247 q 389 1264 378 1264 q 412 1253 399 1264 q 438 1225 425 1242 q 458 1192 450 1208 q 467 1164 467 1175 q 456 1143 467 1156 q 428 1119 444 1131 q 394 1099 411 1107 q 365 1092 376 1092 z "},"Ạ":{"ha":1022,"x_min":25,"x_max":1001,"o":"m 296 0 q 265 3 289 0 q 208 10 242 6 q 140 21 175 15 q 75 33 106 26 q 25 44 44 39 q 30 65 25 56 q 40 79 35 75 l 53 79 q 87 92 69 79 q 122 131 104 104 q 159 204 140 158 q 196 318 178 250 l 358 903 q 393 932 369 915 q 444 964 417 949 q 497 990 472 979 q 535 1000 522 1000 q 581 988 553 1000 q 639 958 610 976 q 685 922 668 940 l 871 117 q 882 93 875 101 q 908 82 889 85 l 989 76 q 997 67 993 72 q 1001 44 1000 61 q 973 24 990 35 q 937 7 956 14 q 901 0 918 0 q 862 3 890 0 q 797 13 833 7 q 726 26 761 19 q 662 40 690 33 q 621 51 633 47 q 626 72 621 63 q 635 85 632 82 l 675 85 q 713 88 699 85 q 732 106 728 90 q 726 160 736 122 l 674 399 l 318 399 l 263 194 q 242 140 254 161 q 217 106 229 118 q 193 90 204 94 l 386 75 q 392 64 388 72 q 396 44 396 56 q 367 23 385 33 q 330 6 349 13 q 296 0 311 0 m 338 471 q 466 474 404 471 q 577 480 528 476 q 653 486 626 483 l 569 863 q 512 896 542 883 q 453 913 482 908 l 338 471 m 493 -272 q 471 -261 485 -272 q 444 -233 457 -250 q 422 -200 431 -217 q 413 -174 413 -183 q 424 -151 413 -164 q 454 -126 436 -137 q 490 -106 472 -114 q 518 -97 507 -97 q 541 -109 528 -97 q 567 -137 554 -121 q 587 -171 579 -154 q 594 -199 594 -187 q 576 -228 594 -211 q 533 -259 557 -246 q 493 -272 510 -272 z "},"À":{"ha":1022,"x_min":25,"x_max":1001,"o":"m 296 0 q 265 3 289 0 q 208 10 242 6 q 140 21 175 15 q 75 33 106 26 q 25 44 44 39 q 30 65 25 56 q 40 79 35 75 l 53 79 q 87 92 69 79 q 122 131 104 104 q 159 204 140 158 q 196 318 178 250 l 358 903 q 393 932 369 915 q 444 964 417 949 q 497 990 472 979 q 535 1000 522 1000 q 581 988 553 1000 q 639 958 610 976 q 685 922 668 940 l 871 117 q 882 93 875 101 q 908 82 889 85 l 989 76 q 997 67 993 72 q 1001 44 1000 61 q 973 24 990 35 q 937 7 956 14 q 901 0 918 0 q 862 3 890 0 q 797 13 833 7 q 726 26 761 19 q 662 40 690 33 q 621 51 633 47 q 626 72 621 63 q 635 85 632 82 l 675 85 q 713 88 699 85 q 732 106 728 90 q 726 160 736 122 l 674 399 l 318 399 l 263 194 q 242 140 254 161 q 217 106 229 118 q 193 90 204 94 l 386 75 q 392 64 388 72 q 396 44 396 56 q 367 23 385 33 q 330 6 349 13 q 296 0 311 0 m 338 471 q 466 474 404 471 q 577 480 528 476 q 653 486 626 483 l 569 863 q 512 896 542 883 q 453 913 482 908 l 338 471 m 593 1068 l 340 1249 q 362 1286 347 1268 q 394 1317 376 1304 q 421 1331 411 1331 q 466 1302 433 1331 q 544 1222 499 1274 q 638 1100 589 1169 q 617 1081 631 1090 q 593 1068 604 1071 z "},"Ả":{"ha":1022,"x_min":25,"x_max":1001,"o":"m 296 0 q 265 3 289 0 q 208 10 242 6 q 140 21 175 15 q 75 33 106 26 q 25 44 44 39 q 30 65 25 56 q 40 79 35 75 l 53 79 q 87 92 69 79 q 122 131 104 104 q 159 204 140 158 q 196 318 178 250 l 358 903 q 393 932 369 915 q 444 964 417 949 q 497 990 472 979 q 535 1000 522 1000 q 581 988 553 1000 q 639 958 610 976 q 685 922 668 940 l 871 117 q 882 93 875 101 q 908 82 889 85 l 989 76 q 997 67 993 72 q 1001 44 1000 61 q 973 24 990 35 q 937 7 956 14 q 901 0 918 0 q 862 3 890 0 q 797 13 833 7 q 726 26 761 19 q 662 40 690 33 q 621 51 633 47 q 626 72 621 63 q 635 85 632 82 l 675 85 q 713 88 699 85 q 732 106 728 90 q 726 160 736 122 l 674 399 l 318 399 l 263 194 q 242 140 254 161 q 217 106 229 118 q 193 90 204 94 l 386 75 q 392 64 388 72 q 396 44 396 56 q 367 23 385 33 q 330 6 349 13 q 296 0 311 0 m 338 471 q 466 474 404 471 q 577 480 528 476 q 653 486 626 483 l 569 863 q 512 896 542 883 q 453 913 482 908 l 338 471 m 485 1033 q 474 1080 479 1057 q 467 1126 469 1103 q 538 1142 517 1135 q 565 1166 560 1149 q 571 1221 571 1183 q 495 1232 531 1229 q 413 1235 460 1235 q 408 1251 411 1238 q 406 1274 406 1265 q 425 1288 411 1281 q 455 1301 439 1296 q 481 1307 471 1307 q 517 1301 493 1307 q 569 1284 542 1294 q 619 1260 597 1274 q 640 1211 633 1242 q 646 1158 646 1181 q 630 1132 646 1147 q 590 1103 614 1117 q 542 1083 565 1089 l 526 1033 l 485 1033 z "},"Ȃ":{"ha":1022,"x_min":25,"x_max":1001,"o":"m 296 0 q 265 3 289 0 q 208 10 242 6 q 140 21 175 15 q 75 33 106 26 q 25 44 44 39 q 30 65 25 56 q 40 79 35 75 l 53 79 q 87 92 69 79 q 122 131 104 104 q 159 204 140 158 q 196 318 178 250 l 358 903 q 393 932 369 915 q 444 964 417 949 q 497 990 472 979 q 535 1000 522 1000 q 581 988 553 1000 q 639 958 610 976 q 685 922 668 940 l 871 117 q 882 93 875 101 q 908 82 889 85 l 989 76 q 997 67 993 72 q 1001 44 1000 61 q 973 24 990 35 q 937 7 956 14 q 901 0 918 0 q 862 3 890 0 q 797 13 833 7 q 726 26 761 19 q 662 40 690 33 q 621 51 633 47 q 626 72 621 63 q 635 85 632 82 l 675 85 q 713 88 699 85 q 732 106 728 90 q 726 160 736 122 l 674 399 l 318 399 l 263 194 q 242 140 254 161 q 217 106 229 118 q 193 90 204 94 l 386 75 q 392 64 388 72 q 396 44 396 56 q 367 23 385 33 q 330 6 349 13 q 296 0 311 0 m 338 471 q 466 474 404 471 q 577 480 528 476 q 653 486 626 483 l 569 863 q 512 896 542 883 q 453 913 482 908 l 338 471 m 511 1256 q 632 1212 593 1256 q 681 1093 671 1168 q 657 1085 672 1089 q 618 1081 642 1081 q 584 1154 608 1135 q 511 1174 560 1174 q 438 1154 461 1174 q 403 1081 414 1135 q 366 1085 382 1081 q 342 1093 350 1089 q 389 1210 350 1165 q 511 1256 428 1256 z "},"Ā":{"ha":1022,"x_min":25,"x_max":1001,"o":"m 296 0 q 265 3 289 0 q 208 10 242 6 q 140 21 175 15 q 75 33 106 26 q 25 44 44 39 q 30 65 25 56 q 40 79 35 75 l 53 79 q 87 92 69 79 q 122 131 104 104 q 159 204 140 158 q 196 318 178 250 l 358 903 q 393 932 369 915 q 444 964 417 949 q 497 990 472 979 q 535 1000 522 1000 q 581 988 553 1000 q 639 958 610 976 q 685 922 668 940 l 871 117 q 882 93 875 101 q 908 82 889 85 l 989 76 q 997 67 993 72 q 1001 44 1000 61 q 973 24 990 35 q 937 7 956 14 q 901 0 918 0 q 862 3 890 0 q 797 13 833 7 q 726 26 761 19 q 662 40 690 33 q 621 51 633 47 q 626 72 621 63 q 635 85 632 82 l 675 85 q 713 88 699 85 q 732 106 728 90 q 726 160 736 122 l 674 399 l 318 399 l 263 194 q 242 140 254 161 q 217 106 229 118 q 193 90 204 94 l 386 75 q 392 64 388 72 q 396 44 396 56 q 367 23 385 33 q 330 6 349 13 q 296 0 311 0 m 338 471 q 466 474 404 471 q 577 480 528 476 q 653 486 626 483 l 569 863 q 512 896 542 883 q 453 913 482 908 l 338 471 m 289 1096 q 294 1147 289 1126 q 306 1172 300 1167 q 409 1174 349 1172 q 533 1180 469 1176 q 647 1187 596 1183 q 721 1192 697 1190 l 736 1179 q 729 1129 735 1151 q 719 1096 724 1107 l 289 1096 z "},"Ą":{"ha":1022,"x_min":25,"x_max":1001,"o":"m 296 0 q 265 3 289 0 q 208 10 242 6 q 140 21 175 15 q 75 33 106 26 q 25 44 44 39 q 30 65 25 56 q 40 79 35 75 l 53 79 q 87 92 69 79 q 122 131 104 104 q 159 204 140 158 q 196 318 178 250 l 358 903 q 393 932 369 915 q 444 964 417 949 q 497 990 472 979 q 535 1000 522 1000 q 581 988 553 1000 q 639 958 610 976 q 685 922 668 940 l 871 117 q 882 93 875 101 q 908 82 889 85 l 989 76 q 997 67 993 72 q 1001 44 1000 61 q 973 24 990 35 q 937 7 956 14 q 901 0 918 0 q 862 3 890 0 q 797 13 833 7 q 726 26 761 19 q 662 40 690 33 q 621 51 633 47 q 626 72 621 63 q 635 85 632 82 l 675 85 q 713 88 699 85 q 732 106 728 90 q 726 160 736 122 l 674 399 l 318 399 l 263 194 q 242 140 254 161 q 217 106 229 118 q 193 90 204 94 l 386 75 q 392 64 388 72 q 396 44 396 56 q 367 23 385 33 q 330 6 349 13 q 296 0 311 0 m 338 471 q 466 474 404 471 q 577 480 528 476 q 653 486 626 483 l 569 863 q 512 896 542 883 q 453 913 482 908 l 338 471 m 832 -278 q 803 -270 825 -278 q 756 -249 782 -262 q 708 -217 731 -235 q 676 -179 686 -199 q 694 -108 676 -144 q 742 -39 713 -72 q 807 19 772 -6 l 900 19 q 835 -37 863 -4 q 794 -100 808 -71 q 779 -142 779 -129 q 857 -189 810 -175 q 956 -201 904 -203 q 963 -211 958 -204 q 967 -225 967 -218 q 905 -262 947 -247 q 832 -278 863 -278 z "},"Å":{"ha":1022,"x_min":25,"x_max":1001,"o":"m 296 0 q 265 3 289 0 q 208 10 242 6 q 140 21 175 15 q 75 33 106 26 q 25 44 44 39 q 30 65 25 56 q 40 79 35 75 l 53 79 q 87 92 69 79 q 122 131 104 104 q 159 204 140 158 q 196 318 178 250 l 358 903 q 393 932 369 915 q 444 964 417 949 q 497 990 472 979 q 535 1000 522 1000 q 581 988 553 1000 q 639 958 610 976 q 685 922 668 940 l 871 117 q 882 93 875 101 q 908 82 889 85 l 989 76 q 997 67 993 72 q 1001 44 1000 61 q 973 24 990 35 q 937 7 956 14 q 901 0 918 0 q 862 3 890 0 q 797 13 833 7 q 726 26 761 19 q 662 40 690 33 q 621 51 633 47 q 626 72 621 63 q 635 85 632 82 l 675 85 q 713 88 699 85 q 732 106 728 90 q 726 160 736 122 l 674 399 l 318 399 l 263 194 q 242 140 254 161 q 217 106 229 118 q 193 90 204 94 l 386 75 q 392 64 388 72 q 396 44 396 56 q 367 23 385 33 q 330 6 349 13 q 296 0 311 0 m 338 471 q 466 474 404 471 q 577 480 528 476 q 653 486 626 483 l 569 863 q 512 896 542 883 q 453 913 482 908 l 338 471 m 511 1068 q 412 1105 451 1068 q 372 1199 372 1142 q 412 1293 372 1256 q 511 1331 451 1331 q 612 1293 572 1331 q 651 1199 651 1256 q 612 1105 651 1142 q 511 1068 572 1068 m 511 1132 q 564 1150 544 1132 q 583 1199 583 1168 q 564 1249 583 1231 q 511 1267 544 1267 q 461 1249 481 1267 q 442 1199 442 1231 q 461 1150 442 1168 q 511 1132 481 1132 z "},"Ǻ":{"ha":1022,"x_min":25,"x_max":1001,"o":"m 296 0 q 265 3 289 0 q 208 10 242 6 q 140 21 175 15 q 75 33 106 26 q 25 44 44 39 q 30 65 25 56 q 40 79 35 75 l 53 79 q 87 92 69 79 q 122 131 104 104 q 159 204 140 158 q 196 318 178 250 l 358 903 q 393 932 369 915 q 444 964 417 949 q 497 990 472 979 q 535 1000 522 1000 q 581 988 553 1000 q 639 958 610 976 q 685 922 668 940 l 871 117 q 882 93 875 101 q 908 82 889 85 l 989 76 q 997 67 993 72 q 1001 44 1000 61 q 973 24 990 35 q 937 7 956 14 q 901 0 918 0 q 862 3 890 0 q 797 13 833 7 q 726 26 761 19 q 662 40 690 33 q 621 51 633 47 q 626 72 621 63 q 635 85 632 82 l 675 85 q 713 88 699 85 q 732 106 728 90 q 726 160 736 122 l 674 399 l 318 399 l 263 194 q 242 140 254 161 q 217 106 229 118 q 193 90 204 94 l 386 75 q 392 64 388 72 q 396 44 396 56 q 367 23 385 33 q 330 6 349 13 q 296 0 311 0 m 338 471 q 466 474 404 471 q 577 480 528 476 q 653 486 626 483 l 569 863 q 512 896 542 883 q 453 913 482 908 l 338 471 m 511 1068 q 412 1105 451 1068 q 372 1199 372 1142 q 412 1293 372 1256 q 511 1331 451 1331 q 612 1293 572 1331 q 651 1199 651 1256 q 612 1105 651 1142 q 511 1068 572 1068 m 511 1132 q 564 1150 544 1132 q 583 1199 583 1168 q 564 1249 583 1231 q 511 1267 544 1267 q 461 1249 481 1267 q 442 1199 442 1231 q 461 1150 442 1168 q 511 1132 481 1132 m 417 1385 q 391 1399 403 1389 q 374 1417 379 1408 q 465 1537 421 1485 q 543 1618 510 1589 q 589 1647 576 1647 q 616 1635 599 1647 q 649 1603 633 1622 q 671 1565 664 1585 l 417 1385 z "},"Ã":{"ha":1022,"x_min":25,"x_max":1001,"o":"m 296 0 q 265 3 289 0 q 208 10 242 6 q 140 21 175 15 q 75 33 106 26 q 25 44 44 39 q 30 65 25 56 q 40 79 35 75 l 53 79 q 87 92 69 79 q 122 131 104 104 q 159 204 140 158 q 196 318 178 250 l 358 903 q 393 932 369 915 q 444 964 417 949 q 497 990 472 979 q 535 1000 522 1000 q 581 988 553 1000 q 639 958 610 976 q 685 922 668 940 l 871 117 q 882 93 875 101 q 908 82 889 85 l 989 76 q 997 67 993 72 q 1001 44 1000 61 q 973 24 990 35 q 937 7 956 14 q 901 0 918 0 q 862 3 890 0 q 797 13 833 7 q 726 26 761 19 q 662 40 690 33 q 621 51 633 47 q 626 72 621 63 q 635 85 632 82 l 675 85 q 713 88 699 85 q 732 106 728 90 q 726 160 736 122 l 674 399 l 318 399 l 263 194 q 242 140 254 161 q 217 106 229 118 q 193 90 204 94 l 386 75 q 392 64 388 72 q 396 44 396 56 q 367 23 385 33 q 330 6 349 13 q 296 0 311 0 m 338 471 q 466 474 404 471 q 577 480 528 476 q 653 486 626 483 l 569 863 q 512 896 542 883 q 453 913 482 908 l 338 471 m 636 1083 q 576 1097 619 1083 q 481 1129 533 1110 q 385 1168 429 1149 l 283 1094 q 268 1103 276 1097 q 254 1122 260 1110 q 295 1183 272 1151 q 341 1236 318 1214 q 381 1258 364 1258 q 441 1245 397 1258 q 539 1214 485 1232 q 639 1178 593 1196 l 733 1264 q 755 1253 746 1260 q 768 1240 764 1246 q 726 1170 750 1207 q 677 1108 701 1133 q 636 1083 653 1083 z "},"Æ":{"ha":1339,"x_min":25,"x_max":1289,"o":"m 281 0 q 240 4 271 0 q 167 15 208 8 q 88 30 126 22 q 25 44 50 38 q 30 65 25 56 q 39 81 35 75 l 56 81 q 87 89 71 81 q 120 121 103 97 q 156 190 138 144 q 194 308 175 236 l 356 881 q 389 910 367 893 q 438 942 411 926 q 490 967 465 957 q 528 978 514 978 l 1090 978 q 1160 948 1125 968 q 1215 907 1196 928 q 1199 769 1211 829 q 1178 679 1186 708 q 1135 683 1154 679 q 1108 693 1117 688 l 1075 888 q 1023 894 1056 890 q 952 902 990 899 q 875 908 914 906 q 803 910 836 910 q 728 903 750 910 q 705 880 707 897 q 710 825 703 863 l 776 526 q 902 541 843 533 q 1010 558 961 549 q 1093 575 1060 567 l 1106 561 q 1101 510 1106 535 q 1090 474 1096 486 l 796 444 l 847 210 q 853 133 858 163 q 833 93 847 104 l 1150 93 l 1221 319 q 1262 313 1243 319 q 1289 297 1281 306 q 1287 219 1289 263 q 1281 135 1285 176 q 1274 61 1278 93 q 1241 35 1263 50 q 1198 11 1219 21 q 1163 0 1176 1 q 1085 2 1131 0 q 986 7 1039 4 q 878 15 933 10 q 773 24 824 19 q 681 34 722 29 q 614 44 639 39 q 619 65 614 56 q 626 78 624 75 l 660 82 q 700 94 682 86 q 724 120 718 101 q 722 176 731 139 l 667 431 l 313 397 l 258 193 q 235 135 249 157 q 211 103 222 114 q 193 89 200 92 l 372 75 q 380 64 376 72 q 383 43 383 56 q 353 23 372 33 q 315 6 335 13 q 281 0 296 0 m 332 474 q 410 481 374 478 q 483 489 447 485 q 559 498 519 493 q 647 510 599 503 l 564 894 q 487 885 518 894 q 439 869 456 876 l 332 474 z "},"Ǽ":{"ha":1339,"x_min":25,"x_max":1289,"o":"m 281 0 q 240 4 271 0 q 167 15 208 8 q 88 30 126 22 q 25 44 50 38 q 30 65 25 56 q 39 81 35 75 l 56 81 q 87 89 71 81 q 120 121 103 97 q 156 190 138 144 q 194 308 175 236 l 356 881 q 389 910 367 893 q 438 942 411 926 q 490 967 465 957 q 528 978 514 978 l 1090 978 q 1160 948 1125 968 q 1215 907 1196 928 q 1199 769 1211 829 q 1178 679 1186 708 q 1135 683 1154 679 q 1108 693 1117 688 l 1075 888 q 1023 894 1056 890 q 952 902 990 899 q 875 908 914 906 q 803 910 836 910 q 728 903 750 910 q 705 880 707 897 q 710 825 703 863 l 776 526 q 902 541 843 533 q 1010 558 961 549 q 1093 575 1060 567 l 1106 561 q 1101 510 1106 535 q 1090 474 1096 486 l 796 444 l 847 210 q 853 133 858 163 q 833 93 847 104 l 1150 93 l 1221 319 q 1262 313 1243 319 q 1289 297 1281 306 q 1287 219 1289 263 q 1281 135 1285 176 q 1274 61 1278 93 q 1241 35 1263 50 q 1198 11 1219 21 q 1163 0 1176 1 q 1085 2 1131 0 q 986 7 1039 4 q 878 15 933 10 q 773 24 824 19 q 681 34 722 29 q 614 44 639 39 q 619 65 614 56 q 626 78 624 75 l 660 82 q 700 94 682 86 q 724 120 718 101 q 722 176 731 139 l 667 431 l 313 397 l 258 193 q 235 135 249 157 q 211 103 222 114 q 193 89 200 92 l 372 75 q 380 64 376 72 q 383 43 383 56 q 353 23 372 33 q 315 6 335 13 q 281 0 296 0 m 332 474 q 410 481 374 478 q 483 489 447 485 q 559 498 519 493 q 647 510 599 503 l 564 894 q 487 885 518 894 q 439 869 456 876 l 332 474 m 636 1068 q 610 1082 622 1072 q 593 1100 599 1092 q 685 1220 640 1168 q 763 1301 729 1272 q 808 1331 796 1331 q 835 1318 818 1331 q 868 1287 853 1306 q 890 1249 883 1268 l 636 1068 z "},"B":{"ha":922,"x_min":69,"x_max":842,"o":"m 608 0 q 517 3 571 0 q 399 10 463 6 q 274 20 336 14 q 158 33 211 26 q 69 44 104 39 q 74 64 69 54 q 83 78 78 74 l 121 83 q 163 99 149 88 q 183 138 178 111 q 188 217 188 165 l 188 797 q 195 870 188 840 q 213 907 203 900 l 85 907 q 76 918 81 911 q 69 935 71 925 q 93 954 76 944 q 127 971 110 964 q 151 978 144 978 l 608 978 q 674 953 640 969 q 737 917 707 938 q 786 874 767 896 q 801 824 796 853 q 806 765 806 794 q 799 677 806 722 q 780 597 792 632 q 751 544 768 561 q 699 522 732 533 q 631 506 665 511 l 629 500 q 744 474 693 493 q 817 438 794 454 q 836 374 831 410 q 842 301 842 338 q 838 237 842 269 q 827 174 833 204 q 810 118 821 144 q 763 72 797 99 q 685 26 728 46 q 608 0 643 6 m 296 93 l 653 93 q 682 139 671 108 q 699 207 693 169 q 704 279 704 244 q 701 338 704 308 q 690 392 697 368 q 642 424 672 407 q 565 455 611 442 q 451 468 518 468 l 319 468 l 319 185 q 311 127 319 151 q 296 93 303 103 m 319 539 q 438 542 383 540 q 539 549 492 544 q 631 557 586 553 q 665 635 653 589 q 676 731 676 682 q 667 818 676 776 q 633 883 657 860 q 572 897 608 892 q 494 906 535 903 q 419 910 454 910 q 344 880 368 910 q 319 800 319 850 l 319 539 z "},"C":{"ha":901,"x_min":88,"x_max":818,"o":"m 486 0 q 398 14 447 0 q 300 49 349 28 q 213 94 251 71 q 156 138 174 118 q 106 261 124 178 q 88 446 88 344 q 97 610 88 529 q 119 754 106 690 q 146 851 132 818 q 222 902 176 876 q 321 951 267 928 q 430 987 375 974 q 533 1000 485 1000 q 641 988 586 1000 q 742 955 696 975 q 818 913 789 935 q 803 770 814 832 q 785 679 792 708 q 737 685 754 681 q 711 693 719 689 l 683 863 q 633 882 665 872 q 567 899 600 892 q 511 906 533 906 q 437 897 481 906 q 350 876 393 889 q 276 846 307 863 q 249 749 260 807 q 232 626 238 692 q 226 497 226 561 q 232 377 226 435 q 249 273 238 319 q 274 197 260 226 q 317 165 288 182 q 383 132 347 147 q 454 106 418 117 q 518 96 490 96 q 575 99 544 96 q 632 108 606 103 q 676 119 658 113 l 743 326 q 787 319 767 326 q 817 306 807 313 q 813 234 817 274 q 806 156 810 194 q 799 88 803 118 q 726 50 772 71 q 619 15 679 29 q 486 0 558 0 z "},"Ć":{"ha":901,"x_min":88,"x_max":818,"o":"m 486 0 q 398 14 447 0 q 300 49 349 28 q 213 94 251 71 q 156 138 174 118 q 106 261 124 178 q 88 446 88 344 q 97 610 88 529 q 119 754 106 690 q 146 851 132 818 q 222 902 176 876 q 321 951 267 928 q 430 987 375 974 q 533 1000 485 1000 q 641 988 586 1000 q 742 955 696 975 q 818 913 789 935 q 803 770 814 832 q 785 679 792 708 q 737 685 754 681 q 711 693 719 689 l 683 863 q 633 882 665 872 q 567 899 600 892 q 511 906 533 906 q 437 897 481 906 q 350 876 393 889 q 276 846 307 863 q 249 749 260 807 q 232 626 238 692 q 226 497 226 561 q 232 377 226 435 q 249 273 238 319 q 274 197 260 226 q 317 165 288 182 q 383 132 347 147 q 454 106 418 117 q 518 96 490 96 q 575 99 544 96 q 632 108 606 103 q 676 119 658 113 l 743 326 q 787 319 767 326 q 817 306 807 313 q 813 234 817 274 q 806 156 810 194 q 799 88 803 118 q 726 50 772 71 q 619 15 679 29 q 486 0 558 0 m 399 1068 q 373 1082 385 1072 q 356 1100 361 1092 q 447 1220 403 1168 q 525 1301 492 1272 q 571 1331 558 1331 q 598 1318 581 1331 q 631 1287 615 1306 q 653 1249 646 1268 l 399 1068 z "},"Č":{"ha":901,"x_min":88,"x_max":818,"o":"m 486 0 q 398 14 447 0 q 300 49 349 28 q 213 94 251 71 q 156 138 174 118 q 106 261 124 178 q 88 446 88 344 q 97 610 88 529 q 119 754 106 690 q 146 851 132 818 q 222 902 176 876 q 321 951 267 928 q 430 987 375 974 q 533 1000 485 1000 q 641 988 586 1000 q 742 955 696 975 q 818 913 789 935 q 803 770 814 832 q 785 679 792 708 q 737 685 754 681 q 711 693 719 689 l 683 863 q 633 882 665 872 q 567 899 600 892 q 511 906 533 906 q 437 897 481 906 q 350 876 393 889 q 276 846 307 863 q 249 749 260 807 q 232 626 238 692 q 226 497 226 561 q 232 377 226 435 q 249 273 238 319 q 274 197 260 226 q 317 165 288 182 q 383 132 347 147 q 454 106 418 117 q 518 96 490 96 q 575 99 544 96 q 632 108 606 103 q 676 119 658 113 l 743 326 q 787 319 767 326 q 817 306 807 313 q 813 234 817 274 q 806 156 810 194 q 799 88 803 118 q 726 50 772 71 q 619 15 679 29 q 486 0 558 0 m 493 1071 q 448 1099 475 1071 q 383 1178 421 1126 q 294 1297 344 1229 q 310 1316 299 1306 q 333 1329 321 1326 l 494 1192 l 653 1329 q 677 1316 667 1325 q 692 1299 688 1307 q 603 1176 640 1228 q 538 1098 565 1125 q 493 1071 511 1071 z "},"Ç":{"ha":901,"x_min":88,"x_max":818,"o":"m 486 0 q 398 14 447 0 q 300 49 349 28 q 213 94 251 71 q 156 138 174 118 q 106 261 124 178 q 88 446 88 344 q 97 610 88 529 q 119 754 106 690 q 146 851 132 818 q 222 902 176 876 q 321 951 267 928 q 430 987 375 974 q 533 1000 485 1000 q 641 988 586 1000 q 742 955 696 975 q 818 913 789 935 q 803 770 814 832 q 785 679 792 708 q 737 685 754 681 q 711 693 719 689 l 683 863 q 633 882 665 872 q 567 899 600 892 q 511 906 533 906 q 437 897 481 906 q 350 876 393 889 q 276 846 307 863 q 249 749 260 807 q 232 626 238 692 q 226 497 226 561 q 232 377 226 435 q 249 273 238 319 q 274 197 260 226 q 317 165 288 182 q 383 132 347 147 q 454 106 418 117 q 518 96 490 96 q 575 99 544 96 q 632 108 606 103 q 676 119 658 113 l 743 326 q 787 319 767 326 q 817 306 807 313 q 813 234 817 274 q 806 156 810 194 q 799 88 803 118 q 726 50 772 71 q 619 15 679 29 q 486 0 558 0 m 489 -278 q 457 -272 476 -278 q 422 -259 438 -267 q 400 -244 406 -251 q 403 -228 400 -235 q 407 -219 406 -222 q 490 -218 454 -219 q 558 -210 526 -217 q 569 -178 565 -199 q 572 -143 572 -157 q 539 -126 563 -136 q 488 -108 515 -117 q 440 -96 461 -100 q 429 -75 435 -89 q 424 -47 424 -61 q 449 1 436 -22 q 478 51 461 24 l 525 51 l 496 -51 q 571 -71 533 -57 q 633 -100 608 -85 q 658 -126 658 -115 q 650 -181 658 -149 q 628 -231 642 -212 q 578 -255 606 -244 q 526 -272 550 -265 q 489 -278 501 -278 z "},"Ĉ":{"ha":901,"x_min":88,"x_max":818,"o":"m 486 0 q 398 14 447 0 q 300 49 349 28 q 213 94 251 71 q 156 138 174 118 q 106 261 124 178 q 88 446 88 344 q 97 610 88 529 q 119 754 106 690 q 146 851 132 818 q 222 902 176 876 q 321 951 267 928 q 430 987 375 974 q 533 1000 485 1000 q 641 988 586 1000 q 742 955 696 975 q 818 913 789 935 q 803 770 814 832 q 785 679 792 708 q 737 685 754 681 q 711 693 719 689 l 683 863 q 633 882 665 872 q 567 899 600 892 q 511 906 533 906 q 437 897 481 906 q 350 876 393 889 q 276 846 307 863 q 249 749 260 807 q 232 626 238 692 q 226 497 226 561 q 232 377 226 435 q 249 273 238 319 q 274 197 260 226 q 317 165 288 182 q 383 132 347 147 q 454 106 418 117 q 518 96 490 96 q 575 99 544 96 q 632 108 606 103 q 676 119 658 113 l 743 326 q 787 319 767 326 q 817 306 807 313 q 813 234 817 274 q 806 156 810 194 q 799 88 803 118 q 726 50 772 71 q 619 15 679 29 q 486 0 558 0 m 332 1071 q 309 1085 319 1076 q 294 1103 299 1094 q 384 1228 346 1176 q 450 1307 422 1279 q 493 1335 478 1335 q 538 1306 510 1335 q 603 1226 565 1278 q 692 1103 642 1174 q 678 1086 688 1096 q 653 1071 668 1076 l 493 1211 l 332 1071 z "},"Ċ":{"ha":901,"x_min":88,"x_max":818,"o":"m 486 0 q 398 14 447 0 q 300 49 349 28 q 213 94 251 71 q 156 138 174 118 q 106 261 124 178 q 88 446 88 344 q 97 610 88 529 q 119 754 106 690 q 146 851 132 818 q 222 902 176 876 q 321 951 267 928 q 430 987 375 974 q 533 1000 485 1000 q 641 988 586 1000 q 742 955 696 975 q 818 913 789 935 q 803 770 814 832 q 785 679 792 708 q 737 685 754 681 q 711 693 719 689 l 683 863 q 633 882 665 872 q 567 899 600 892 q 511 906 533 906 q 437 897 481 906 q 350 876 393 889 q 276 846 307 863 q 249 749 260 807 q 232 626 238 692 q 226 497 226 561 q 232 377 226 435 q 249 273 238 319 q 274 197 260 226 q 317 165 288 182 q 383 132 347 147 q 454 106 418 117 q 518 96 490 96 q 575 99 544 96 q 632 108 606 103 q 676 119 658 113 l 743 326 q 787 319 767 326 q 817 306 807 313 q 813 234 817 274 q 806 156 810 194 q 799 88 803 118 q 726 50 772 71 q 619 15 679 29 q 486 0 558 0 m 482 1118 q 459 1130 474 1118 q 431 1159 444 1142 q 407 1193 417 1176 q 397 1221 397 1210 q 410 1246 397 1232 q 442 1272 424 1260 q 478 1292 460 1283 q 507 1300 496 1300 q 531 1288 518 1300 q 558 1259 544 1276 q 580 1224 571 1242 q 589 1194 589 1206 q 577 1173 589 1186 q 548 1147 565 1160 q 513 1126 531 1135 q 482 1118 494 1118 z "},"D":{"ha":1017,"x_min":69,"x_max":929,"o":"m 640 0 q 541 3 600 0 q 414 10 482 6 q 279 21 346 15 q 158 33 213 26 q 69 44 103 39 q 74 64 69 54 q 83 78 78 74 l 121 83 q 163 99 149 88 q 183 138 178 111 q 188 217 188 165 l 188 797 q 192 856 188 833 q 202 892 196 879 q 213 907 208 904 l 85 907 q 75 919 79 911 q 69 935 71 926 q 93 954 76 944 q 127 971 110 964 q 151 978 144 978 l 672 978 q 723 961 696 972 q 778 935 750 950 q 828 902 806 919 q 867 868 851 885 q 916 710 903 799 q 929 533 929 622 q 919 373 929 450 q 892 233 910 296 q 853 131 875 171 q 808 89 835 110 q 753 51 782 68 q 694 20 724 33 q 640 0 665 7 m 296 93 l 689 93 q 732 153 713 113 q 765 247 751 193 q 784 365 778 301 q 790 493 790 429 q 786 622 790 563 q 772 733 782 682 q 742 822 761 783 q 697 882 724 860 q 623 895 672 889 q 515 906 574 901 q 400 910 456 910 q 335 881 350 910 q 319 800 319 851 l 319 185 q 311 127 319 151 q 296 93 303 103 z "},"Ǆ":{"ha":1889,"x_min":69,"x_max":1822,"o":"m 640 0 q 541 3 600 0 q 414 10 482 6 q 279 21 346 15 q 158 33 213 26 q 69 44 103 39 q 74 64 69 54 q 83 78 78 74 l 121 83 q 163 99 149 88 q 183 138 178 111 q 188 217 188 165 l 188 797 q 192 856 188 833 q 202 892 196 879 q 213 907 208 904 l 85 907 q 75 919 79 911 q 69 935 71 926 q 93 954 76 944 q 127 971 110 964 q 151 978 144 978 l 672 978 q 723 961 696 972 q 778 935 750 950 q 828 902 806 919 q 867 868 851 885 q 916 710 903 799 q 929 533 929 622 q 919 373 929 450 q 892 233 910 296 q 853 131 875 171 q 808 89 835 110 q 753 51 782 68 q 694 20 724 33 q 640 0 665 7 m 296 93 l 689 93 q 732 153 713 113 q 765 247 751 193 q 784 365 778 301 q 790 493 790 429 q 786 622 790 563 q 772 733 782 682 q 742 822 761 783 q 697 882 724 860 q 623 895 672 889 q 515 906 574 901 q 400 910 456 910 q 335 881 350 910 q 319 800 319 851 l 319 185 q 311 127 319 151 q 296 93 303 103 z "},"Ð":{"ha":1021,"x_min":71,"x_max":933,"o":"m 301 457 l 188 458 l 71 458 q 76 503 71 488 q 85 521 81 518 l 188 522 l 301 528 q 462 534 389 529 q 594 546 535 539 l 607 535 q 600 486 606 507 q 590 457 594 465 l 301 457 m 644 0 q 546 3 606 0 q 419 10 486 6 q 284 21 351 15 q 162 33 217 26 q 74 44 107 39 q 78 64 74 54 q 88 78 83 74 l 125 83 q 168 99 154 88 q 187 138 182 111 q 192 217 192 165 l 192 797 q 197 856 192 833 q 208 892 201 879 q 217 907 214 904 l 89 907 q 80 919 85 911 q 74 935 75 926 q 97 954 81 944 q 131 971 114 964 q 157 978 149 978 l 676 978 q 728 961 700 972 q 783 935 756 950 q 833 902 810 919 q 871 868 856 885 q 920 710 907 799 q 933 533 933 622 q 924 373 933 450 q 897 233 914 296 q 858 131 881 171 q 813 89 839 110 q 757 51 786 68 q 699 20 728 33 q 644 0 669 7 m 300 93 l 693 93 q 737 153 718 113 q 769 247 756 193 q 789 365 782 301 q 796 493 796 429 q 791 622 796 563 q 776 733 786 682 q 747 822 765 783 q 703 882 729 860 q 628 895 678 889 q 519 906 578 901 q 404 910 460 910 q 340 881 356 910 q 324 800 324 851 l 324 185 q 316 127 324 151 q 300 93 308 103 z "},"Ď":{"ha":1017,"x_min":69,"x_max":929,"o":"m 640 0 q 541 3 600 0 q 414 10 482 6 q 279 21 346 15 q 158 33 213 26 q 69 44 103 39 q 74 64 69 54 q 83 78 78 74 l 121 83 q 163 99 149 88 q 183 138 178 111 q 188 217 188 165 l 188 797 q 192 856 188 833 q 202 892 196 879 q 213 907 208 904 l 85 907 q 75 919 79 911 q 69 935 71 926 q 93 954 76 944 q 127 971 110 964 q 151 978 144 978 l 672 978 q 723 961 696 972 q 778 935 750 950 q 828 902 806 919 q 867 868 851 885 q 916 710 903 799 q 929 533 929 622 q 919 373 929 450 q 892 233 910 296 q 853 131 875 171 q 808 89 835 110 q 753 51 782 68 q 694 20 724 33 q 640 0 665 7 m 296 93 l 689 93 q 732 153 713 113 q 765 247 751 193 q 784 365 778 301 q 790 493 790 429 q 786 622 790 563 q 772 733 782 682 q 742 822 761 783 q 697 882 724 860 q 623 895 672 889 q 515 906 574 901 q 400 910 456 910 q 335 881 350 910 q 319 800 319 851 l 319 185 q 311 127 319 151 q 296 93 303 103 m 513 1071 q 467 1099 494 1071 q 402 1178 440 1126 q 314 1297 364 1229 q 329 1316 318 1306 q 353 1329 340 1326 l 514 1192 l 672 1329 q 697 1316 686 1325 q 711 1299 707 1307 q 622 1176 660 1228 q 558 1098 585 1125 q 513 1071 531 1071 z "},"Đ":{"ha":1021,"x_min":71,"x_max":933,"o":"m 301 457 l 188 458 l 71 458 q 76 503 71 488 q 85 521 81 518 l 188 522 l 301 528 q 462 534 389 529 q 594 546 535 539 l 607 535 q 600 486 606 507 q 590 457 594 465 l 301 457 m 644 0 q 546 3 606 0 q 419 10 486 6 q 284 21 351 15 q 162 33 217 26 q 74 44 107 39 q 78 64 74 54 q 88 78 83 74 l 125 83 q 168 99 154 88 q 187 138 182 111 q 192 217 192 165 l 192 797 q 197 856 192 833 q 208 892 201 879 q 217 907 214 904 l 89 907 q 80 919 85 911 q 74 935 75 926 q 97 954 81 944 q 131 971 114 964 q 157 978 149 978 l 676 978 q 728 961 700 972 q 783 935 756 950 q 833 902 810 919 q 871 868 856 885 q 920 710 907 799 q 933 533 933 622 q 924 373 933 450 q 897 233 914 296 q 858 131 881 171 q 813 89 839 110 q 757 51 786 68 q 699 20 728 33 q 644 0 669 7 m 300 93 l 693 93 q 737 153 718 113 q 769 247 756 193 q 789 365 782 301 q 796 493 796 429 q 791 622 796 563 q 776 733 786 682 q 747 822 765 783 q 703 882 729 860 q 628 895 678 889 q 519 906 578 901 q 404 910 460 910 q 340 881 356 910 q 324 800 324 851 l 324 185 q 316 127 324 151 q 300 93 308 103 z "},"ǅ":{"ha":1665,"x_min":69,"x_max":1631,"o":"m 640 0 q 541 3 600 0 q 414 10 482 6 q 279 21 346 15 q 158 33 213 26 q 69 44 103 39 q 74 64 69 54 q 83 78 78 74 l 121 83 q 163 99 149 88 q 183 138 178 111 q 188 217 188 165 l 188 797 q 192 856 188 833 q 202 892 196 879 q 213 907 208 904 l 85 907 q 75 919 79 911 q 69 935 71 926 q 93 954 76 944 q 127 971 110 964 q 151 978 144 978 l 672 978 q 723 961 696 972 q 778 935 750 950 q 828 902 806 919 q 867 868 851 885 q 916 710 903 799 q 929 533 929 622 q 919 373 929 450 q 892 233 910 296 q 853 131 875 171 q 808 89 835 110 q 753 51 782 68 q 694 20 724 33 q 640 0 665 7 m 296 93 l 689 93 q 732 153 713 113 q 765 247 751 193 q 784 365 778 301 q 790 493 790 429 q 786 622 790 563 q 772 733 782 682 q 742 822 761 783 q 697 882 724 860 q 623 895 672 889 q 515 906 574 901 q 400 910 456 910 q 335 881 350 910 q 319 800 319 851 l 319 185 q 311 127 319 151 q 296 93 303 103 z "},"E":{"ha":901,"x_min":69,"x_max":818,"o":"m 692 0 q 608 2 660 0 q 497 7 557 4 q 374 15 436 10 q 252 24 311 19 q 145 34 193 29 q 69 44 97 39 q 74 64 69 54 q 83 78 78 74 l 121 83 q 163 99 149 88 q 183 138 178 111 q 188 217 188 165 l 188 797 q 192 856 188 833 q 202 892 196 879 q 213 907 208 904 l 85 907 q 76 918 81 911 q 69 936 71 925 q 93 954 76 944 q 127 971 110 964 q 151 978 144 978 l 689 978 q 758 948 724 968 q 813 907 792 928 q 794 769 807 829 q 774 679 782 708 q 730 684 749 679 q 704 693 711 689 l 671 888 q 599 897 643 892 q 504 906 556 901 q 401 910 453 910 q 349 894 367 910 q 325 854 331 879 q 319 800 319 829 l 319 543 q 434 547 381 544 q 535 553 488 549 q 621 560 582 557 l 633 547 q 626 496 631 518 q 618 464 621 474 l 319 464 l 319 185 q 311 127 319 151 q 296 93 303 103 l 678 93 l 750 319 q 792 312 774 319 q 818 297 811 304 q 815 218 818 261 q 809 134 813 175 q 801 61 806 93 q 768 35 789 49 q 726 10 747 21 q 692 0 706 0 z "},"É":{"ha":901,"x_min":69,"x_max":818,"o":"m 692 0 q 608 2 660 0 q 497 7 557 4 q 374 15 436 10 q 252 24 311 19 q 145 34 193 29 q 69 44 97 39 q 74 64 69 54 q 83 78 78 74 l 121 83 q 163 99 149 88 q 183 138 178 111 q 188 217 188 165 l 188 797 q 192 856 188 833 q 202 892 196 879 q 213 907 208 904 l 85 907 q 76 918 81 911 q 69 936 71 925 q 93 954 76 944 q 127 971 110 964 q 151 978 144 978 l 689 978 q 758 948 724 968 q 813 907 792 928 q 794 769 807 829 q 774 679 782 708 q 730 684 749 679 q 704 693 711 689 l 671 888 q 599 897 643 892 q 504 906 556 901 q 401 910 453 910 q 349 894 367 910 q 325 854 331 879 q 319 800 319 829 l 319 543 q 434 547 381 544 q 535 553 488 549 q 621 560 582 557 l 633 547 q 626 496 631 518 q 618 464 621 474 l 319 464 l 319 185 q 311 127 319 151 q 296 93 303 103 l 678 93 l 750 319 q 792 312 774 319 q 818 297 811 304 q 815 218 818 261 q 809 134 813 175 q 801 61 806 93 q 768 35 789 49 q 726 10 747 21 q 692 0 706 0 m 381 1068 q 355 1082 367 1072 q 338 1100 343 1092 q 429 1220 385 1168 q 507 1301 474 1272 q 553 1331 540 1331 q 580 1318 563 1331 q 613 1287 597 1306 q 635 1249 628 1268 l 381 1068 z "},"Ĕ":{"ha":901,"x_min":69,"x_max":818,"o":"m 692 0 q 608 2 660 0 q 497 7 557 4 q 374 15 436 10 q 252 24 311 19 q 145 34 193 29 q 69 44 97 39 q 74 64 69 54 q 83 78 78 74 l 121 83 q 163 99 149 88 q 183 138 178 111 q 188 217 188 165 l 188 797 q 192 856 188 833 q 202 892 196 879 q 213 907 208 904 l 85 907 q 76 918 81 911 q 69 936 71 925 q 93 954 76 944 q 127 971 110 964 q 151 978 144 978 l 689 978 q 758 948 724 968 q 813 907 792 928 q 794 769 807 829 q 774 679 782 708 q 730 684 749 679 q 704 693 711 689 l 671 888 q 599 897 643 892 q 504 906 556 901 q 401 910 453 910 q 349 894 367 910 q 325 854 331 879 q 319 800 319 829 l 319 543 q 434 547 381 544 q 535 553 488 549 q 621 560 582 557 l 633 547 q 626 496 631 518 q 618 464 621 474 l 319 464 l 319 185 q 311 127 319 151 q 296 93 303 103 l 678 93 l 750 319 q 792 312 774 319 q 818 297 811 304 q 815 218 818 261 q 809 134 813 175 q 801 61 806 93 q 768 35 789 49 q 726 10 747 21 q 692 0 706 0 m 475 1086 q 349 1132 389 1086 q 300 1250 308 1178 q 326 1258 308 1254 q 364 1263 343 1263 q 400 1191 375 1210 q 475 1172 425 1172 q 550 1191 525 1172 q 586 1263 575 1210 q 626 1258 610 1263 q 650 1250 643 1254 q 599 1130 640 1174 q 475 1086 558 1086 z "},"Ě":{"ha":901,"x_min":69,"x_max":818,"o":"m 692 0 q 608 2 660 0 q 497 7 557 4 q 374 15 436 10 q 252 24 311 19 q 145 34 193 29 q 69 44 97 39 q 74 64 69 54 q 83 78 78 74 l 121 83 q 163 99 149 88 q 183 138 178 111 q 188 217 188 165 l 188 797 q 192 856 188 833 q 202 892 196 879 q 213 907 208 904 l 85 907 q 76 918 81 911 q 69 936 71 925 q 93 954 76 944 q 127 971 110 964 q 151 978 144 978 l 689 978 q 758 948 724 968 q 813 907 792 928 q 794 769 807 829 q 774 679 782 708 q 730 684 749 679 q 704 693 711 689 l 671 888 q 599 897 643 892 q 504 906 556 901 q 401 910 453 910 q 349 894 367 910 q 325 854 331 879 q 319 800 319 829 l 319 543 q 434 547 381 544 q 535 553 488 549 q 621 560 582 557 l 633 547 q 626 496 631 518 q 618 464 621 474 l 319 464 l 319 185 q 311 127 319 151 q 296 93 303 103 l 678 93 l 750 319 q 792 312 774 319 q 818 297 811 304 q 815 218 818 261 q 809 134 813 175 q 801 61 806 93 q 768 35 789 49 q 726 10 747 21 q 692 0 706 0 m 475 1071 q 430 1099 457 1071 q 365 1178 403 1126 q 276 1297 326 1229 q 292 1316 281 1306 q 315 1329 303 1326 l 476 1192 l 635 1329 q 659 1316 649 1325 q 674 1299 669 1307 q 585 1176 622 1228 q 520 1098 547 1125 q 475 1071 493 1071 z "},"Ê":{"ha":901,"x_min":69,"x_max":818,"o":"m 692 0 q 608 2 660 0 q 497 7 557 4 q 374 15 436 10 q 252 24 311 19 q 145 34 193 29 q 69 44 97 39 q 74 64 69 54 q 83 78 78 74 l 121 83 q 163 99 149 88 q 183 138 178 111 q 188 217 188 165 l 188 797 q 192 856 188 833 q 202 892 196 879 q 213 907 208 904 l 85 907 q 76 918 81 911 q 69 936 71 925 q 93 954 76 944 q 127 971 110 964 q 151 978 144 978 l 689 978 q 758 948 724 968 q 813 907 792 928 q 794 769 807 829 q 774 679 782 708 q 730 684 749 679 q 704 693 711 689 l 671 888 q 599 897 643 892 q 504 906 556 901 q 401 910 453 910 q 349 894 367 910 q 325 854 331 879 q 319 800 319 829 l 319 543 q 434 547 381 544 q 535 553 488 549 q 621 560 582 557 l 633 547 q 626 496 631 518 q 618 464 621 474 l 319 464 l 319 185 q 311 127 319 151 q 296 93 303 103 l 678 93 l 750 319 q 792 312 774 319 q 818 297 811 304 q 815 218 818 261 q 809 134 813 175 q 801 61 806 93 q 768 35 789 49 q 726 10 747 21 q 692 0 706 0 m 314 1071 q 291 1085 301 1076 q 276 1103 281 1094 q 366 1228 328 1176 q 432 1307 404 1279 q 475 1335 460 1335 q 519 1306 492 1335 q 585 1226 547 1278 q 674 1103 624 1174 q 660 1086 669 1096 q 635 1071 650 1076 l 475 1211 l 314 1071 z "},"Ế":{"ha":901,"x_min":69,"x_max":818,"o":"m 692 0 q 608 2 660 0 q 497 7 557 4 q 374 15 436 10 q 252 24 311 19 q 145 34 193 29 q 69 44 97 39 q 74 64 69 54 q 83 78 78 74 l 121 83 q 163 99 149 88 q 183 138 178 111 q 188 217 188 165 l 188 797 q 192 856 188 833 q 202 892 196 879 q 213 907 208 904 l 85 907 q 76 918 81 911 q 69 936 71 925 q 93 954 76 944 q 127 971 110 964 q 151 978 144 978 l 689 978 q 758 948 724 968 q 813 907 792 928 q 794 769 807 829 q 774 679 782 708 q 730 684 749 679 q 704 693 711 689 l 671 888 q 599 897 643 892 q 504 906 556 901 q 401 910 453 910 q 349 894 367 910 q 325 854 331 879 q 319 800 319 829 l 319 543 q 434 547 381 544 q 535 553 488 549 q 621 560 582 557 l 633 547 q 626 496 631 518 q 618 464 621 474 l 319 464 l 319 185 q 311 127 319 151 q 296 93 303 103 l 678 93 l 750 319 q 792 312 774 319 q 818 297 811 304 q 815 218 818 261 q 809 134 813 175 q 801 61 806 93 q 768 35 789 49 q 726 10 747 21 q 692 0 706 0 m 314 1071 q 291 1085 301 1076 q 276 1103 281 1094 q 366 1228 328 1176 q 432 1307 404 1279 q 475 1335 460 1335 q 519 1306 492 1335 q 585 1226 547 1278 q 674 1103 624 1174 q 660 1086 669 1096 q 635 1071 650 1076 l 475 1211 l 314 1071 m 381 1385 q 355 1399 367 1389 q 338 1417 343 1408 q 429 1537 385 1485 q 507 1618 474 1589 q 553 1647 540 1647 q 580 1635 563 1647 q 613 1603 597 1622 q 635 1565 628 1585 l 381 1385 z "},"Ệ":{"ha":901,"x_min":69,"x_max":818,"o":"m 692 0 q 608 2 660 0 q 497 7 557 4 q 374 15 436 10 q 252 24 311 19 q 145 34 193 29 q 69 44 97 39 q 74 64 69 54 q 83 78 78 74 l 121 83 q 163 99 149 88 q 183 138 178 111 q 188 217 188 165 l 188 797 q 192 856 188 833 q 202 892 196 879 q 213 907 208 904 l 85 907 q 76 918 81 911 q 69 936 71 925 q 93 954 76 944 q 127 971 110 964 q 151 978 144 978 l 689 978 q 758 948 724 968 q 813 907 792 928 q 794 769 807 829 q 774 679 782 708 q 730 684 749 679 q 704 693 711 689 l 671 888 q 599 897 643 892 q 504 906 556 901 q 401 910 453 910 q 349 894 367 910 q 325 854 331 879 q 319 800 319 829 l 319 543 q 434 547 381 544 q 535 553 488 549 q 621 560 582 557 l 633 547 q 626 496 631 518 q 618 464 621 474 l 319 464 l 319 185 q 311 127 319 151 q 296 93 303 103 l 678 93 l 750 319 q 792 312 774 319 q 818 297 811 304 q 815 218 818 261 q 809 134 813 175 q 801 61 806 93 q 768 35 789 49 q 726 10 747 21 q 692 0 706 0 m 438 -272 q 415 -261 429 -272 q 388 -233 401 -250 q 366 -200 375 -217 q 357 -174 357 -183 q 369 -151 357 -164 q 399 -126 381 -137 q 434 -106 417 -114 q 463 -97 451 -97 q 485 -109 472 -97 q 511 -137 499 -121 q 531 -171 524 -154 q 539 -199 539 -187 q 520 -228 539 -211 q 478 -259 501 -246 q 438 -272 454 -272 m 314 1071 q 291 1085 301 1076 q 276 1103 281 1094 q 366 1228 328 1176 q 432 1307 404 1279 q 475 1335 460 1335 q 519 1306 492 1335 q 585 1226 547 1278 q 674 1103 624 1174 q 660 1086 669 1096 q 635 1071 650 1076 l 475 1211 l 314 1071 z "},"Ề":{"ha":901,"x_min":69,"x_max":818,"o":"m 692 0 q 608 2 660 0 q 497 7 557 4 q 374 15 436 10 q 252 24 311 19 q 145 34 193 29 q 69 44 97 39 q 74 64 69 54 q 83 78 78 74 l 121 83 q 163 99 149 88 q 183 138 178 111 q 188 217 188 165 l 188 797 q 192 856 188 833 q 202 892 196 879 q 213 907 208 904 l 85 907 q 76 918 81 911 q 69 936 71 925 q 93 954 76 944 q 127 971 110 964 q 151 978 144 978 l 689 978 q 758 948 724 968 q 813 907 792 928 q 794 769 807 829 q 774 679 782 708 q 730 684 749 679 q 704 693 711 689 l 671 888 q 599 897 643 892 q 504 906 556 901 q 401 910 453 910 q 349 894 367 910 q 325 854 331 879 q 319 800 319 829 l 319 543 q 434 547 381 544 q 535 553 488 549 q 621 560 582 557 l 633 547 q 626 496 631 518 q 618 464 621 474 l 319 464 l 319 185 q 311 127 319 151 q 296 93 303 103 l 678 93 l 750 319 q 792 312 774 319 q 818 297 811 304 q 815 218 818 261 q 809 134 813 175 q 801 61 806 93 q 768 35 789 49 q 726 10 747 21 q 692 0 706 0 m 314 1071 q 291 1085 301 1076 q 276 1103 281 1094 q 366 1228 328 1176 q 432 1307 404 1279 q 475 1335 460 1335 q 519 1306 492 1335 q 585 1226 547 1278 q 674 1103 624 1174 q 660 1086 669 1096 q 635 1071 650 1076 l 475 1211 l 314 1071 m 557 1385 l 304 1565 q 326 1603 311 1585 q 358 1634 340 1621 q 385 1647 375 1647 q 430 1619 397 1647 q 508 1538 463 1590 q 601 1417 553 1486 q 581 1397 594 1407 q 557 1385 568 1388 z "},"Ể":{"ha":901,"x_min":69,"x_max":818,"o":"m 692 0 q 608 2 660 0 q 497 7 557 4 q 374 15 436 10 q 252 24 311 19 q 145 34 193 29 q 69 44 97 39 q 74 64 69 54 q 83 78 78 74 l 121 83 q 163 99 149 88 q 183 138 178 111 q 188 217 188 165 l 188 797 q 192 856 188 833 q 202 892 196 879 q 213 907 208 904 l 85 907 q 76 918 81 911 q 69 936 71 925 q 93 954 76 944 q 127 971 110 964 q 151 978 144 978 l 689 978 q 758 948 724 968 q 813 907 792 928 q 794 769 807 829 q 774 679 782 708 q 730 684 749 679 q 704 693 711 689 l 671 888 q 599 897 643 892 q 504 906 556 901 q 401 910 453 910 q 349 894 367 910 q 325 854 331 879 q 319 800 319 829 l 319 543 q 434 547 381 544 q 535 553 488 549 q 621 560 582 557 l 633 547 q 626 496 631 518 q 618 464 621 474 l 319 464 l 319 185 q 311 127 319 151 q 296 93 303 103 l 678 93 l 750 319 q 792 312 774 319 q 818 297 811 304 q 815 218 818 261 q 809 134 813 175 q 801 61 806 93 q 768 35 789 49 q 726 10 747 21 q 692 0 706 0 m 314 1071 q 291 1085 301 1076 q 276 1103 281 1094 q 366 1228 328 1176 q 432 1307 404 1279 q 475 1335 460 1335 q 519 1306 492 1335 q 585 1226 547 1278 q 674 1103 624 1174 q 660 1086 669 1096 q 635 1071 650 1076 l 475 1211 l 314 1071 m 449 1350 q 438 1397 443 1374 q 431 1443 433 1419 q 502 1458 481 1451 q 529 1483 524 1465 q 535 1538 535 1500 q 459 1549 494 1546 q 376 1551 424 1551 q 372 1568 375 1554 q 369 1590 369 1582 q 389 1605 375 1597 q 419 1618 403 1613 q 444 1624 435 1624 q 481 1617 457 1624 q 533 1601 506 1611 q 583 1576 561 1590 q 603 1528 597 1558 q 610 1475 610 1497 q 594 1449 610 1464 q 553 1419 578 1433 q 506 1400 529 1406 l 490 1350 l 449 1350 z "},"Ễ":{"ha":901,"x_min":69,"x_max":818,"o":"m 692 0 q 608 2 660 0 q 497 7 557 4 q 374 15 436 10 q 252 24 311 19 q 145 34 193 29 q 69 44 97 39 q 74 64 69 54 q 83 78 78 74 l 121 83 q 163 99 149 88 q 183 138 178 111 q 188 217 188 165 l 188 797 q 192 856 188 833 q 202 892 196 879 q 213 907 208 904 l 85 907 q 76 918 81 911 q 69 936 71 925 q 93 954 76 944 q 127 971 110 964 q 151 978 144 978 l 689 978 q 758 948 724 968 q 813 907 792 928 q 794 769 807 829 q 774 679 782 708 q 730 684 749 679 q 704 693 711 689 l 671 888 q 599 897 643 892 q 504 906 556 901 q 401 910 453 910 q 349 894 367 910 q 325 854 331 879 q 319 800 319 829 l 319 543 q 434 547 381 544 q 535 553 488 549 q 621 560 582 557 l 633 547 q 626 496 631 518 q 618 464 621 474 l 319 464 l 319 185 q 311 127 319 151 q 296 93 303 103 l 678 93 l 750 319 q 792 312 774 319 q 818 297 811 304 q 815 218 818 261 q 809 134 813 175 q 801 61 806 93 q 768 35 789 49 q 726 10 747 21 q 692 0 706 0 m 314 1071 q 291 1085 301 1076 q 276 1103 281 1094 q 366 1228 328 1176 q 432 1307 404 1279 q 475 1335 460 1335 q 519 1306 492 1335 q 585 1226 547 1278 q 674 1103 624 1174 q 660 1086 669 1096 q 635 1071 650 1076 l 475 1211 l 314 1071 m 601 1400 q 542 1413 585 1400 q 447 1446 499 1426 q 350 1485 394 1465 l 249 1411 q 233 1420 242 1414 q 219 1439 225 1426 q 260 1499 238 1468 q 306 1553 283 1531 q 346 1575 329 1575 q 406 1562 363 1575 q 504 1531 450 1549 q 604 1494 558 1513 l 699 1581 q 720 1569 711 1576 q 733 1557 729 1563 q 691 1487 715 1524 q 642 1425 667 1450 q 601 1400 618 1400 z "},"Ȅ":{"ha":901,"x_min":69,"x_max":818,"o":"m 692 0 q 608 2 660 0 q 497 7 557 4 q 374 15 436 10 q 252 24 311 19 q 145 34 193 29 q 69 44 97 39 q 74 64 69 54 q 83 78 78 74 l 121 83 q 163 99 149 88 q 183 138 178 111 q 188 217 188 165 l 188 797 q 192 856 188 833 q 202 892 196 879 q 213 907 208 904 l 85 907 q 76 918 81 911 q 69 936 71 925 q 93 954 76 944 q 127 971 110 964 q 151 978 144 978 l 689 978 q 758 948 724 968 q 813 907 792 928 q 794 769 807 829 q 774 679 782 708 q 730 684 749 679 q 704 693 711 689 l 671 888 q 599 897 643 892 q 504 906 556 901 q 401 910 453 910 q 349 894 367 910 q 325 854 331 879 q 319 800 319 829 l 319 543 q 434 547 381 544 q 535 553 488 549 q 621 560 582 557 l 633 547 q 626 496 631 518 q 618 464 621 474 l 319 464 l 319 185 q 311 127 319 151 q 296 93 303 103 l 678 93 l 750 319 q 792 312 774 319 q 818 297 811 304 q 815 218 818 261 q 809 134 813 175 q 801 61 806 93 q 768 35 789 49 q 726 10 747 21 q 692 0 706 0 m 406 1068 l 163 1246 q 184 1284 169 1265 q 215 1315 199 1303 q 240 1326 231 1326 q 285 1298 253 1326 q 360 1218 317 1269 q 447 1099 403 1167 q 431 1081 443 1090 q 406 1068 419 1072 m 622 1068 l 378 1247 q 399 1283 385 1265 q 429 1314 413 1301 q 457 1326 446 1326 q 500 1298 468 1326 q 576 1218 532 1269 q 663 1099 619 1167 q 647 1081 658 1090 q 622 1068 635 1071 z "},"Ë":{"ha":901,"x_min":69,"x_max":818,"o":"m 692 0 q 608 2 660 0 q 497 7 557 4 q 374 15 436 10 q 252 24 311 19 q 145 34 193 29 q 69 44 97 39 q 74 64 69 54 q 83 78 78 74 l 121 83 q 163 99 149 88 q 183 138 178 111 q 188 217 188 165 l 188 797 q 192 856 188 833 q 202 892 196 879 q 213 907 208 904 l 85 907 q 76 918 81 911 q 69 936 71 925 q 93 954 76 944 q 127 971 110 964 q 151 978 144 978 l 689 978 q 758 948 724 968 q 813 907 792 928 q 794 769 807 829 q 774 679 782 708 q 730 684 749 679 q 704 693 711 689 l 671 888 q 599 897 643 892 q 504 906 556 901 q 401 910 453 910 q 349 894 367 910 q 325 854 331 879 q 319 800 319 829 l 319 543 q 434 547 381 544 q 535 553 488 549 q 621 560 582 557 l 633 547 q 626 496 631 518 q 618 464 621 474 l 319 464 l 319 185 q 311 127 319 151 q 296 93 303 103 l 678 93 l 750 319 q 792 312 774 319 q 818 297 811 304 q 815 218 818 261 q 809 134 813 175 q 801 61 806 93 q 768 35 789 49 q 726 10 747 21 q 692 0 706 0 m 604 1092 q 582 1102 596 1092 q 554 1129 568 1113 q 531 1162 540 1146 q 522 1188 522 1178 q 535 1211 522 1199 q 565 1235 547 1224 q 599 1256 582 1247 q 628 1264 617 1264 q 651 1252 638 1264 q 676 1224 664 1240 q 697 1191 689 1207 q 706 1164 706 1175 q 694 1143 706 1156 q 666 1119 682 1131 q 633 1099 650 1107 q 604 1092 615 1092 m 329 1092 q 306 1102 319 1092 q 279 1129 293 1113 q 256 1162 265 1146 q 247 1188 247 1178 q 260 1211 247 1199 q 290 1235 272 1224 q 324 1256 307 1247 q 353 1264 342 1264 q 376 1253 363 1264 q 401 1225 389 1242 q 422 1192 414 1208 q 431 1164 431 1175 q 419 1143 431 1156 q 392 1119 408 1131 q 358 1099 375 1107 q 329 1092 340 1092 z "},"Ė":{"ha":901,"x_min":69,"x_max":818,"o":"m 692 0 q 608 2 660 0 q 497 7 557 4 q 374 15 436 10 q 252 24 311 19 q 145 34 193 29 q 69 44 97 39 q 74 64 69 54 q 83 78 78 74 l 121 83 q 163 99 149 88 q 183 138 178 111 q 188 217 188 165 l 188 797 q 192 856 188 833 q 202 892 196 879 q 213 907 208 904 l 85 907 q 76 918 81 911 q 69 936 71 925 q 93 954 76 944 q 127 971 110 964 q 151 978 144 978 l 689 978 q 758 948 724 968 q 813 907 792 928 q 794 769 807 829 q 774 679 782 708 q 730 684 749 679 q 704 693 711 689 l 671 888 q 599 897 643 892 q 504 906 556 901 q 401 910 453 910 q 349 894 367 910 q 325 854 331 879 q 319 800 319 829 l 319 543 q 434 547 381 544 q 535 553 488 549 q 621 560 582 557 l 633 547 q 626 496 631 518 q 618 464 621 474 l 319 464 l 319 185 q 311 127 319 151 q 296 93 303 103 l 678 93 l 750 319 q 792 312 774 319 q 818 297 811 304 q 815 218 818 261 q 809 134 813 175 q 801 61 806 93 q 768 35 789 49 q 726 10 747 21 q 692 0 706 0 m 464 1118 q 441 1130 456 1118 q 413 1159 426 1142 q 389 1193 399 1176 q 379 1221 379 1210 q 392 1246 379 1232 q 424 1272 406 1260 q 460 1292 442 1283 q 489 1300 478 1300 q 513 1288 500 1300 q 540 1259 526 1276 q 562 1224 553 1242 q 571 1194 571 1206 q 559 1173 571 1186 q 530 1147 547 1160 q 494 1126 513 1135 q 464 1118 476 1118 z "},"Ẹ":{"ha":901,"x_min":69,"x_max":818,"o":"m 692 0 q 608 2 660 0 q 497 7 557 4 q 374 15 436 10 q 252 24 311 19 q 145 34 193 29 q 69 44 97 39 q 74 64 69 54 q 83 78 78 74 l 121 83 q 163 99 149 88 q 183 138 178 111 q 188 217 188 165 l 188 797 q 192 856 188 833 q 202 892 196 879 q 213 907 208 904 l 85 907 q 76 918 81 911 q 69 936 71 925 q 93 954 76 944 q 127 971 110 964 q 151 978 144 978 l 689 978 q 758 948 724 968 q 813 907 792 928 q 794 769 807 829 q 774 679 782 708 q 730 684 749 679 q 704 693 711 689 l 671 888 q 599 897 643 892 q 504 906 556 901 q 401 910 453 910 q 349 894 367 910 q 325 854 331 879 q 319 800 319 829 l 319 543 q 434 547 381 544 q 535 553 488 549 q 621 560 582 557 l 633 547 q 626 496 631 518 q 618 464 621 474 l 319 464 l 319 185 q 311 127 319 151 q 296 93 303 103 l 678 93 l 750 319 q 792 312 774 319 q 818 297 811 304 q 815 218 818 261 q 809 134 813 175 q 801 61 806 93 q 768 35 789 49 q 726 10 747 21 q 692 0 706 0 m 438 -272 q 415 -261 429 -272 q 388 -233 401 -250 q 366 -200 375 -217 q 357 -174 357 -183 q 369 -151 357 -164 q 399 -126 381 -137 q 434 -106 417 -114 q 463 -97 451 -97 q 485 -109 472 -97 q 511 -137 499 -121 q 531 -171 524 -154 q 539 -199 539 -187 q 520 -228 539 -211 q 478 -259 501 -246 q 438 -272 454 -272 z "},"È":{"ha":901,"x_min":69,"x_max":818,"o":"m 692 0 q 608 2 660 0 q 497 7 557 4 q 374 15 436 10 q 252 24 311 19 q 145 34 193 29 q 69 44 97 39 q 74 64 69 54 q 83 78 78 74 l 121 83 q 163 99 149 88 q 183 138 178 111 q 188 217 188 165 l 188 797 q 192 856 188 833 q 202 892 196 879 q 213 907 208 904 l 85 907 q 76 918 81 911 q 69 936 71 925 q 93 954 76 944 q 127 971 110 964 q 151 978 144 978 l 689 978 q 758 948 724 968 q 813 907 792 928 q 794 769 807 829 q 774 679 782 708 q 730 684 749 679 q 704 693 711 689 l 671 888 q 599 897 643 892 q 504 906 556 901 q 401 910 453 910 q 349 894 367 910 q 325 854 331 879 q 319 800 319 829 l 319 543 q 434 547 381 544 q 535 553 488 549 q 621 560 582 557 l 633 547 q 626 496 631 518 q 618 464 621 474 l 319 464 l 319 185 q 311 127 319 151 q 296 93 303 103 l 678 93 l 750 319 q 792 312 774 319 q 818 297 811 304 q 815 218 818 261 q 809 134 813 175 q 801 61 806 93 q 768 35 789 49 q 726 10 747 21 q 692 0 706 0 m 557 1068 l 304 1249 q 326 1286 311 1268 q 358 1317 340 1304 q 385 1331 375 1331 q 430 1302 397 1331 q 508 1222 463 1274 q 601 1100 553 1169 q 581 1081 594 1090 q 557 1068 568 1071 z "},"Ẻ":{"ha":901,"x_min":69,"x_max":818,"o":"m 692 0 q 608 2 660 0 q 497 7 557 4 q 374 15 436 10 q 252 24 311 19 q 145 34 193 29 q 69 44 97 39 q 74 64 69 54 q 83 78 78 74 l 121 83 q 163 99 149 88 q 183 138 178 111 q 188 217 188 165 l 188 797 q 192 856 188 833 q 202 892 196 879 q 213 907 208 904 l 85 907 q 76 918 81 911 q 69 936 71 925 q 93 954 76 944 q 127 971 110 964 q 151 978 144 978 l 689 978 q 758 948 724 968 q 813 907 792 928 q 794 769 807 829 q 774 679 782 708 q 730 684 749 679 q 704 693 711 689 l 671 888 q 599 897 643 892 q 504 906 556 901 q 401 910 453 910 q 349 894 367 910 q 325 854 331 879 q 319 800 319 829 l 319 543 q 434 547 381 544 q 535 553 488 549 q 621 560 582 557 l 633 547 q 626 496 631 518 q 618 464 621 474 l 319 464 l 319 185 q 311 127 319 151 q 296 93 303 103 l 678 93 l 750 319 q 792 312 774 319 q 818 297 811 304 q 815 218 818 261 q 809 134 813 175 q 801 61 806 93 q 768 35 789 49 q 726 10 747 21 q 692 0 706 0 m 449 1033 q 438 1080 443 1057 q 431 1126 433 1103 q 502 1142 481 1135 q 529 1166 524 1149 q 535 1221 535 1183 q 459 1232 494 1229 q 376 1235 424 1235 q 372 1251 375 1238 q 369 1274 369 1265 q 389 1288 375 1281 q 419 1301 403 1296 q 444 1307 435 1307 q 481 1301 457 1307 q 533 1284 506 1294 q 583 1260 561 1274 q 603 1211 597 1242 q 610 1158 610 1181 q 594 1132 610 1147 q 553 1103 578 1117 q 506 1083 529 1089 l 490 1033 l 449 1033 z "},"Ȇ":{"ha":901,"x_min":69,"x_max":818,"o":"m 692 0 q 608 2 660 0 q 497 7 557 4 q 374 15 436 10 q 252 24 311 19 q 145 34 193 29 q 69 44 97 39 q 74 64 69 54 q 83 78 78 74 l 121 83 q 163 99 149 88 q 183 138 178 111 q 188 217 188 165 l 188 797 q 192 856 188 833 q 202 892 196 879 q 213 907 208 904 l 85 907 q 76 918 81 911 q 69 936 71 925 q 93 954 76 944 q 127 971 110 964 q 151 978 144 978 l 689 978 q 758 948 724 968 q 813 907 792 928 q 794 769 807 829 q 774 679 782 708 q 730 684 749 679 q 704 693 711 689 l 671 888 q 599 897 643 892 q 504 906 556 901 q 401 910 453 910 q 349 894 367 910 q 325 854 331 879 q 319 800 319 829 l 319 543 q 434 547 381 544 q 535 553 488 549 q 621 560 582 557 l 633 547 q 626 496 631 518 q 618 464 621 474 l 319 464 l 319 185 q 311 127 319 151 q 296 93 303 103 l 678 93 l 750 319 q 792 312 774 319 q 818 297 811 304 q 815 218 818 261 q 809 134 813 175 q 801 61 806 93 q 768 35 789 49 q 726 10 747 21 q 692 0 706 0 m 476 1256 q 597 1212 558 1256 q 646 1093 636 1168 q 622 1085 638 1089 q 583 1081 607 1081 q 549 1154 574 1135 q 476 1174 525 1174 q 403 1154 426 1174 q 368 1081 379 1135 q 331 1085 347 1081 q 307 1093 315 1089 q 354 1210 315 1165 q 476 1256 393 1256 z "},"Ē":{"ha":901,"x_min":69,"x_max":818,"o":"m 692 0 q 608 2 660 0 q 497 7 557 4 q 374 15 436 10 q 252 24 311 19 q 145 34 193 29 q 69 44 97 39 q 74 64 69 54 q 83 78 78 74 l 121 83 q 163 99 149 88 q 183 138 178 111 q 188 217 188 165 l 188 797 q 192 856 188 833 q 202 892 196 879 q 213 907 208 904 l 85 907 q 76 918 81 911 q 69 936 71 925 q 93 954 76 944 q 127 971 110 964 q 151 978 144 978 l 689 978 q 758 948 724 968 q 813 907 792 928 q 794 769 807 829 q 774 679 782 708 q 730 684 749 679 q 704 693 711 689 l 671 888 q 599 897 643 892 q 504 906 556 901 q 401 910 453 910 q 349 894 367 910 q 325 854 331 879 q 319 800 319 829 l 319 543 q 434 547 381 544 q 535 553 488 549 q 621 560 582 557 l 633 547 q 626 496 631 518 q 618 464 621 474 l 319 464 l 319 185 q 311 127 319 151 q 296 93 303 103 l 678 93 l 750 319 q 792 312 774 319 q 818 297 811 304 q 815 218 818 261 q 809 134 813 175 q 801 61 806 93 q 768 35 789 49 q 726 10 747 21 q 692 0 706 0 m 253 1096 q 258 1147 253 1126 q 269 1172 264 1167 q 373 1174 313 1172 q 497 1180 433 1176 q 610 1187 560 1183 q 685 1192 661 1190 l 700 1179 q 693 1129 699 1151 q 683 1096 688 1107 l 253 1096 z "},"Ę":{"ha":901,"x_min":69,"x_max":818,"o":"m 692 0 q 608 2 660 0 q 497 7 557 4 q 374 15 436 10 q 252 24 311 19 q 145 34 193 29 q 69 44 97 39 q 74 64 69 54 q 83 78 78 74 l 121 83 q 163 99 149 88 q 183 138 178 111 q 188 217 188 165 l 188 797 q 192 856 188 833 q 202 892 196 879 q 213 907 208 904 l 85 907 q 76 918 81 911 q 69 936 71 925 q 93 954 76 944 q 127 971 110 964 q 151 978 144 978 l 689 978 q 758 948 724 968 q 813 907 792 928 q 794 769 807 829 q 774 679 782 708 q 730 684 749 679 q 704 693 711 689 l 671 888 q 599 897 643 892 q 504 906 556 901 q 401 910 453 910 q 349 894 367 910 q 325 854 331 879 q 319 800 319 829 l 319 543 q 434 547 381 544 q 535 553 488 549 q 621 560 582 557 l 633 547 q 626 496 631 518 q 618 464 621 474 l 319 464 l 319 185 q 311 127 319 151 q 296 93 303 103 l 678 93 l 750 319 q 792 312 774 319 q 818 297 811 304 q 815 218 818 261 q 809 134 813 175 q 801 61 806 93 q 768 35 789 49 q 726 10 747 21 q 692 0 706 0 m 676 -278 q 648 -270 669 -278 q 601 -249 626 -262 q 553 -217 575 -235 q 521 -179 531 -199 q 539 -108 521 -144 q 587 -39 557 -72 q 651 19 617 -6 l 744 19 q 680 -37 707 -4 q 638 -100 653 -71 q 624 -142 624 -129 q 701 -189 654 -175 q 800 -201 749 -203 q 807 -211 803 -204 q 811 -225 811 -218 q 749 -262 792 -247 q 676 -278 707 -278 z "},"Ẽ":{"ha":901,"x_min":69,"x_max":818,"o":"m 692 0 q 608 2 660 0 q 497 7 557 4 q 374 15 436 10 q 252 24 311 19 q 145 34 193 29 q 69 44 97 39 q 74 64 69 54 q 83 78 78 74 l 121 83 q 163 99 149 88 q 183 138 178 111 q 188 217 188 165 l 188 797 q 192 856 188 833 q 202 892 196 879 q 213 907 208 904 l 85 907 q 76 918 81 911 q 69 936 71 925 q 93 954 76 944 q 127 971 110 964 q 151 978 144 978 l 689 978 q 758 948 724 968 q 813 907 792 928 q 794 769 807 829 q 774 679 782 708 q 730 684 749 679 q 704 693 711 689 l 671 888 q 599 897 643 892 q 504 906 556 901 q 401 910 453 910 q 349 894 367 910 q 325 854 331 879 q 319 800 319 829 l 319 543 q 434 547 381 544 q 535 553 488 549 q 621 560 582 557 l 633 547 q 626 496 631 518 q 618 464 621 474 l 319 464 l 319 185 q 311 127 319 151 q 296 93 303 103 l 678 93 l 750 319 q 792 312 774 319 q 818 297 811 304 q 815 218 818 261 q 809 134 813 175 q 801 61 806 93 q 768 35 789 49 q 726 10 747 21 q 692 0 706 0 m 601 1083 q 542 1097 585 1083 q 447 1129 499 1110 q 350 1168 394 1149 l 249 1094 q 233 1103 242 1097 q 219 1122 225 1110 q 260 1183 238 1151 q 306 1236 283 1214 q 346 1258 329 1258 q 406 1245 363 1258 q 504 1214 450 1232 q 604 1178 558 1196 l 699 1264 q 720 1253 711 1260 q 733 1240 729 1246 q 691 1170 715 1207 q 642 1108 667 1133 q 601 1083 618 1083 z "},"F":{"ha":839,"x_min":69,"x_max":800,"o":"m 335 0 q 299 3 326 0 q 239 12 272 7 q 171 22 206 17 q 109 34 136 28 q 69 44 82 40 q 74 64 69 54 q 83 78 78 74 l 121 83 q 162 98 147 88 q 182 136 176 108 q 188 217 188 164 l 188 797 q 192 856 188 833 q 202 892 196 879 q 213 907 208 904 l 85 907 q 75 919 79 911 q 69 935 71 926 q 93 954 76 944 q 127 971 110 964 q 151 978 144 978 l 676 978 q 746 948 711 968 q 800 907 781 928 q 783 769 796 831 q 763 679 771 707 q 719 683 739 679 q 692 693 700 688 l 660 888 q 548 902 619 894 q 401 910 476 910 q 334 878 349 910 q 319 799 319 846 l 319 529 q 435 533 381 531 q 540 539 490 535 q 629 546 589 543 l 642 533 q 634 481 639 503 q 625 450 629 460 l 319 450 l 319 182 q 311 124 319 149 q 296 90 303 100 l 435 75 q 442 63 439 72 q 444 44 444 54 q 394 14 426 28 q 335 0 361 0 z "},"G":{"ha":969,"x_min":88,"x_max":863,"o":"m 488 0 q 399 13 449 0 q 300 48 349 26 q 213 94 251 69 q 156 138 174 118 q 105 264 122 181 q 88 446 88 347 q 97 610 88 529 q 119 754 106 690 q 146 851 132 818 q 222 901 176 875 q 321 950 267 928 q 431 986 375 972 q 535 1000 486 1000 q 640 988 586 1000 q 741 955 693 975 q 821 913 789 935 q 805 772 815 833 q 786 679 794 710 q 739 685 757 681 q 713 693 721 689 l 683 863 q 635 881 667 871 q 569 899 603 892 q 514 906 536 906 q 438 897 483 906 q 349 875 393 889 q 276 844 306 861 q 254 776 264 815 q 238 690 244 736 q 229 594 232 643 q 226 497 226 544 q 232 377 226 435 q 249 273 238 319 q 274 197 260 226 q 318 164 289 181 q 383 131 347 147 q 454 106 419 115 q 514 96 489 96 q 590 101 553 96 q 660 114 628 106 q 715 129 693 122 l 715 269 q 721 354 715 317 q 732 408 726 392 l 518 408 q 526 458 518 435 q 539 490 533 481 q 648 493 592 490 q 757 499 704 496 q 850 507 810 503 l 863 494 q 849 373 857 456 q 840 193 840 290 l 840 88 q 783 60 821 75 q 697 31 746 46 q 594 8 649 17 q 488 0 540 0 z "},"Ğ":{"ha":969,"x_min":88,"x_max":863,"o":"m 488 0 q 399 13 449 0 q 300 48 349 26 q 213 94 251 69 q 156 138 174 118 q 105 264 122 181 q 88 446 88 347 q 97 610 88 529 q 119 754 106 690 q 146 851 132 818 q 222 901 176 875 q 321 950 267 928 q 431 986 375 972 q 535 1000 486 1000 q 640 988 586 1000 q 741 955 693 975 q 821 913 789 935 q 805 772 815 833 q 786 679 794 710 q 739 685 757 681 q 713 693 721 689 l 683 863 q 635 881 667 871 q 569 899 603 892 q 514 906 536 906 q 438 897 483 906 q 349 875 393 889 q 276 844 306 861 q 254 776 264 815 q 238 690 244 736 q 229 594 232 643 q 226 497 226 544 q 232 377 226 435 q 249 273 238 319 q 274 197 260 226 q 318 164 289 181 q 383 131 347 147 q 454 106 419 115 q 514 96 489 96 q 590 101 553 96 q 660 114 628 106 q 715 129 693 122 l 715 269 q 721 354 715 317 q 732 408 726 392 l 518 408 q 526 458 518 435 q 539 490 533 481 q 648 493 592 490 q 757 499 704 496 q 850 507 810 503 l 863 494 q 849 373 857 456 q 840 193 840 290 l 840 88 q 783 60 821 75 q 697 31 746 46 q 594 8 649 17 q 488 0 540 0 m 500 1086 q 374 1132 414 1086 q 325 1250 333 1178 q 351 1258 333 1254 q 389 1263 368 1263 q 425 1191 400 1210 q 500 1172 450 1172 q 575 1191 550 1172 q 611 1263 600 1210 q 651 1258 635 1263 q 675 1250 668 1254 q 624 1130 665 1174 q 500 1086 583 1086 z "},"Ǧ":{"ha":969,"x_min":88,"x_max":863,"o":"m 488 0 q 399 13 449 0 q 300 48 349 26 q 213 94 251 69 q 156 138 174 118 q 105 264 122 181 q 88 446 88 347 q 97 610 88 529 q 119 754 106 690 q 146 851 132 818 q 222 901 176 875 q 321 950 267 928 q 431 986 375 972 q 535 1000 486 1000 q 640 988 586 1000 q 741 955 693 975 q 821 913 789 935 q 805 772 815 833 q 786 679 794 710 q 739 685 757 681 q 713 693 721 689 l 683 863 q 635 881 667 871 q 569 899 603 892 q 514 906 536 906 q 438 897 483 906 q 349 875 393 889 q 276 844 306 861 q 254 776 264 815 q 238 690 244 736 q 229 594 232 643 q 226 497 226 544 q 232 377 226 435 q 249 273 238 319 q 274 197 260 226 q 318 164 289 181 q 383 131 347 147 q 454 106 419 115 q 514 96 489 96 q 590 101 553 96 q 660 114 628 106 q 715 129 693 122 l 715 269 q 721 354 715 317 q 732 408 726 392 l 518 408 q 526 458 518 435 q 539 490 533 481 q 648 493 592 490 q 757 499 704 496 q 850 507 810 503 l 863 494 q 849 373 857 456 q 840 193 840 290 l 840 88 q 783 60 821 75 q 697 31 746 46 q 594 8 649 17 q 488 0 540 0 m 500 1071 q 455 1099 482 1071 q 390 1178 428 1126 q 301 1297 351 1229 q 317 1316 306 1306 q 340 1329 328 1326 l 501 1192 l 660 1329 q 684 1316 674 1325 q 699 1299 694 1307 q 610 1176 647 1228 q 545 1098 572 1125 q 500 1071 518 1071 z "},"Ĝ":{"ha":969,"x_min":88,"x_max":863,"o":"m 488 0 q 399 13 449 0 q 300 48 349 26 q 213 94 251 69 q 156 138 174 118 q 105 264 122 181 q 88 446 88 347 q 97 610 88 529 q 119 754 106 690 q 146 851 132 818 q 222 901 176 875 q 321 950 267 928 q 431 986 375 972 q 535 1000 486 1000 q 640 988 586 1000 q 741 955 693 975 q 821 913 789 935 q 805 772 815 833 q 786 679 794 710 q 739 685 757 681 q 713 693 721 689 l 683 863 q 635 881 667 871 q 569 899 603 892 q 514 906 536 906 q 438 897 483 906 q 349 875 393 889 q 276 844 306 861 q 254 776 264 815 q 238 690 244 736 q 229 594 232 643 q 226 497 226 544 q 232 377 226 435 q 249 273 238 319 q 274 197 260 226 q 318 164 289 181 q 383 131 347 147 q 454 106 419 115 q 514 96 489 96 q 590 101 553 96 q 660 114 628 106 q 715 129 693 122 l 715 269 q 721 354 715 317 q 732 408 726 392 l 518 408 q 526 458 518 435 q 539 490 533 481 q 648 493 592 490 q 757 499 704 496 q 850 507 810 503 l 863 494 q 849 373 857 456 q 840 193 840 290 l 840 88 q 783 60 821 75 q 697 31 746 46 q 594 8 649 17 q 488 0 540 0 m 339 1071 q 316 1085 326 1076 q 301 1103 306 1094 q 391 1228 353 1176 q 457 1307 429 1279 q 500 1335 485 1335 q 544 1306 517 1335 q 610 1226 572 1278 q 699 1103 649 1174 q 685 1086 694 1096 q 660 1071 675 1076 l 500 1211 l 339 1071 z "},"Ģ":{"ha":969,"x_min":88,"x_max":863,"o":"m 488 0 q 399 13 449 0 q 300 48 349 26 q 213 94 251 69 q 156 138 174 118 q 105 264 122 181 q 88 446 88 347 q 97 610 88 529 q 119 754 106 690 q 146 851 132 818 q 222 901 176 875 q 321 950 267 928 q 431 986 375 972 q 535 1000 486 1000 q 640 988 586 1000 q 741 955 693 975 q 821 913 789 935 q 805 772 815 833 q 786 679 794 710 q 739 685 757 681 q 713 693 721 689 l 683 863 q 635 881 667 871 q 569 899 603 892 q 514 906 536 906 q 438 897 483 906 q 349 875 393 889 q 276 844 306 861 q 254 776 264 815 q 238 690 244 736 q 229 594 232 643 q 226 497 226 544 q 232 377 226 435 q 249 273 238 319 q 274 197 260 226 q 318 164 289 181 q 383 131 347 147 q 454 106 419 115 q 514 96 489 96 q 590 101 553 96 q 660 114 628 106 q 715 129 693 122 l 715 269 q 721 354 715 317 q 732 408 726 392 l 518 408 q 526 458 518 435 q 539 490 533 481 q 648 493 592 490 q 757 499 704 496 q 850 507 810 503 l 863 494 q 849 373 857 456 q 840 193 840 290 l 840 88 q 783 60 821 75 q 697 31 746 46 q 594 8 649 17 q 488 0 540 0 m 465 -347 q 432 -337 447 -347 q 410 -317 417 -326 q 456 -279 431 -303 q 493 -228 482 -256 l 513 -258 q 479 -247 499 -258 q 442 -219 460 -236 q 412 -182 424 -201 q 400 -146 400 -162 q 412 -123 400 -136 q 442 -99 424 -110 q 477 -79 460 -87 q 504 -71 494 -71 q 528 -83 515 -71 q 553 -110 540 -94 q 573 -144 565 -126 q 581 -172 581 -161 q 566 -210 581 -182 q 530 -269 551 -237 q 490 -324 508 -301 q 465 -347 472 -347 z "},"Ġ":{"ha":969,"x_min":88,"x_max":863,"o":"m 488 0 q 399 13 449 0 q 300 48 349 26 q 213 94 251 69 q 156 138 174 118 q 105 264 122 181 q 88 446 88 347 q 97 610 88 529 q 119 754 106 690 q 146 851 132 818 q 222 901 176 875 q 321 950 267 928 q 431 986 375 972 q 535 1000 486 1000 q 640 988 586 1000 q 741 955 693 975 q 821 913 789 935 q 805 772 815 833 q 786 679 794 710 q 739 685 757 681 q 713 693 721 689 l 683 863 q 635 881 667 871 q 569 899 603 892 q 514 906 536 906 q 438 897 483 906 q 349 875 393 889 q 276 844 306 861 q 254 776 264 815 q 238 690 244 736 q 229 594 232 643 q 226 497 226 544 q 232 377 226 435 q 249 273 238 319 q 274 197 260 226 q 318 164 289 181 q 383 131 347 147 q 454 106 419 115 q 514 96 489 96 q 590 101 553 96 q 660 114 628 106 q 715 129 693 122 l 715 269 q 721 354 715 317 q 732 408 726 392 l 518 408 q 526 458 518 435 q 539 490 533 481 q 648 493 592 490 q 757 499 704 496 q 850 507 810 503 l 863 494 q 849 373 857 456 q 840 193 840 290 l 840 88 q 783 60 821 75 q 697 31 746 46 q 594 8 649 17 q 488 0 540 0 m 489 1118 q 466 1130 481 1118 q 438 1159 451 1142 q 414 1193 424 1176 q 404 1221 404 1210 q 417 1246 404 1232 q 449 1272 431 1260 q 485 1292 467 1283 q 514 1300 503 1300 q 538 1288 525 1300 q 565 1259 551 1276 q 587 1224 578 1242 q 596 1194 596 1206 q 584 1173 596 1186 q 555 1147 572 1160 q 519 1126 538 1135 q 489 1118 501 1118 z "},"H":{"ha":1092,"x_min":69,"x_max":1022,"o":"m 335 0 q 299 3 326 0 q 239 12 272 7 q 171 22 206 17 q 109 34 136 28 q 69 44 82 40 q 74 64 69 54 q 83 78 78 74 l 121 83 q 163 98 149 88 q 182 136 176 108 q 188 217 188 164 l 188 797 q 197 876 188 850 q 213 907 206 901 l 85 907 q 76 918 81 913 q 69 936 72 924 q 93 954 76 944 q 127 971 110 964 q 151 978 144 978 l 426 978 q 439 960 433 972 q 444 932 444 947 l 386 914 q 347 894 361 906 q 326 859 332 882 q 319 793 319 836 l 319 546 q 433 547 371 546 q 558 551 496 549 q 674 556 619 553 q 765 560 728 558 l 765 797 q 774 874 765 846 q 790 907 783 901 l 663 907 q 653 919 658 911 q 647 936 649 926 q 671 954 654 944 q 705 971 688 964 q 729 978 722 978 l 1004 978 q 1017 960 1011 972 q 1022 932 1022 949 l 964 914 q 925 895 940 907 q 903 860 910 883 q 896 793 896 838 l 896 182 q 889 124 896 149 q 874 90 882 100 l 1011 75 q 1017 65 1014 74 q 1021 44 1021 57 q 970 13 1001 26 q 913 0 939 0 q 876 3 903 0 q 816 12 850 7 q 748 23 782 17 q 686 35 714 29 q 647 44 658 40 q 651 65 647 56 q 661 78 656 74 l 699 83 q 740 99 726 88 q 760 138 754 110 q 765 217 765 165 l 765 467 l 319 467 l 319 182 q 311 124 319 149 q 296 90 303 100 l 433 75 q 440 63 436 72 q 443 44 443 54 q 391 13 422 26 q 335 0 360 0 z "},"Ħ":{"ha":1092,"x_min":65,"x_max":1028,"o":"m 335 0 q 299 3 326 0 q 239 12 272 7 q 171 22 206 17 q 109 34 136 28 q 69 44 82 40 q 74 64 69 54 q 83 78 78 74 l 121 83 q 163 98 149 88 q 182 136 176 108 q 188 217 188 164 l 188 797 q 197 876 188 850 q 213 907 206 901 l 85 907 q 76 918 81 913 q 69 936 72 924 q 93 954 76 944 q 127 971 110 964 q 151 978 144 978 l 426 978 q 439 960 433 972 q 444 932 444 947 l 386 914 q 347 894 361 906 q 326 859 332 882 q 319 793 319 836 l 319 546 q 433 547 371 546 q 558 551 496 549 q 674 556 619 553 q 765 560 728 558 l 765 797 q 774 874 765 846 q 790 907 783 901 l 663 907 q 653 919 658 911 q 647 936 649 926 q 671 954 654 944 q 705 971 688 964 q 729 978 722 978 l 1004 978 q 1017 960 1011 972 q 1022 932 1022 949 l 964 914 q 925 895 940 907 q 903 860 910 883 q 896 793 896 838 l 896 182 q 889 124 896 149 q 874 90 882 100 l 1011 75 q 1017 65 1014 74 q 1021 44 1021 57 q 970 13 1001 26 q 913 0 939 0 q 876 3 903 0 q 816 12 850 7 q 748 23 782 17 q 686 35 714 29 q 647 44 658 40 q 651 65 647 56 q 661 78 656 74 l 699 83 q 740 99 726 88 q 760 138 754 110 q 765 217 765 165 l 765 467 l 319 467 l 319 182 q 311 124 319 149 q 296 90 303 100 l 433 75 q 440 63 436 72 q 443 44 443 54 q 391 13 422 26 q 335 0 360 0 m 64 697 q 69 743 64 728 q 79 763 74 758 q 189 763 122 763 q 336 765 256 764 q 503 768 417 767 q 672 772 589 769 q 824 776 754 774 q 944 779 894 778 q 1013 781 993 781 l 1026 767 q 1021 724 1025 740 q 1011 697 1017 707 l 64 697 z "},"Ĥ":{"ha":1092,"x_min":69,"x_max":1022,"o":"m 335 0 q 299 3 326 0 q 239 12 272 7 q 171 22 206 17 q 109 34 136 28 q 69 44 82 40 q 74 64 69 54 q 83 78 78 74 l 121 83 q 163 98 149 88 q 182 136 176 108 q 188 217 188 164 l 188 797 q 197 876 188 850 q 213 907 206 901 l 85 907 q 76 918 81 913 q 69 936 72 924 q 93 954 76 944 q 127 971 110 964 q 151 978 144 978 l 426 978 q 439 960 433 972 q 444 932 444 947 l 386 914 q 347 894 361 906 q 326 859 332 882 q 319 793 319 836 l 319 546 q 433 547 371 546 q 558 551 496 549 q 674 556 619 553 q 765 560 728 558 l 765 797 q 774 874 765 846 q 790 907 783 901 l 663 907 q 653 919 658 911 q 647 936 649 926 q 671 954 654 944 q 705 971 688 964 q 729 978 722 978 l 1004 978 q 1017 960 1011 972 q 1022 932 1022 949 l 964 914 q 925 895 940 907 q 903 860 910 883 q 896 793 896 838 l 896 182 q 889 124 896 149 q 874 90 882 100 l 1011 75 q 1017 65 1014 74 q 1021 44 1021 57 q 970 13 1001 26 q 913 0 939 0 q 876 3 903 0 q 816 12 850 7 q 748 23 782 17 q 686 35 714 29 q 647 44 658 40 q 651 65 647 56 q 661 78 656 74 l 699 83 q 740 99 726 88 q 760 138 754 110 q 765 217 765 165 l 765 467 l 319 467 l 319 182 q 311 124 319 149 q 296 90 303 100 l 433 75 q 440 63 436 72 q 443 44 443 54 q 391 13 422 26 q 335 0 360 0 m 385 1071 q 362 1085 372 1076 q 347 1103 351 1094 q 437 1228 399 1176 q 503 1307 475 1279 q 546 1335 531 1335 q 590 1306 563 1335 q 656 1226 618 1278 q 744 1103 694 1174 q 731 1086 740 1096 q 706 1071 721 1076 l 546 1211 l 385 1071 z "},"I":{"ha":514,"x_min":69,"x_max":444,"o":"m 335 0 q 299 3 326 0 q 239 12 272 7 q 171 22 206 17 q 109 34 136 28 q 69 44 82 40 q 74 64 69 54 q 83 78 78 74 l 121 83 q 163 99 149 88 q 183 138 178 111 q 188 217 188 165 l 188 800 q 199 883 188 861 q 213 907 210 904 l 85 907 q 76 918 81 913 q 69 936 72 924 q 93 954 76 944 q 127 971 110 964 q 151 978 144 978 l 426 978 q 439 960 433 972 q 444 932 444 947 l 386 914 q 347 894 361 906 q 326 859 332 882 q 319 793 319 836 l 319 182 q 311 124 319 149 q 296 90 303 100 l 433 75 q 440 63 436 72 q 443 44 443 54 q 391 13 422 26 q 335 0 360 0 z "},"Ĳ":{"ha":1018,"x_min":69,"x_max":957,"o":"m 335 0 q 299 3 326 0 q 239 12 272 7 q 171 22 206 17 q 109 34 136 28 q 69 44 82 40 q 74 64 69 54 q 83 78 78 74 l 121 83 q 163 99 149 88 q 183 138 178 111 q 188 217 188 165 l 188 800 q 199 883 188 861 q 213 907 210 904 l 85 907 q 76 918 81 913 q 69 936 72 924 q 93 954 76 944 q 127 971 110 964 q 151 978 144 978 l 426 978 q 439 960 433 972 q 444 932 444 947 l 386 914 q 347 894 361 906 q 326 859 332 882 q 319 793 319 836 l 319 182 q 311 124 319 149 q 296 90 303 100 l 433 75 q 440 63 436 72 q 443 44 443 54 q 391 13 422 26 q 335 0 360 0 m 601 -278 q 532 -265 572 -278 q 468 -237 492 -253 q 472 -217 468 -226 q 478 -204 475 -208 q 608 -149 550 -183 q 701 -82 665 -115 l 701 797 q 710 874 701 847 q 726 907 718 901 l 583 907 q 574 919 578 913 q 568 935 569 926 q 592 954 576 944 q 625 971 608 964 q 650 978 642 978 l 940 978 q 951 960 946 974 q 957 932 957 947 l 900 914 q 861 895 876 907 q 838 861 846 883 q 831 793 831 839 l 831 -36 q 792 -112 821 -71 q 726 -192 763 -154 q 655 -253 689 -229 q 601 -278 621 -278 z "},"Í":{"ha":514,"x_min":69,"x_max":444,"o":"m 335 0 q 299 3 326 0 q 239 12 272 7 q 171 22 206 17 q 109 34 136 28 q 69 44 82 40 q 74 64 69 54 q 83 78 78 74 l 121 83 q 163 99 149 88 q 183 138 178 111 q 188 217 188 165 l 188 800 q 199 883 188 861 q 213 907 210 904 l 85 907 q 76 918 81 913 q 69 936 72 924 q 93 954 76 944 q 127 971 110 964 q 151 978 144 978 l 426 978 q 439 960 433 972 q 444 932 444 947 l 386 914 q 347 894 361 906 q 326 859 332 882 q 319 793 319 836 l 319 182 q 311 124 319 149 q 296 90 303 100 l 433 75 q 440 63 436 72 q 443 44 443 54 q 391 13 422 26 q 335 0 360 0 m 161 1068 q 135 1082 147 1072 q 118 1100 124 1092 q 210 1220 165 1168 q 288 1301 254 1272 q 333 1331 321 1331 q 360 1318 343 1331 q 393 1287 378 1306 q 415 1249 408 1268 l 161 1068 z "},"Ĭ":{"ha":514,"x_min":69,"x_max":444,"o":"m 335 0 q 299 3 326 0 q 239 12 272 7 q 171 22 206 17 q 109 34 136 28 q 69 44 82 40 q 74 64 69 54 q 83 78 78 74 l 121 83 q 163 99 149 88 q 183 138 178 111 q 188 217 188 165 l 188 800 q 199 883 188 861 q 213 907 210 904 l 85 907 q 76 918 81 913 q 69 936 72 924 q 93 954 76 944 q 127 971 110 964 q 151 978 144 978 l 426 978 q 439 960 433 972 q 444 932 444 947 l 386 914 q 347 894 361 906 q 326 859 332 882 q 319 793 319 836 l 319 182 q 311 124 319 149 q 296 90 303 100 l 433 75 q 440 63 436 72 q 443 44 443 54 q 391 13 422 26 q 335 0 360 0 m 257 1086 q 131 1132 171 1086 q 82 1250 90 1178 q 108 1258 90 1254 q 146 1263 125 1263 q 182 1191 157 1210 q 257 1172 207 1172 q 332 1191 307 1172 q 368 1263 357 1210 q 408 1258 392 1263 q 432 1250 425 1254 q 381 1130 422 1174 q 257 1086 340 1086 z "},"Ǐ":{"ha":514,"x_min":58,"x_max":456,"o":"m 335 0 q 299 3 326 0 q 239 12 272 7 q 171 22 206 17 q 109 34 136 28 q 69 44 82 40 q 74 64 69 54 q 83 78 78 74 l 121 83 q 163 99 149 88 q 183 138 178 111 q 188 217 188 165 l 188 800 q 199 883 188 861 q 213 907 210 904 l 85 907 q 76 918 81 913 q 69 936 72 924 q 93 954 76 944 q 127 971 110 964 q 151 978 144 978 l 426 978 q 439 960 433 972 q 444 932 444 947 l 386 914 q 347 894 361 906 q 326 859 332 882 q 319 793 319 836 l 319 182 q 311 124 319 149 q 296 90 303 100 l 433 75 q 440 63 436 72 q 443 44 443 54 q 391 13 422 26 q 335 0 360 0 m 257 1071 q 212 1099 239 1071 q 147 1178 185 1126 q 58 1297 108 1229 q 74 1316 63 1306 q 97 1329 85 1326 l 258 1192 l 417 1329 q 441 1316 431 1325 q 456 1299 451 1307 q 367 1176 404 1228 q 302 1098 329 1125 q 257 1071 275 1071 z "},"Î":{"ha":514,"x_min":58,"x_max":456,"o":"m 335 0 q 299 3 326 0 q 239 12 272 7 q 171 22 206 17 q 109 34 136 28 q 69 44 82 40 q 74 64 69 54 q 83 78 78 74 l 121 83 q 163 99 149 88 q 183 138 178 111 q 188 217 188 165 l 188 800 q 199 883 188 861 q 213 907 210 904 l 85 907 q 76 918 81 913 q 69 936 72 924 q 93 954 76 944 q 127 971 110 964 q 151 978 144 978 l 426 978 q 439 960 433 972 q 444 932 444 947 l 386 914 q 347 894 361 906 q 326 859 332 882 q 319 793 319 836 l 319 182 q 311 124 319 149 q 296 90 303 100 l 433 75 q 440 63 436 72 q 443 44 443 54 q 391 13 422 26 q 335 0 360 0 m 96 1071 q 73 1085 83 1076 q 58 1103 63 1094 q 148 1228 110 1176 q 214 1307 186 1279 q 257 1335 242 1335 q 301 1306 274 1335 q 367 1226 329 1278 q 456 1103 406 1174 q 442 1086 451 1096 q 417 1071 432 1076 l 257 1211 l 96 1071 z "},"Ȉ":{"ha":514,"x_min":-57,"x_max":444,"o":"m 335 0 q 299 3 326 0 q 239 12 272 7 q 171 22 206 17 q 109 34 136 28 q 69 44 82 40 q 74 64 69 54 q 83 78 78 74 l 121 83 q 163 99 149 88 q 183 138 178 111 q 188 217 188 165 l 188 800 q 199 883 188 861 q 213 907 210 904 l 85 907 q 76 918 81 913 q 69 936 72 924 q 93 954 76 944 q 127 971 110 964 q 151 978 144 978 l 426 978 q 439 960 433 972 q 444 932 444 947 l 386 914 q 347 894 361 906 q 326 859 332 882 q 319 793 319 836 l 319 182 q 311 124 319 149 q 296 90 303 100 l 433 75 q 440 63 436 72 q 443 44 443 54 q 391 13 422 26 q 335 0 360 0 m 186 1068 l -57 1246 q -35 1284 -50 1265 q -5 1315 -21 1303 q 21 1326 11 1326 q 65 1298 33 1326 q 140 1218 97 1269 q 228 1099 183 1167 q 212 1081 224 1090 q 186 1068 200 1072 m 403 1068 l 158 1247 q 179 1283 165 1265 q 210 1314 193 1301 q 238 1326 226 1326 q 281 1298 249 1326 q 356 1218 313 1269 q 443 1099 400 1167 q 427 1081 439 1090 q 403 1068 415 1071 z "},"Ï":{"ha":514,"x_min":28,"x_max":486,"o":"m 335 0 q 299 3 326 0 q 239 12 272 7 q 171 22 206 17 q 109 34 136 28 q 69 44 82 40 q 74 64 69 54 q 83 78 78 74 l 121 83 q 163 99 149 88 q 183 138 178 111 q 188 217 188 165 l 188 800 q 199 883 188 861 q 213 907 210 904 l 85 907 q 76 918 81 913 q 69 936 72 924 q 93 954 76 944 q 127 971 110 964 q 151 978 144 978 l 426 978 q 439 960 433 972 q 444 932 444 947 l 386 914 q 347 894 361 906 q 326 859 332 882 q 319 793 319 836 l 319 182 q 311 124 319 149 q 296 90 303 100 l 433 75 q 440 63 436 72 q 443 44 443 54 q 391 13 422 26 q 335 0 360 0 m 385 1092 q 363 1102 376 1092 q 335 1129 349 1113 q 312 1162 321 1146 q 303 1188 303 1178 q 315 1211 303 1199 q 345 1235 328 1224 q 380 1256 363 1247 q 408 1264 397 1264 q 431 1252 418 1264 q 457 1224 444 1240 q 478 1191 469 1207 q 486 1164 486 1175 q 474 1143 486 1156 q 447 1119 463 1131 q 413 1099 431 1107 q 385 1092 396 1092 m 110 1092 q 87 1102 100 1092 q 60 1129 74 1113 q 37 1162 46 1146 q 28 1188 28 1178 q 40 1211 28 1199 q 70 1235 53 1224 q 105 1256 88 1247 q 133 1264 122 1264 q 156 1253 143 1264 q 182 1225 169 1242 q 203 1192 194 1208 q 211 1164 211 1175 q 200 1143 211 1156 q 172 1119 189 1131 q 138 1099 156 1107 q 110 1092 121 1092 z "},"İ":{"ha":514,"x_min":69,"x_max":444,"o":"m 335 0 q 299 3 326 0 q 239 12 272 7 q 171 22 206 17 q 109 34 136 28 q 69 44 82 40 q 74 64 69 54 q 83 78 78 74 l 121 83 q 163 99 149 88 q 183 138 178 111 q 188 217 188 165 l 188 800 q 199 883 188 861 q 213 907 210 904 l 85 907 q 76 918 81 913 q 69 936 72 924 q 93 954 76 944 q 127 971 110 964 q 151 978 144 978 l 426 978 q 439 960 433 972 q 444 932 444 947 l 386 914 q 347 894 361 906 q 326 859 332 882 q 319 793 319 836 l 319 182 q 311 124 319 149 q 296 90 303 100 l 433 75 q 440 63 436 72 q 443 44 443 54 q 391 13 422 26 q 335 0 360 0 m 244 1118 q 222 1130 236 1118 q 193 1159 207 1142 q 169 1193 179 1176 q 160 1221 160 1210 q 173 1246 160 1232 q 204 1272 186 1260 q 240 1292 222 1283 q 269 1300 258 1300 q 294 1288 281 1300 q 320 1259 307 1276 q 342 1224 333 1242 q 351 1194 351 1206 q 340 1173 351 1186 q 310 1147 328 1160 q 275 1126 293 1135 q 244 1118 257 1118 z "},"Ị":{"ha":514,"x_min":69,"x_max":444,"o":"m 335 0 q 299 3 326 0 q 239 12 272 7 q 171 22 206 17 q 109 34 136 28 q 69 44 82 40 q 74 64 69 54 q 83 78 78 74 l 121 83 q 163 99 149 88 q 183 138 178 111 q 188 217 188 165 l 188 800 q 199 883 188 861 q 213 907 210 904 l 85 907 q 76 918 81 913 q 69 936 72 924 q 93 954 76 944 q 127 971 110 964 q 151 978 144 978 l 426 978 q 439 960 433 972 q 444 932 444 947 l 386 914 q 347 894 361 906 q 326 859 332 882 q 319 793 319 836 l 319 182 q 311 124 319 149 q 296 90 303 100 l 433 75 q 440 63 436 72 q 443 44 443 54 q 391 13 422 26 q 335 0 360 0 m 246 -272 q 224 -261 238 -272 q 197 -233 210 -250 q 174 -200 183 -217 q 165 -174 165 -183 q 177 -151 165 -164 q 207 -126 189 -137 q 242 -106 225 -114 q 271 -97 260 -97 q 294 -109 281 -97 q 319 -137 307 -121 q 340 -171 332 -154 q 347 -199 347 -187 q 328 -228 347 -211 q 286 -259 310 -246 q 246 -272 263 -272 z "},"Ì":{"ha":514,"x_min":69,"x_max":444,"o":"m 335 0 q 299 3 326 0 q 239 12 272 7 q 171 22 206 17 q 109 34 136 28 q 69 44 82 40 q 74 64 69 54 q 83 78 78 74 l 121 83 q 163 99 149 88 q 183 138 178 111 q 188 217 188 165 l 188 800 q 199 883 188 861 q 213 907 210 904 l 85 907 q 76 918 81 913 q 69 936 72 924 q 93 954 76 944 q 127 971 110 964 q 151 978 144 978 l 426 978 q 439 960 433 972 q 444 932 444 947 l 386 914 q 347 894 361 906 q 326 859 332 882 q 319 793 319 836 l 319 182 q 311 124 319 149 q 296 90 303 100 l 433 75 q 440 63 436 72 q 443 44 443 54 q 391 13 422 26 q 335 0 360 0 m 338 1068 l 85 1249 q 106 1286 92 1268 q 138 1317 121 1304 q 165 1331 156 1331 q 210 1302 178 1331 q 288 1222 243 1274 q 382 1100 333 1169 q 362 1081 375 1090 q 338 1068 349 1071 z "},"Ỉ":{"ha":514,"x_min":69,"x_max":444,"o":"m 335 0 q 299 3 326 0 q 239 12 272 7 q 171 22 206 17 q 109 34 136 28 q 69 44 82 40 q 74 64 69 54 q 83 78 78 74 l 121 83 q 163 99 149 88 q 183 138 178 111 q 188 217 188 165 l 188 800 q 199 883 188 861 q 213 907 210 904 l 85 907 q 76 918 81 913 q 69 936 72 924 q 93 954 76 944 q 127 971 110 964 q 151 978 144 978 l 426 978 q 439 960 433 972 q 444 932 444 947 l 386 914 q 347 894 361 906 q 326 859 332 882 q 319 793 319 836 l 319 182 q 311 124 319 149 q 296 90 303 100 l 433 75 q 440 63 436 72 q 443 44 443 54 q 391 13 422 26 q 335 0 360 0 m 229 1033 q 219 1080 224 1057 q 211 1126 214 1103 q 283 1142 261 1135 q 310 1166 304 1149 q 315 1221 315 1183 q 240 1232 275 1229 q 157 1235 204 1235 q 153 1251 156 1238 q 150 1274 150 1265 q 169 1288 156 1281 q 199 1301 183 1296 q 225 1307 215 1307 q 262 1301 238 1307 q 314 1284 286 1294 q 364 1260 342 1274 q 384 1211 378 1242 q 390 1158 390 1181 q 374 1132 390 1147 q 334 1103 358 1117 q 286 1083 310 1089 l 271 1033 l 229 1033 z "},"Ȋ":{"ha":514,"x_min":69,"x_max":444,"o":"m 335 0 q 299 3 326 0 q 239 12 272 7 q 171 22 206 17 q 109 34 136 28 q 69 44 82 40 q 74 64 69 54 q 83 78 78 74 l 121 83 q 163 99 149 88 q 183 138 178 111 q 188 217 188 165 l 188 800 q 199 883 188 861 q 213 907 210 904 l 85 907 q 76 918 81 913 q 69 936 72 924 q 93 954 76 944 q 127 971 110 964 q 151 978 144 978 l 426 978 q 439 960 433 972 q 444 932 444 947 l 386 914 q 347 894 361 906 q 326 859 332 882 q 319 793 319 836 l 319 182 q 311 124 319 149 q 296 90 303 100 l 433 75 q 440 63 436 72 q 443 44 443 54 q 391 13 422 26 q 335 0 360 0 m 257 1256 q 378 1212 339 1256 q 426 1093 417 1168 q 403 1085 418 1089 q 364 1081 388 1081 q 330 1154 354 1135 q 257 1174 306 1174 q 183 1154 207 1174 q 149 1081 160 1135 q 112 1085 128 1081 q 88 1093 96 1089 q 135 1210 96 1165 q 257 1256 174 1256 z "},"Ī":{"ha":514,"x_min":65,"x_max":447,"o":"m 335 0 q 299 3 326 0 q 239 12 272 7 q 171 22 206 17 q 109 34 136 28 q 69 44 82 40 q 74 64 69 54 q 83 78 78 74 l 121 83 q 163 99 149 88 q 183 138 178 111 q 188 217 188 165 l 188 800 q 199 883 188 861 q 213 907 210 904 l 85 907 q 76 918 81 913 q 69 936 72 924 q 93 954 76 944 q 127 971 110 964 q 151 978 144 978 l 426 978 q 439 960 433 972 q 444 932 444 947 l 386 914 q 347 894 361 906 q 326 859 332 882 q 319 793 319 836 l 319 182 q 311 124 319 149 q 296 90 303 100 l 433 75 q 440 63 436 72 q 443 44 443 54 q 391 13 422 26 q 335 0 360 0 m 65 1097 q 70 1147 65 1126 q 79 1172 75 1168 q 168 1175 117 1172 q 274 1181 219 1178 q 371 1188 328 1185 q 435 1192 414 1190 l 447 1179 q 442 1130 446 1153 q 433 1097 438 1107 l 65 1097 z "},"Į":{"ha":514,"x_min":69,"x_max":444,"o":"m 335 0 q 299 3 326 0 q 239 12 272 7 q 171 22 206 17 q 109 34 136 28 q 69 44 82 40 q 74 64 69 54 q 83 78 78 74 l 121 83 q 163 99 149 88 q 183 138 178 111 q 188 217 188 165 l 188 800 q 199 883 188 861 q 213 907 210 904 l 85 907 q 76 918 81 913 q 69 936 72 924 q 93 954 76 944 q 127 971 110 964 q 151 978 144 978 l 426 978 q 439 960 433 972 q 444 932 444 947 l 386 914 q 347 894 361 906 q 326 859 332 882 q 319 793 319 836 l 319 182 q 311 124 319 149 q 296 90 303 100 l 433 75 q 440 63 436 72 q 443 44 443 54 q 391 13 422 26 q 335 0 360 0 m 274 -278 q 245 -270 267 -278 q 198 -249 224 -262 q 150 -217 172 -235 q 118 -179 128 -199 q 136 -108 118 -144 q 184 -39 154 -72 q 249 19 214 -6 l 342 19 q 277 -37 304 -4 q 235 -100 250 -71 q 221 -142 221 -129 q 299 -189 251 -175 q 397 -201 346 -203 q 404 -211 400 -204 q 408 -225 408 -218 q 347 -262 389 -247 q 274 -278 304 -278 z "},"Ĩ":{"ha":514,"x_min":25,"x_max":488,"o":"m 335 0 q 299 3 326 0 q 239 12 272 7 q 171 22 206 17 q 109 34 136 28 q 69 44 82 40 q 74 64 69 54 q 83 78 78 74 l 121 83 q 163 99 149 88 q 183 138 178 111 q 188 217 188 165 l 188 800 q 199 883 188 861 q 213 907 210 904 l 85 907 q 76 918 81 913 q 69 936 72 924 q 93 954 76 944 q 127 971 110 964 q 151 978 144 978 l 426 978 q 439 960 433 972 q 444 932 444 947 l 386 914 q 347 894 361 906 q 326 859 332 882 q 319 793 319 836 l 319 182 q 311 124 319 149 q 296 90 303 100 l 433 75 q 440 63 436 72 q 443 44 443 54 q 391 13 422 26 q 335 0 360 0 m 369 1083 q 315 1097 354 1083 q 229 1129 276 1110 q 143 1168 183 1149 l 51 1094 q 38 1103 45 1097 q 25 1122 30 1110 q 62 1183 41 1151 q 103 1236 83 1214 q 139 1258 124 1258 q 193 1245 154 1258 q 281 1214 233 1232 q 371 1178 330 1196 l 456 1264 q 476 1253 468 1260 q 488 1240 484 1246 q 449 1170 471 1207 q 406 1108 428 1133 q 369 1083 384 1083 z "},"J":{"ha":506,"x_min":-46,"x_max":443,"o":"m 88 -278 q 18 -265 58 -278 q -46 -237 -22 -253 q -42 -217 -46 -226 q -36 -204 -39 -208 q 94 -149 36 -183 q 188 -82 151 -115 l 188 797 q 196 874 188 847 q 213 907 204 901 l 69 907 q 60 919 64 913 q 54 935 56 926 q 78 954 63 944 q 111 971 94 964 q 136 978 128 978 l 426 978 q 438 960 432 974 q 443 932 443 947 l 386 914 q 347 895 363 907 q 324 861 332 883 q 317 793 317 839 l 317 -36 q 278 -112 307 -71 q 212 -192 249 -154 q 141 -253 175 -229 q 88 -278 107 -278 z "},"Ĵ":{"ha":506,"x_min":-46,"x_max":451,"o":"m 88 -278 q 18 -265 58 -278 q -46 -237 -22 -253 q -42 -217 -46 -226 q -36 -204 -39 -208 q 94 -149 36 -183 q 188 -82 151 -115 l 188 797 q 196 874 188 847 q 213 907 204 901 l 69 907 q 60 919 64 913 q 54 935 56 926 q 78 954 63 944 q 111 971 94 964 q 136 978 128 978 l 426 978 q 438 960 432 974 q 443 932 443 947 l 386 914 q 347 895 363 907 q 324 861 332 883 q 317 793 317 839 l 317 -36 q 278 -112 307 -71 q 212 -192 249 -154 q 141 -253 175 -229 q 88 -278 107 -278 m 92 1071 q 69 1085 79 1076 q 54 1103 58 1094 q 144 1228 106 1176 q 210 1307 182 1279 q 253 1335 238 1335 q 297 1306 269 1335 q 363 1226 325 1278 q 451 1103 401 1174 q 438 1086 447 1096 q 413 1071 428 1076 l 253 1211 l 92 1071 z "},"K":{"ha":944,"x_min":69,"x_max":938,"o":"m 335 0 q 299 3 326 0 q 239 12 272 7 q 171 22 206 17 q 109 34 136 28 q 69 44 82 40 q 74 64 69 54 q 83 78 78 74 l 121 83 q 162 98 147 88 q 182 136 176 108 q 188 217 188 164 l 188 797 q 197 875 188 849 q 213 907 206 901 l 85 907 q 75 919 79 911 q 69 935 71 926 q 93 954 76 944 q 127 971 110 964 q 151 978 144 978 l 426 978 q 439 960 433 974 q 444 932 444 947 l 386 914 q 347 894 361 906 q 326 859 332 882 q 319 793 319 836 l 319 543 l 469 546 q 498 612 481 569 q 539 707 515 654 q 590 813 563 760 q 647 909 617 865 q 707 978 676 953 l 915 978 q 926 961 921 974 q 932 932 932 949 l 871 914 q 787 865 826 900 q 714 785 747 831 q 653 688 681 739 q 605 593 625 638 q 572 519 585 549 l 717 264 q 772 174 747 214 q 825 110 796 133 q 897 86 854 88 l 924 85 q 933 71 928 81 q 938 49 938 61 q 897 22 921 33 q 847 6 872 11 q 799 0 821 0 q 753 7 775 0 q 711 31 732 14 q 669 78 690 49 q 624 154 647 108 l 503 400 q 467 452 485 436 q 406 468 449 468 l 319 468 l 319 182 q 311 124 319 149 q 296 90 303 100 l 433 75 q 440 63 436 72 q 443 44 443 54 q 391 13 422 26 q 335 0 360 0 z "},"Ķ":{"ha":944,"x_min":69,"x_max":938,"o":"m 335 0 q 299 3 326 0 q 239 12 272 7 q 171 22 206 17 q 109 34 136 28 q 69 44 82 40 q 74 64 69 54 q 83 78 78 74 l 121 83 q 162 98 147 88 q 182 136 176 108 q 188 217 188 164 l 188 797 q 197 875 188 849 q 213 907 206 901 l 85 907 q 75 919 79 911 q 69 935 71 926 q 93 954 76 944 q 127 971 110 964 q 151 978 144 978 l 426 978 q 439 960 433 974 q 444 932 444 947 l 386 914 q 347 894 361 906 q 326 859 332 882 q 319 793 319 836 l 319 543 l 469 546 q 498 612 481 569 q 539 707 515 654 q 590 813 563 760 q 647 909 617 865 q 707 978 676 953 l 915 978 q 926 961 921 974 q 932 932 932 949 l 871 914 q 787 865 826 900 q 714 785 747 831 q 653 688 681 739 q 605 593 625 638 q 572 519 585 549 l 717 264 q 772 174 747 214 q 825 110 796 133 q 897 86 854 88 l 924 85 q 933 71 928 81 q 938 49 938 61 q 897 22 921 33 q 847 6 872 11 q 799 0 821 0 q 753 7 775 0 q 711 31 732 14 q 669 78 690 49 q 624 154 647 108 l 503 400 q 467 452 485 436 q 406 468 449 468 l 319 468 l 319 182 q 311 124 319 149 q 296 90 303 100 l 433 75 q 440 63 436 72 q 443 44 443 54 q 391 13 422 26 q 335 0 360 0 m 447 -347 q 414 -337 429 -347 q 392 -317 399 -326 q 438 -279 413 -303 q 475 -228 464 -256 l 494 -258 q 461 -247 481 -258 q 424 -219 442 -236 q 394 -182 406 -201 q 382 -146 382 -162 q 394 -123 382 -136 q 424 -99 406 -110 q 459 -79 442 -87 q 486 -71 476 -71 q 510 -83 497 -71 q 535 -110 522 -94 q 555 -144 547 -126 q 563 -172 563 -161 q 548 -210 563 -182 q 512 -269 533 -237 q 472 -324 490 -301 q 447 -347 454 -347 z "},"L":{"ha":807,"x_min":69,"x_max":764,"o":"m 638 0 q 539 3 597 0 q 413 10 481 6 q 280 20 346 14 q 159 33 214 26 q 69 44 104 39 q 74 64 69 54 q 83 78 78 74 l 121 83 q 163 99 149 88 q 183 138 178 111 q 188 217 188 165 l 188 797 q 192 856 188 833 q 202 892 196 879 q 213 907 208 904 l 85 907 q 75 919 79 911 q 69 935 71 926 q 93 954 76 944 q 127 971 110 964 q 151 978 144 978 l 426 978 q 439 960 433 974 q 444 932 444 947 l 386 914 q 347 894 361 906 q 326 859 332 882 q 319 793 319 836 l 319 185 q 311 127 319 151 q 296 93 303 103 l 624 93 l 696 321 q 739 314 721 321 q 764 300 757 307 q 761 217 764 261 q 754 133 758 174 q 746 61 750 93 q 715 36 736 50 q 673 12 694 22 q 638 0 651 1 z "},"Ǉ":{"ha":1313,"x_min":69,"x_max":1250,"o":"m 638 0 q 539 3 597 0 q 413 10 481 6 q 280 20 346 14 q 159 33 214 26 q 69 44 104 39 q 74 64 69 54 q 83 78 78 74 l 121 83 q 163 99 149 88 q 183 138 178 111 q 188 217 188 165 l 188 797 q 192 856 188 833 q 202 892 196 879 q 213 907 208 904 l 85 907 q 75 919 79 911 q 69 935 71 926 q 93 954 76 944 q 127 971 110 964 q 151 978 144 978 l 426 978 q 439 960 433 974 q 444 932 444 947 l 386 914 q 347 894 361 906 q 326 859 332 882 q 319 793 319 836 l 319 185 q 311 127 319 151 q 296 93 303 103 l 624 93 l 696 321 q 739 314 721 321 q 764 300 757 307 q 761 217 764 261 q 754 133 758 174 q 746 61 750 93 q 715 36 736 50 q 673 12 694 22 q 638 0 651 1 m 894 -278 q 825 -265 865 -278 q 761 -237 785 -253 q 765 -217 761 -226 q 771 -204 768 -208 q 901 -149 843 -183 q 994 -82 958 -115 l 994 797 q 1003 874 994 847 q 1019 907 1011 901 l 876 907 q 867 919 871 913 q 861 935 863 926 q 885 954 869 944 q 918 971 901 964 q 943 978 935 978 l 1233 978 q 1244 960 1239 974 q 1250 932 1250 947 l 1193 914 q 1154 895 1169 907 q 1131 861 1139 883 q 1124 793 1124 839 l 1124 -36 q 1085 -112 1114 -71 q 1019 -192 1056 -154 q 948 -253 982 -229 q 894 -278 914 -278 z "},"Ĺ":{"ha":807,"x_min":69,"x_max":764,"o":"m 638 0 q 539 3 597 0 q 413 10 481 6 q 280 20 346 14 q 159 33 214 26 q 69 44 104 39 q 74 64 69 54 q 83 78 78 74 l 121 83 q 163 99 149 88 q 183 138 178 111 q 188 217 188 165 l 188 797 q 192 856 188 833 q 202 892 196 879 q 213 907 208 904 l 85 907 q 75 919 79 911 q 69 935 71 926 q 93 954 76 944 q 127 971 110 964 q 151 978 144 978 l 426 978 q 439 960 433 974 q 444 932 444 947 l 386 914 q 347 894 361 906 q 326 859 332 882 q 319 793 319 836 l 319 185 q 311 127 319 151 q 296 93 303 103 l 624 93 l 696 321 q 739 314 721 321 q 764 300 757 307 q 761 217 764 261 q 754 133 758 174 q 746 61 750 93 q 715 36 736 50 q 673 12 694 22 q 638 0 651 1 m 165 1068 q 140 1082 151 1072 q 122 1100 128 1092 q 214 1220 169 1168 q 292 1301 258 1272 q 338 1331 325 1331 q 365 1318 347 1331 q 397 1287 382 1306 q 419 1249 413 1268 l 165 1068 z "},"Ľ":{"ha":807,"x_min":69,"x_max":764,"o":"m 638 0 q 539 3 597 0 q 413 10 481 6 q 280 20 346 14 q 159 33 214 26 q 69 44 104 39 q 74 64 69 54 q 83 78 78 74 l 121 83 q 163 99 149 88 q 183 138 178 111 q 188 217 188 165 l 188 797 q 192 856 188 833 q 202 892 196 879 q 213 907 208 904 l 85 907 q 75 919 79 911 q 69 935 71 926 q 93 954 76 944 q 127 971 110 964 q 151 978 144 978 l 426 978 q 439 960 433 974 q 444 932 444 947 l 386 914 q 347 894 361 906 q 326 859 332 882 q 319 793 319 836 l 319 185 q 311 127 319 151 q 296 93 303 103 l 624 93 l 696 321 q 739 314 721 321 q 764 300 757 307 q 761 217 764 261 q 754 133 758 174 q 746 61 750 93 q 715 36 736 50 q 673 12 694 22 q 638 0 651 1 m 628 756 q 603 758 613 756 q 588 763 594 760 l 564 1096 q 592 1106 574 1101 q 619 1111 610 1111 q 647 1096 633 1111 q 669 1063 660 1081 q 679 1036 679 1046 q 674 972 679 1018 q 658 867 668 925 q 628 756 647 808 z "},"Ļ":{"ha":807,"x_min":69,"x_max":764,"o":"m 638 0 q 539 3 597 0 q 413 10 481 6 q 280 20 346 14 q 159 33 214 26 q 69 44 104 39 q 74 64 69 54 q 83 78 78 74 l 121 83 q 163 99 149 88 q 183 138 178 111 q 188 217 188 165 l 188 797 q 192 856 188 833 q 202 892 196 879 q 213 907 208 904 l 85 907 q 75 919 79 911 q 69 935 71 926 q 93 954 76 944 q 127 971 110 964 q 151 978 144 978 l 426 978 q 439 960 433 974 q 444 932 444 947 l 386 914 q 347 894 361 906 q 326 859 332 882 q 319 793 319 836 l 319 185 q 311 127 319 151 q 296 93 303 103 l 624 93 l 696 321 q 739 314 721 321 q 764 300 757 307 q 761 217 764 261 q 754 133 758 174 q 746 61 750 93 q 715 36 736 50 q 673 12 694 22 q 638 0 651 1 m 399 -347 q 365 -337 381 -347 q 343 -317 350 -326 q 390 -279 364 -303 q 426 -228 415 -256 l 446 -258 q 413 -247 432 -258 q 375 -219 393 -236 q 345 -182 357 -201 q 333 -146 333 -162 q 345 -123 333 -136 q 375 -99 357 -110 q 410 -79 393 -87 q 438 -71 428 -71 q 461 -83 449 -71 q 486 -110 474 -94 q 506 -144 499 -126 q 514 -172 514 -161 q 499 -210 514 -182 q 463 -269 485 -237 q 424 -324 442 -301 q 399 -347 406 -347 z "},"Ŀ":{"ha":807,"x_min":69,"x_max":764,"o":"m 638 0 q 539 3 597 0 q 413 10 481 6 q 280 20 346 14 q 159 33 214 26 q 69 44 104 39 q 74 64 69 54 q 83 78 78 74 l 121 83 q 163 99 149 88 q 183 138 178 111 q 188 217 188 165 l 188 797 q 192 856 188 833 q 202 892 196 879 q 213 907 208 904 l 85 907 q 75 919 79 911 q 69 935 71 926 q 93 954 76 944 q 127 971 110 964 q 151 978 144 978 l 426 978 q 439 960 433 974 q 444 932 444 947 l 386 914 q 347 894 361 906 q 326 859 332 882 q 319 793 319 836 l 319 185 q 311 127 319 151 q 296 93 303 103 l 624 93 l 696 321 q 739 314 721 321 q 764 300 757 307 q 761 217 764 261 q 754 133 758 174 q 746 61 750 93 q 715 36 736 50 q 673 12 694 22 q 638 0 651 1 m 647 439 q 626 449 639 439 q 599 476 613 460 q 577 509 586 493 q 568 535 568 525 q 581 558 568 546 q 610 583 593 571 q 644 603 626 596 q 669 611 661 611 q 693 599 681 611 q 717 571 706 588 q 738 538 729 554 q 746 511 746 522 q 735 490 746 503 q 708 466 724 478 q 676 447 693 454 q 647 439 660 439 z "},"ǈ":{"ha":1196,"x_min":69,"x_max":1088,"o":"m 638 0 q 539 3 597 0 q 413 10 481 6 q 280 20 346 14 q 159 33 214 26 q 69 44 104 39 q 74 64 69 54 q 83 78 78 74 l 121 83 q 163 99 149 88 q 183 138 178 111 q 188 217 188 165 l 188 797 q 192 856 188 833 q 202 892 196 879 q 213 907 208 904 l 85 907 q 75 919 79 911 q 69 935 71 926 q 93 954 76 944 q 127 971 110 964 q 151 978 144 978 l 426 978 q 439 960 433 974 q 444 932 444 947 l 386 914 q 347 894 361 906 q 326 859 332 882 q 319 793 319 836 l 319 185 q 311 127 319 151 q 296 93 303 103 l 624 93 l 696 321 q 739 314 721 321 q 764 300 757 307 q 761 217 764 261 q 754 133 758 174 q 746 61 750 93 q 715 36 736 50 q 673 12 694 22 q 638 0 651 1 z "},"Ł":{"ha":807,"x_min":31,"x_max":764,"o":"m 56 356 q 36 383 40 369 q 31 408 32 396 l 572 683 q 602 644 593 669 q 613 597 611 619 l 56 356 m 638 0 q 539 3 597 0 q 413 10 481 6 q 280 20 346 14 q 159 33 214 26 q 69 44 104 39 q 74 64 69 54 q 83 78 78 74 l 121 83 q 163 99 149 88 q 183 138 178 111 q 188 217 188 165 l 188 797 q 192 856 188 833 q 202 892 196 879 q 213 907 208 904 l 85 907 q 75 919 79 911 q 69 935 71 926 q 93 954 76 944 q 127 971 110 964 q 151 978 144 978 l 426 978 q 439 960 433 974 q 444 932 444 947 l 386 914 q 347 894 361 906 q 326 859 332 882 q 319 793 319 836 l 319 185 q 311 127 319 151 q 296 93 303 103 l 624 93 l 696 321 q 739 314 721 321 q 764 300 757 307 q 761 217 764 261 q 754 133 758 174 q 746 61 750 93 q 715 36 736 50 q 673 12 694 22 q 638 0 651 1 z "},"M":{"ha":1353,"x_min":61,"x_max":1292,"o":"m 313 0 q 267 5 301 0 q 192 17 233 10 q 114 31 150 24 q 61 44 78 39 q 66 65 61 56 q 75 78 71 74 l 110 83 q 152 101 138 88 q 174 142 167 114 q 183 221 181 171 l 214 796 q 226 872 217 844 q 240 907 235 900 l 107 907 q 98 919 103 913 q 92 935 93 925 q 115 954 99 944 q 148 971 131 964 q 174 978 165 978 l 394 978 l 669 289 q 712 381 686 322 q 769 514 738 439 q 832 670 800 589 q 892 831 864 751 q 939 978 919 911 l 1244 978 q 1257 960 1251 972 q 1263 932 1263 947 l 1204 914 q 1160 893 1178 906 q 1137 859 1143 881 q 1132 799 1131 838 l 1164 196 q 1158 126 1167 154 q 1143 90 1150 97 l 1282 75 q 1288 63 1285 71 q 1292 44 1292 56 q 1240 14 1272 28 q 1183 0 1208 0 q 1145 3 1172 0 q 1083 12 1118 7 q 1014 22 1049 17 q 951 34 979 28 q 911 44 924 40 q 916 64 911 54 q 925 78 921 74 l 968 83 q 1013 97 999 86 q 1033 138 1028 107 q 1033 232 1038 169 l 1007 736 q 1008 827 1004 789 q 1015 879 1011 865 l 1006 883 l 708 154 q 670 131 697 143 q 606 118 643 118 l 356 739 q 332 817 340 781 q 321 874 324 853 l 313 874 q 307 841 310 863 q 301 776 304 819 l 274 188 q 263 122 272 144 q 247 94 254 99 l 417 75 q 423 64 419 74 q 426 44 426 54 q 391 21 411 31 q 350 6 371 11 q 313 0 329 0 z "},"N":{"ha":1088,"x_min":69,"x_max":1043,"o":"m 322 0 q 276 5 310 0 q 201 17 243 10 q 124 31 160 24 q 69 44 88 39 q 74 64 69 54 q 83 78 78 74 l 121 83 q 164 101 150 88 q 183 143 178 114 q 188 224 188 172 l 188 799 q 196 874 188 847 q 213 907 204 901 l 85 907 q 75 918 79 911 q 69 935 71 925 q 93 954 76 944 q 127 971 110 964 q 151 978 144 978 l 342 978 l 839 196 q 830 263 833 221 q 826 378 826 304 l 826 793 q 835 869 826 842 q 851 903 843 897 l 722 903 q 714 913 719 907 q 707 931 708 919 q 731 951 714 940 q 765 970 747 963 q 789 978 782 978 l 1025 978 q 1038 959 1032 971 q 1043 932 1043 947 l 983 913 q 942 892 956 906 q 923 853 928 878 q 918 783 918 828 l 918 249 q 922 116 918 174 q 932 36 926 58 q 896 17 918 25 q 850 6 874 10 q 808 0 826 1 l 354 715 q 310 799 325 763 q 292 851 294 836 l 283 851 q 280 825 282 844 q 278 765 278 806 l 278 182 q 271 126 278 150 q 256 94 264 103 l 425 75 q 431 64 428 72 q 435 44 435 56 q 399 21 419 31 q 358 6 379 11 q 322 0 336 0 z "},"Ǌ":{"ha":1593,"x_min":69,"x_max":1531,"o":"m 322 0 q 276 5 310 0 q 201 17 243 10 q 124 31 160 24 q 69 44 88 39 q 74 64 69 54 q 83 78 78 74 l 121 83 q 164 101 150 88 q 183 143 178 114 q 188 224 188 172 l 188 799 q 196 874 188 847 q 213 907 204 901 l 85 907 q 75 918 79 911 q 69 935 71 925 q 93 954 76 944 q 127 971 110 964 q 151 978 144 978 l 342 978 l 839 196 q 830 263 833 221 q 826 378 826 304 l 826 793 q 835 869 826 842 q 851 903 843 897 l 722 903 q 714 913 719 907 q 707 931 708 919 q 731 951 714 940 q 765 970 747 963 q 789 978 782 978 l 1025 978 q 1038 959 1032 971 q 1043 932 1043 947 l 983 913 q 942 892 956 906 q 923 853 928 878 q 918 783 918 828 l 918 249 q 922 116 918 174 q 932 36 926 58 q 896 17 918 25 q 850 6 874 10 q 808 0 826 1 l 354 715 q 310 799 325 763 q 292 851 294 836 l 283 851 q 280 825 282 844 q 278 765 278 806 l 278 182 q 271 126 278 150 q 256 94 264 103 l 425 75 q 431 64 428 72 q 435 44 435 56 q 399 21 419 31 q 358 6 379 11 q 322 0 336 0 m 1175 -278 q 1106 -265 1146 -278 q 1042 -237 1065 -253 q 1045 -217 1042 -226 q 1051 -204 1049 -208 q 1181 -149 1124 -183 q 1275 -82 1239 -115 l 1275 797 q 1283 874 1275 847 q 1300 907 1292 901 l 1157 907 q 1147 919 1151 913 q 1142 935 1143 926 q 1166 954 1150 944 q 1199 971 1182 964 q 1224 978 1215 978 l 1514 978 q 1525 960 1519 974 q 1531 932 1531 947 l 1474 914 q 1435 895 1450 907 q 1412 861 1419 883 q 1404 793 1404 839 l 1404 -36 q 1365 -112 1394 -71 q 1299 -192 1336 -154 q 1228 -253 1263 -229 q 1175 -278 1194 -278 z "},"Ń":{"ha":1088,"x_min":69,"x_max":1043,"o":"m 322 0 q 276 5 310 0 q 201 17 243 10 q 124 31 160 24 q 69 44 88 39 q 74 64 69 54 q 83 78 78 74 l 121 83 q 164 101 150 88 q 183 143 178 114 q 188 224 188 172 l 188 799 q 196 874 188 847 q 213 907 204 901 l 85 907 q 75 918 79 911 q 69 935 71 925 q 93 954 76 944 q 127 971 110 964 q 151 978 144 978 l 342 978 l 839 196 q 830 263 833 221 q 826 378 826 304 l 826 793 q 835 869 826 842 q 851 903 843 897 l 722 903 q 714 913 719 907 q 707 931 708 919 q 731 951 714 940 q 765 970 747 963 q 789 978 782 978 l 1025 978 q 1038 959 1032 971 q 1043 932 1043 947 l 983 913 q 942 892 956 906 q 923 853 928 878 q 918 783 918 828 l 918 249 q 922 116 918 174 q 932 36 926 58 q 896 17 918 25 q 850 6 874 10 q 808 0 826 1 l 354 715 q 310 799 325 763 q 292 851 294 836 l 283 851 q 280 825 282 844 q 278 765 278 806 l 278 182 q 271 126 278 150 q 256 94 264 103 l 425 75 q 431 64 428 72 q 435 44 435 56 q 399 21 419 31 q 358 6 379 11 q 322 0 336 0 m 460 1068 q 434 1082 446 1072 q 417 1100 422 1092 q 508 1220 464 1168 q 586 1301 553 1272 q 632 1331 619 1331 q 659 1318 642 1331 q 692 1287 676 1306 q 714 1249 707 1268 l 460 1068 z "},"Ň":{"ha":1088,"x_min":69,"x_max":1043,"o":"m 322 0 q 276 5 310 0 q 201 17 243 10 q 124 31 160 24 q 69 44 88 39 q 74 64 69 54 q 83 78 78 74 l 121 83 q 164 101 150 88 q 183 143 178 114 q 188 224 188 172 l 188 799 q 196 874 188 847 q 213 907 204 901 l 85 907 q 75 918 79 911 q 69 935 71 925 q 93 954 76 944 q 127 971 110 964 q 151 978 144 978 l 342 978 l 839 196 q 830 263 833 221 q 826 378 826 304 l 826 793 q 835 869 826 842 q 851 903 843 897 l 722 903 q 714 913 719 907 q 707 931 708 919 q 731 951 714 940 q 765 970 747 963 q 789 978 782 978 l 1025 978 q 1038 959 1032 971 q 1043 932 1043 947 l 983 913 q 942 892 956 906 q 923 853 928 878 q 918 783 918 828 l 918 249 q 922 116 918 174 q 932 36 926 58 q 896 17 918 25 q 850 6 874 10 q 808 0 826 1 l 354 715 q 310 799 325 763 q 292 851 294 836 l 283 851 q 280 825 282 844 q 278 765 278 806 l 278 182 q 271 126 278 150 q 256 94 264 103 l 425 75 q 431 64 428 72 q 435 44 435 56 q 399 21 419 31 q 358 6 379 11 q 322 0 336 0 m 556 1071 q 510 1099 538 1071 q 445 1178 483 1126 q 357 1297 407 1229 q 372 1316 361 1306 q 396 1329 383 1326 l 557 1192 l 715 1329 q 740 1316 729 1325 q 754 1299 750 1307 q 665 1176 703 1228 q 601 1098 628 1125 q 556 1071 574 1071 z "},"Ņ":{"ha":1088,"x_min":69,"x_max":1043,"o":"m 322 0 q 276 5 310 0 q 201 17 243 10 q 124 31 160 24 q 69 44 88 39 q 74 64 69 54 q 83 78 78 74 l 121 83 q 164 101 150 88 q 183 143 178 114 q 188 224 188 172 l 188 799 q 196 874 188 847 q 213 907 204 901 l 85 907 q 75 918 79 911 q 69 935 71 925 q 93 954 76 944 q 127 971 110 964 q 151 978 144 978 l 342 978 l 839 196 q 830 263 833 221 q 826 378 826 304 l 826 793 q 835 869 826 842 q 851 903 843 897 l 722 903 q 714 913 719 907 q 707 931 708 919 q 731 951 714 940 q 765 970 747 963 q 789 978 782 978 l 1025 978 q 1038 959 1032 971 q 1043 932 1043 947 l 983 913 q 942 892 956 906 q 923 853 928 878 q 918 783 918 828 l 918 249 q 922 116 918 174 q 932 36 926 58 q 896 17 918 25 q 850 6 874 10 q 808 0 826 1 l 354 715 q 310 799 325 763 q 292 851 294 836 l 283 851 q 280 825 282 844 q 278 765 278 806 l 278 182 q 271 126 278 150 q 256 94 264 103 l 425 75 q 431 64 428 72 q 435 44 435 56 q 399 21 419 31 q 358 6 379 11 q 322 0 336 0 m 517 -347 q 483 -337 499 -347 q 461 -317 468 -326 q 508 -279 482 -303 q 544 -228 533 -256 l 564 -258 q 531 -247 550 -258 q 493 -219 511 -236 q 463 -182 475 -201 q 451 -146 451 -162 q 463 -123 451 -136 q 493 -99 475 -110 q 528 -79 511 -87 q 556 -71 546 -71 q 579 -83 567 -71 q 604 -110 592 -94 q 624 -144 617 -126 q 632 -172 632 -161 q 617 -210 632 -182 q 581 -269 603 -237 q 542 -324 560 -301 q 517 -347 524 -347 z "},"Ŋ":{"ha":1088,"x_min":69,"x_max":1043,"o":"m 714 -278 q 647 -266 686 -278 q 585 -239 607 -254 q 588 -220 585 -228 q 594 -208 592 -212 q 727 -152 669 -187 q 828 -79 785 -117 l 828 -14 l 354 715 q 321 774 335 746 q 300 822 307 801 q 292 851 293 842 l 283 851 q 280 825 282 844 q 278 765 278 806 l 278 182 q 271 126 278 150 q 256 94 264 103 l 425 75 q 431 64 428 72 q 435 44 435 56 q 399 21 419 31 q 358 6 379 11 q 322 0 336 0 q 276 5 310 0 q 201 17 243 10 q 124 31 160 24 q 69 44 88 39 q 74 64 69 54 q 83 78 78 74 l 121 83 q 164 101 150 88 q 183 143 178 114 q 188 224 188 172 l 188 799 q 196 874 188 847 q 213 907 204 901 l 85 907 q 75 918 79 911 q 69 935 71 925 q 92 954 76 944 q 126 971 108 964 q 150 978 143 978 l 335 978 l 839 203 q 830 270 833 229 q 826 385 826 311 l 826 793 q 835 869 826 842 q 851 903 843 897 l 722 903 q 714 913 719 907 q 707 931 708 919 q 731 951 714 940 q 765 970 747 963 q 789 978 782 978 l 1025 978 q 1038 959 1032 971 q 1043 932 1043 947 l 983 913 q 942 892 956 906 q 923 853 928 878 q 918 783 918 828 l 918 249 q 920 142 918 197 q 926 39 922 88 q 935 -43 929 -10 q 893 -117 922 -76 q 829 -194 864 -157 q 763 -255 794 -232 q 714 -278 732 -278 z "},"Ɲ":{"ha":1088,"x_min":-46,"x_max":1043,"o":"m 88 -278 q 18 -265 58 -278 q -46 -237 -22 -253 q -42 -217 -46 -226 q -36 -204 -39 -208 q 93 -151 35 -185 q 188 -83 151 -117 l 188 799 q 196 874 188 847 q 213 907 204 901 l 85 907 q 75 918 79 911 q 69 935 71 925 q 93 954 76 944 q 127 971 110 964 q 151 978 144 978 l 342 978 l 839 196 q 830 263 833 221 q 826 378 826 304 l 826 793 q 835 869 826 842 q 851 903 843 897 l 722 903 q 714 913 719 907 q 707 931 708 919 q 731 951 714 940 q 765 970 747 963 q 789 978 782 978 l 1025 978 q 1038 959 1032 971 q 1043 932 1043 947 l 983 913 q 942 892 956 906 q 923 853 928 878 q 918 783 918 828 l 918 249 q 922 116 918 174 q 932 36 926 58 q 896 17 918 25 q 850 6 874 10 q 808 0 826 1 l 354 715 q 310 799 325 763 q 292 851 294 836 l 283 851 q 280 825 282 844 q 278 765 278 806 l 278 -87 q 245 -147 269 -115 q 191 -209 221 -179 q 133 -258 161 -239 q 88 -278 104 -278 z "},"ǋ":{"ha":1476,"x_min":69,"x_max":1368,"o":"m 322 0 q 276 5 310 0 q 201 17 243 10 q 124 31 160 24 q 69 44 88 39 q 74 64 69 54 q 83 78 78 74 l 121 83 q 164 101 150 88 q 183 143 178 114 q 188 224 188 172 l 188 799 q 196 874 188 847 q 213 907 204 901 l 85 907 q 75 918 79 911 q 69 935 71 925 q 93 954 76 944 q 127 971 110 964 q 151 978 144 978 l 342 978 l 839 196 q 830 263 833 221 q 826 378 826 304 l 826 793 q 835 869 826 842 q 851 903 843 897 l 722 903 q 714 913 719 907 q 707 931 708 919 q 731 951 714 940 q 765 970 747 963 q 789 978 782 978 l 1025 978 q 1038 959 1032 971 q 1043 932 1043 947 l 983 913 q 942 892 956 906 q 923 853 928 878 q 918 783 918 828 l 918 249 q 922 116 918 174 q 932 36 926 58 q 896 17 918 25 q 850 6 874 10 q 808 0 826 1 l 354 715 q 310 799 325 763 q 292 851 294 836 l 283 851 q 280 825 282 844 q 278 765 278 806 l 278 182 q 271 126 278 150 q 256 94 264 103 l 425 75 q 431 64 428 72 q 435 44 435 56 q 399 21 419 31 q 358 6 379 11 q 322 0 336 0 z "},"Ñ":{"ha":1088,"x_min":69,"x_max":1043,"o":"m 322 0 q 276 5 310 0 q 201 17 243 10 q 124 31 160 24 q 69 44 88 39 q 74 64 69 54 q 83 78 78 74 l 121 83 q 164 101 150 88 q 183 143 178 114 q 188 224 188 172 l 188 799 q 196 874 188 847 q 213 907 204 901 l 85 907 q 75 918 79 911 q 69 935 71 925 q 93 954 76 944 q 127 971 110 964 q 151 978 144 978 l 342 978 l 839 196 q 830 263 833 221 q 826 378 826 304 l 826 793 q 835 869 826 842 q 851 903 843 897 l 722 903 q 714 913 719 907 q 707 931 708 919 q 731 951 714 940 q 765 970 747 963 q 789 978 782 978 l 1025 978 q 1038 959 1032 971 q 1043 932 1043 947 l 983 913 q 942 892 956 906 q 923 853 928 878 q 918 783 918 828 l 918 249 q 922 116 918 174 q 932 36 926 58 q 896 17 918 25 q 850 6 874 10 q 808 0 826 1 l 354 715 q 310 799 325 763 q 292 851 294 836 l 283 851 q 280 825 282 844 q 278 765 278 806 l 278 182 q 271 126 278 150 q 256 94 264 103 l 425 75 q 431 64 428 72 q 435 44 435 56 q 399 21 419 31 q 358 6 379 11 q 322 0 336 0 m 681 1083 q 621 1097 664 1083 q 526 1129 578 1110 q 429 1168 474 1149 l 328 1094 q 313 1103 321 1097 q 299 1122 304 1110 q 340 1183 317 1151 q 385 1236 363 1214 q 425 1258 408 1258 q 485 1245 442 1258 q 583 1214 529 1232 q 683 1178 638 1196 l 778 1264 q 799 1253 790 1260 q 813 1240 808 1246 q 770 1170 794 1207 q 722 1108 746 1133 q 681 1083 697 1083 z "},"O":{"ha":1011,"x_min":88,"x_max":924,"o":"m 483 0 q 396 14 444 0 q 299 49 347 28 q 212 94 250 69 q 156 139 174 118 q 104 267 121 185 q 88 449 88 350 q 96 608 88 529 q 118 751 104 686 q 147 851 132 815 q 220 900 176 874 q 317 949 264 926 q 430 986 371 972 q 549 1000 489 1000 q 630 988 583 1000 q 724 956 676 976 q 810 913 771 936 q 868 867 849 889 q 900 784 888 833 q 918 678 913 735 q 924 561 924 621 q 915 399 924 479 q 892 254 906 319 q 861 150 878 189 q 771 84 829 119 q 638 24 713 49 q 483 0 564 0 m 514 94 q 597 106 553 94 q 678 133 642 117 q 732 161 715 149 q 759 256 747 200 q 778 380 771 313 q 785 519 785 447 q 775 682 785 607 q 749 808 765 757 q 715 835 742 818 q 653 867 689 851 q 578 894 617 883 q 511 906 540 906 q 432 897 476 906 q 346 874 388 888 q 275 846 304 860 q 248 751 260 807 q 231 631 236 694 q 225 501 225 567 q 236 331 225 413 q 274 196 247 250 q 317 163 288 181 q 382 128 346 144 q 453 103 418 113 q 514 94 489 94 z "},"Ó":{"ha":1011,"x_min":88,"x_max":924,"o":"m 483 0 q 396 14 444 0 q 299 49 347 28 q 212 94 250 69 q 156 139 174 118 q 104 267 121 185 q 88 449 88 350 q 96 608 88 529 q 118 751 104 686 q 147 851 132 815 q 220 900 176 874 q 317 949 264 926 q 430 986 371 972 q 549 1000 489 1000 q 630 988 583 1000 q 724 956 676 976 q 810 913 771 936 q 868 867 849 889 q 900 784 888 833 q 918 678 913 735 q 924 561 924 621 q 915 399 924 479 q 892 254 906 319 q 861 150 878 189 q 771 84 829 119 q 638 24 713 49 q 483 0 564 0 m 514 94 q 597 106 553 94 q 678 133 642 117 q 732 161 715 149 q 759 256 747 200 q 778 380 771 313 q 785 519 785 447 q 775 682 785 607 q 749 808 765 757 q 715 835 742 818 q 653 867 689 851 q 578 894 617 883 q 511 906 540 906 q 432 897 476 906 q 346 874 388 888 q 275 846 304 860 q 248 751 260 807 q 231 631 236 694 q 225 501 225 567 q 236 331 225 413 q 274 196 247 250 q 317 163 288 181 q 382 128 346 144 q 453 103 418 113 q 514 94 489 94 m 411 1068 q 385 1082 397 1072 q 368 1100 374 1092 q 460 1220 415 1168 q 538 1301 504 1272 q 583 1331 571 1331 q 610 1318 593 1331 q 643 1287 628 1306 q 665 1249 658 1268 l 411 1068 z "},"Ŏ":{"ha":1011,"x_min":88,"x_max":924,"o":"m 483 0 q 396 14 444 0 q 299 49 347 28 q 212 94 250 69 q 156 139 174 118 q 104 267 121 185 q 88 449 88 350 q 96 608 88 529 q 118 751 104 686 q 147 851 132 815 q 220 900 176 874 q 317 949 264 926 q 430 986 371 972 q 549 1000 489 1000 q 630 988 583 1000 q 724 956 676 976 q 810 913 771 936 q 868 867 849 889 q 900 784 888 833 q 918 678 913 735 q 924 561 924 621 q 915 399 924 479 q 892 254 906 319 q 861 150 878 189 q 771 84 829 119 q 638 24 713 49 q 483 0 564 0 m 514 94 q 597 106 553 94 q 678 133 642 117 q 732 161 715 149 q 759 256 747 200 q 778 380 771 313 q 785 519 785 447 q 775 682 785 607 q 749 808 765 757 q 715 835 742 818 q 653 867 689 851 q 578 894 617 883 q 511 906 540 906 q 432 897 476 906 q 346 874 388 888 q 275 846 304 860 q 248 751 260 807 q 231 631 236 694 q 225 501 225 567 q 236 331 225 413 q 274 196 247 250 q 317 163 288 181 q 382 128 346 144 q 453 103 418 113 q 514 94 489 94 m 506 1086 q 379 1132 419 1086 q 331 1250 339 1178 q 356 1258 339 1254 q 394 1263 374 1263 q 431 1191 406 1210 q 506 1172 456 1172 q 581 1191 556 1172 q 617 1263 606 1210 q 657 1258 640 1263 q 681 1250 674 1254 q 630 1130 671 1174 q 506 1086 589 1086 z "},"Ǒ":{"ha":1011,"x_min":88,"x_max":924,"o":"m 483 0 q 396 14 444 0 q 299 49 347 28 q 212 94 250 69 q 156 139 174 118 q 104 267 121 185 q 88 449 88 350 q 96 608 88 529 q 118 751 104 686 q 147 851 132 815 q 220 900 176 874 q 317 949 264 926 q 430 986 371 972 q 549 1000 489 1000 q 630 988 583 1000 q 724 956 676 976 q 810 913 771 936 q 868 867 849 889 q 900 784 888 833 q 918 678 913 735 q 924 561 924 621 q 915 399 924 479 q 892 254 906 319 q 861 150 878 189 q 771 84 829 119 q 638 24 713 49 q 483 0 564 0 m 514 94 q 597 106 553 94 q 678 133 642 117 q 732 161 715 149 q 759 256 747 200 q 778 380 771 313 q 785 519 785 447 q 775 682 785 607 q 749 808 765 757 q 715 835 742 818 q 653 867 689 851 q 578 894 617 883 q 511 906 540 906 q 432 897 476 906 q 346 874 388 888 q 275 846 304 860 q 248 751 260 807 q 231 631 236 694 q 225 501 225 567 q 236 331 225 413 q 274 196 247 250 q 317 163 288 181 q 382 128 346 144 q 453 103 418 113 q 514 94 489 94 m 506 1071 q 460 1099 488 1071 q 395 1178 433 1126 q 307 1297 357 1229 q 322 1316 311 1306 q 346 1329 333 1326 l 507 1192 l 665 1329 q 690 1316 679 1325 q 704 1299 700 1307 q 615 1176 653 1228 q 551 1098 578 1125 q 506 1071 524 1071 z "},"Ô":{"ha":1011,"x_min":88,"x_max":924,"o":"m 483 0 q 396 14 444 0 q 299 49 347 28 q 212 94 250 69 q 156 139 174 118 q 104 267 121 185 q 88 449 88 350 q 96 608 88 529 q 118 751 104 686 q 147 851 132 815 q 220 900 176 874 q 317 949 264 926 q 430 986 371 972 q 549 1000 489 1000 q 630 988 583 1000 q 724 956 676 976 q 810 913 771 936 q 868 867 849 889 q 900 784 888 833 q 918 678 913 735 q 924 561 924 621 q 915 399 924 479 q 892 254 906 319 q 861 150 878 189 q 771 84 829 119 q 638 24 713 49 q 483 0 564 0 m 514 94 q 597 106 553 94 q 678 133 642 117 q 732 161 715 149 q 759 256 747 200 q 778 380 771 313 q 785 519 785 447 q 775 682 785 607 q 749 808 765 757 q 715 835 742 818 q 653 867 689 851 q 578 894 617 883 q 511 906 540 906 q 432 897 476 906 q 346 874 388 888 q 275 846 304 860 q 248 751 260 807 q 231 631 236 694 q 225 501 225 567 q 236 331 225 413 q 274 196 247 250 q 317 163 288 181 q 382 128 346 144 q 453 103 418 113 q 514 94 489 94 m 344 1071 q 322 1085 332 1076 q 307 1103 311 1094 q 397 1228 358 1176 q 463 1307 435 1279 q 506 1335 490 1335 q 550 1306 522 1335 q 616 1226 578 1278 q 704 1103 654 1174 q 690 1086 700 1096 q 665 1071 681 1076 l 506 1211 l 344 1071 z "},"Ố":{"ha":1011,"x_min":88,"x_max":924,"o":"m 483 0 q 396 14 444 0 q 299 49 347 28 q 212 94 250 69 q 156 139 174 118 q 104 267 121 185 q 88 449 88 350 q 96 608 88 529 q 118 751 104 686 q 147 851 132 815 q 220 900 176 874 q 317 949 264 926 q 430 986 371 972 q 549 1000 489 1000 q 630 988 583 1000 q 724 956 676 976 q 810 913 771 936 q 868 867 849 889 q 900 784 888 833 q 918 678 913 735 q 924 561 924 621 q 915 399 924 479 q 892 254 906 319 q 861 150 878 189 q 771 84 829 119 q 638 24 713 49 q 483 0 564 0 m 514 94 q 597 106 553 94 q 678 133 642 117 q 732 161 715 149 q 759 256 747 200 q 778 380 771 313 q 785 519 785 447 q 775 682 785 607 q 749 808 765 757 q 715 835 742 818 q 653 867 689 851 q 578 894 617 883 q 511 906 540 906 q 432 897 476 906 q 346 874 388 888 q 275 846 304 860 q 248 751 260 807 q 231 631 236 694 q 225 501 225 567 q 236 331 225 413 q 274 196 247 250 q 317 163 288 181 q 382 128 346 144 q 453 103 418 113 q 514 94 489 94 m 344 1071 q 322 1085 332 1076 q 307 1103 311 1094 q 397 1228 358 1176 q 463 1307 435 1279 q 506 1335 490 1335 q 550 1306 522 1335 q 616 1226 578 1278 q 704 1103 654 1174 q 690 1086 700 1096 q 665 1071 681 1076 l 506 1211 l 344 1071 m 411 1385 q 385 1399 397 1389 q 368 1417 374 1408 q 460 1537 415 1485 q 538 1618 504 1589 q 583 1647 571 1647 q 610 1635 593 1647 q 643 1603 628 1622 q 665 1565 658 1585 l 411 1385 z "},"Ộ":{"ha":1011,"x_min":88,"x_max":924,"o":"m 483 0 q 396 14 444 0 q 299 49 347 28 q 212 94 250 69 q 156 139 174 118 q 104 267 121 185 q 88 449 88 350 q 96 608 88 529 q 118 751 104 686 q 147 851 132 815 q 220 900 176 874 q 317 949 264 926 q 430 986 371 972 q 549 1000 489 1000 q 630 988 583 1000 q 724 956 676 976 q 810 913 771 936 q 868 867 849 889 q 900 784 888 833 q 918 678 913 735 q 924 561 924 621 q 915 399 924 479 q 892 254 906 319 q 861 150 878 189 q 771 84 829 119 q 638 24 713 49 q 483 0 564 0 m 514 94 q 597 106 553 94 q 678 133 642 117 q 732 161 715 149 q 759 256 747 200 q 778 380 771 313 q 785 519 785 447 q 775 682 785 607 q 749 808 765 757 q 715 835 742 818 q 653 867 689 851 q 578 894 617 883 q 511 906 540 906 q 432 897 476 906 q 346 874 388 888 q 275 846 304 860 q 248 751 260 807 q 231 631 236 694 q 225 501 225 567 q 236 331 225 413 q 274 196 247 250 q 317 163 288 181 q 382 128 346 144 q 453 103 418 113 q 514 94 489 94 m 496 -272 q 474 -261 488 -272 q 447 -233 460 -250 q 424 -200 433 -217 q 415 -174 415 -183 q 427 -151 415 -164 q 457 -126 439 -137 q 492 -106 475 -114 q 521 -97 510 -97 q 544 -109 531 -97 q 569 -137 557 -121 q 590 -171 582 -154 q 597 -199 597 -187 q 578 -228 597 -211 q 536 -259 560 -246 q 496 -272 513 -272 m 344 1071 q 322 1085 332 1076 q 307 1103 311 1094 q 397 1228 358 1176 q 463 1307 435 1279 q 506 1335 490 1335 q 550 1306 522 1335 q 616 1226 578 1278 q 704 1103 654 1174 q 690 1086 700 1096 q 665 1071 681 1076 l 506 1211 l 344 1071 z "},"Ồ":{"ha":1011,"x_min":88,"x_max":924,"o":"m 483 0 q 396 14 444 0 q 299 49 347 28 q 212 94 250 69 q 156 139 174 118 q 104 267 121 185 q 88 449 88 350 q 96 608 88 529 q 118 751 104 686 q 147 851 132 815 q 220 900 176 874 q 317 949 264 926 q 430 986 371 972 q 549 1000 489 1000 q 630 988 583 1000 q 724 956 676 976 q 810 913 771 936 q 868 867 849 889 q 900 784 888 833 q 918 678 913 735 q 924 561 924 621 q 915 399 924 479 q 892 254 906 319 q 861 150 878 189 q 771 84 829 119 q 638 24 713 49 q 483 0 564 0 m 514 94 q 597 106 553 94 q 678 133 642 117 q 732 161 715 149 q 759 256 747 200 q 778 380 771 313 q 785 519 785 447 q 775 682 785 607 q 749 808 765 757 q 715 835 742 818 q 653 867 689 851 q 578 894 617 883 q 511 906 540 906 q 432 897 476 906 q 346 874 388 888 q 275 846 304 860 q 248 751 260 807 q 231 631 236 694 q 225 501 225 567 q 236 331 225 413 q 274 196 247 250 q 317 163 288 181 q 382 128 346 144 q 453 103 418 113 q 514 94 489 94 m 344 1071 q 322 1085 332 1076 q 307 1103 311 1094 q 397 1228 358 1176 q 463 1307 435 1279 q 506 1335 490 1335 q 550 1306 522 1335 q 616 1226 578 1278 q 704 1103 654 1174 q 690 1086 700 1096 q 665 1071 681 1076 l 506 1211 l 344 1071 m 588 1385 l 335 1565 q 356 1603 342 1585 q 388 1634 371 1621 q 415 1647 406 1647 q 460 1619 428 1647 q 538 1538 493 1590 q 632 1417 583 1486 q 612 1397 625 1407 q 588 1385 599 1388 z "},"Ổ":{"ha":1011,"x_min":88,"x_max":924,"o":"m 483 0 q 396 14 444 0 q 299 49 347 28 q 212 94 250 69 q 156 139 174 118 q 104 267 121 185 q 88 449 88 350 q 96 608 88 529 q 118 751 104 686 q 147 851 132 815 q 220 900 176 874 q 317 949 264 926 q 430 986 371 972 q 549 1000 489 1000 q 630 988 583 1000 q 724 956 676 976 q 810 913 771 936 q 868 867 849 889 q 900 784 888 833 q 918 678 913 735 q 924 561 924 621 q 915 399 924 479 q 892 254 906 319 q 861 150 878 189 q 771 84 829 119 q 638 24 713 49 q 483 0 564 0 m 514 94 q 597 106 553 94 q 678 133 642 117 q 732 161 715 149 q 759 256 747 200 q 778 380 771 313 q 785 519 785 447 q 775 682 785 607 q 749 808 765 757 q 715 835 742 818 q 653 867 689 851 q 578 894 617 883 q 511 906 540 906 q 432 897 476 906 q 346 874 388 888 q 275 846 304 860 q 248 751 260 807 q 231 631 236 694 q 225 501 225 567 q 236 331 225 413 q 274 196 247 250 q 317 163 288 181 q 382 128 346 144 q 453 103 418 113 q 514 94 489 94 m 344 1071 q 322 1085 332 1076 q 307 1103 311 1094 q 397 1228 358 1176 q 463 1307 435 1279 q 506 1335 490 1335 q 550 1306 522 1335 q 616 1226 578 1278 q 704 1103 654 1174 q 690 1086 700 1096 q 665 1071 681 1076 l 506 1211 l 344 1071 m 479 1350 q 469 1397 474 1374 q 461 1443 464 1419 q 533 1458 511 1451 q 560 1483 554 1465 q 565 1538 565 1500 q 490 1549 525 1546 q 407 1551 454 1551 q 403 1568 406 1554 q 400 1590 400 1582 q 419 1605 406 1597 q 449 1618 433 1613 q 475 1624 465 1624 q 512 1617 488 1624 q 564 1601 536 1611 q 614 1576 592 1590 q 634 1528 628 1558 q 640 1475 640 1497 q 624 1449 640 1464 q 584 1419 608 1433 q 536 1400 560 1406 l 521 1350 l 479 1350 z "},"Ỗ":{"ha":1011,"x_min":88,"x_max":924,"o":"m 483 0 q 396 14 444 0 q 299 49 347 28 q 212 94 250 69 q 156 139 174 118 q 104 267 121 185 q 88 449 88 350 q 96 608 88 529 q 118 751 104 686 q 147 851 132 815 q 220 900 176 874 q 317 949 264 926 q 430 986 371 972 q 549 1000 489 1000 q 630 988 583 1000 q 724 956 676 976 q 810 913 771 936 q 868 867 849 889 q 900 784 888 833 q 918 678 913 735 q 924 561 924 621 q 915 399 924 479 q 892 254 906 319 q 861 150 878 189 q 771 84 829 119 q 638 24 713 49 q 483 0 564 0 m 514 94 q 597 106 553 94 q 678 133 642 117 q 732 161 715 149 q 759 256 747 200 q 778 380 771 313 q 785 519 785 447 q 775 682 785 607 q 749 808 765 757 q 715 835 742 818 q 653 867 689 851 q 578 894 617 883 q 511 906 540 906 q 432 897 476 906 q 346 874 388 888 q 275 846 304 860 q 248 751 260 807 q 231 631 236 694 q 225 501 225 567 q 236 331 225 413 q 274 196 247 250 q 317 163 288 181 q 382 128 346 144 q 453 103 418 113 q 514 94 489 94 m 344 1071 q 322 1085 332 1076 q 307 1103 311 1094 q 397 1228 358 1176 q 463 1307 435 1279 q 506 1335 490 1335 q 550 1306 522 1335 q 616 1226 578 1278 q 704 1103 654 1174 q 690 1086 700 1096 q 665 1071 681 1076 l 506 1211 l 344 1071 m 632 1400 q 572 1413 615 1400 q 477 1446 529 1426 q 381 1485 425 1465 l 279 1411 q 264 1420 272 1414 q 250 1439 256 1426 q 291 1499 268 1468 q 337 1553 314 1531 q 376 1575 360 1575 q 437 1562 393 1575 q 535 1531 481 1549 q 635 1494 589 1513 l 729 1581 q 751 1569 742 1576 q 764 1557 760 1563 q 722 1487 746 1524 q 673 1425 697 1450 q 632 1400 649 1400 z "},"Ȍ":{"ha":1011,"x_min":88,"x_max":924,"o":"m 483 0 q 396 14 444 0 q 299 49 347 28 q 212 94 250 69 q 156 139 174 118 q 104 267 121 185 q 88 449 88 350 q 96 608 88 529 q 118 751 104 686 q 147 851 132 815 q 220 900 176 874 q 317 949 264 926 q 430 986 371 972 q 549 1000 489 1000 q 630 988 583 1000 q 724 956 676 976 q 810 913 771 936 q 868 867 849 889 q 900 784 888 833 q 918 678 913 735 q 924 561 924 621 q 915 399 924 479 q 892 254 906 319 q 861 150 878 189 q 771 84 829 119 q 638 24 713 49 q 483 0 564 0 m 514 94 q 597 106 553 94 q 678 133 642 117 q 732 161 715 149 q 759 256 747 200 q 778 380 771 313 q 785 519 785 447 q 775 682 785 607 q 749 808 765 757 q 715 835 742 818 q 653 867 689 851 q 578 894 617 883 q 511 906 540 906 q 432 897 476 906 q 346 874 388 888 q 275 846 304 860 q 248 751 260 807 q 231 631 236 694 q 225 501 225 567 q 236 331 225 413 q 274 196 247 250 q 317 163 288 181 q 382 128 346 144 q 453 103 418 113 q 514 94 489 94 m 436 1068 l 193 1246 q 215 1284 200 1265 q 245 1315 229 1303 q 271 1326 261 1326 q 315 1298 283 1326 q 390 1218 347 1269 q 478 1099 433 1167 q 462 1081 474 1090 q 436 1068 450 1072 m 653 1068 l 408 1247 q 429 1283 415 1265 q 460 1314 443 1301 q 488 1326 476 1326 q 531 1298 499 1326 q 606 1218 563 1269 q 693 1099 650 1167 q 677 1081 689 1090 q 653 1068 665 1071 z "},"Ö":{"ha":1011,"x_min":88,"x_max":924,"o":"m 483 0 q 396 14 444 0 q 299 49 347 28 q 212 94 250 69 q 156 139 174 118 q 104 267 121 185 q 88 449 88 350 q 96 608 88 529 q 118 751 104 686 q 147 851 132 815 q 220 900 176 874 q 317 949 264 926 q 430 986 371 972 q 549 1000 489 1000 q 630 988 583 1000 q 724 956 676 976 q 810 913 771 936 q 868 867 849 889 q 900 784 888 833 q 918 678 913 735 q 924 561 924 621 q 915 399 924 479 q 892 254 906 319 q 861 150 878 189 q 771 84 829 119 q 638 24 713 49 q 483 0 564 0 m 514 94 q 597 106 553 94 q 678 133 642 117 q 732 161 715 149 q 759 256 747 200 q 778 380 771 313 q 785 519 785 447 q 775 682 785 607 q 749 808 765 757 q 715 835 742 818 q 653 867 689 851 q 578 894 617 883 q 511 906 540 906 q 432 897 476 906 q 346 874 388 888 q 275 846 304 860 q 248 751 260 807 q 231 631 236 694 q 225 501 225 567 q 236 331 225 413 q 274 196 247 250 q 317 163 288 181 q 382 128 346 144 q 453 103 418 113 q 514 94 489 94 m 635 1092 q 613 1102 626 1092 q 585 1129 599 1113 q 562 1162 571 1146 q 553 1188 553 1178 q 565 1211 553 1199 q 595 1235 578 1224 q 630 1256 613 1247 q 658 1264 647 1264 q 681 1252 668 1264 q 707 1224 694 1240 q 728 1191 719 1207 q 736 1164 736 1175 q 724 1143 736 1156 q 697 1119 713 1131 q 663 1099 681 1107 q 635 1092 646 1092 m 360 1092 q 337 1102 350 1092 q 310 1129 324 1113 q 287 1162 296 1146 q 278 1188 278 1178 q 290 1211 278 1199 q 320 1235 303 1224 q 355 1256 338 1247 q 383 1264 372 1264 q 406 1253 393 1264 q 432 1225 419 1242 q 453 1192 444 1208 q 461 1164 461 1175 q 450 1143 461 1156 q 422 1119 439 1131 q 388 1099 406 1107 q 360 1092 371 1092 z "},"Ȫ":{"ha":1011,"x_min":88,"x_max":924,"o":"m 483 0 q 396 14 444 0 q 299 49 347 28 q 212 94 250 69 q 156 139 174 118 q 104 267 121 185 q 88 449 88 350 q 96 608 88 529 q 118 751 104 686 q 147 851 132 815 q 220 900 176 874 q 317 949 264 926 q 430 986 371 972 q 549 1000 489 1000 q 630 988 583 1000 q 724 956 676 976 q 810 913 771 936 q 868 867 849 889 q 900 784 888 833 q 918 678 913 735 q 924 561 924 621 q 915 399 924 479 q 892 254 906 319 q 861 150 878 189 q 771 84 829 119 q 638 24 713 49 q 483 0 564 0 m 514 94 q 597 106 553 94 q 678 133 642 117 q 732 161 715 149 q 759 256 747 200 q 778 380 771 313 q 785 519 785 447 q 775 682 785 607 q 749 808 765 757 q 715 835 742 818 q 653 867 689 851 q 578 894 617 883 q 511 906 540 906 q 432 897 476 906 q 346 874 388 888 q 275 846 304 860 q 248 751 260 807 q 231 631 236 694 q 225 501 225 567 q 236 331 225 413 q 274 196 247 250 q 317 163 288 181 q 382 128 346 144 q 453 103 418 113 q 514 94 489 94 m 635 1092 q 613 1102 626 1092 q 585 1129 599 1113 q 562 1162 571 1146 q 553 1188 553 1178 q 565 1211 553 1199 q 595 1235 578 1224 q 630 1256 613 1247 q 658 1264 647 1264 q 681 1252 668 1264 q 707 1224 694 1240 q 728 1191 719 1207 q 736 1164 736 1175 q 724 1143 736 1156 q 697 1119 713 1131 q 663 1099 681 1107 q 635 1092 646 1092 m 360 1092 q 337 1102 350 1092 q 310 1129 324 1113 q 287 1162 296 1146 q 278 1188 278 1178 q 290 1211 278 1199 q 320 1235 303 1224 q 355 1256 338 1247 q 383 1264 372 1264 q 406 1253 393 1264 q 432 1225 419 1242 q 453 1192 444 1208 q 461 1164 461 1175 q 450 1143 461 1156 q 422 1119 439 1131 q 388 1099 406 1107 q 360 1092 371 1092 m 283 1361 q 289 1412 283 1392 q 300 1438 294 1432 q 403 1440 343 1438 q 527 1445 464 1442 q 641 1452 590 1449 q 715 1457 692 1456 l 731 1444 q 724 1394 729 1417 q 714 1361 718 1372 l 283 1361 z "},"Ȱ":{"ha":1011,"x_min":88,"x_max":924,"o":"m 483 0 q 396 14 444 0 q 299 49 347 28 q 212 94 250 69 q 156 139 174 118 q 104 267 121 185 q 88 449 88 350 q 96 608 88 529 q 118 751 104 686 q 147 851 132 815 q 220 900 176 874 q 317 949 264 926 q 430 986 371 972 q 549 1000 489 1000 q 630 988 583 1000 q 724 956 676 976 q 810 913 771 936 q 868 867 849 889 q 900 784 888 833 q 918 678 913 735 q 924 561 924 621 q 915 399 924 479 q 892 254 906 319 q 861 150 878 189 q 771 84 829 119 q 638 24 713 49 q 483 0 564 0 m 514 94 q 597 106 553 94 q 678 133 642 117 q 732 161 715 149 q 759 256 747 200 q 778 380 771 313 q 785 519 785 447 q 775 682 785 607 q 749 808 765 757 q 715 835 742 818 q 653 867 689 851 q 578 894 617 883 q 511 906 540 906 q 432 897 476 906 q 346 874 388 888 q 275 846 304 860 q 248 751 260 807 q 231 631 236 694 q 225 501 225 567 q 236 331 225 413 q 274 196 247 250 q 317 163 288 181 q 382 128 346 144 q 453 103 418 113 q 514 94 489 94 m 494 1118 q 472 1130 486 1118 q 443 1159 457 1142 q 419 1193 429 1176 q 410 1221 410 1210 q 423 1246 410 1232 q 454 1272 436 1260 q 490 1292 472 1283 q 519 1300 508 1300 q 544 1288 531 1300 q 570 1259 557 1276 q 592 1224 583 1242 q 601 1194 601 1206 q 590 1173 601 1186 q 560 1147 578 1160 q 525 1126 543 1135 q 494 1118 507 1118 m 283 1394 q 289 1445 283 1425 q 300 1471 294 1465 q 403 1473 343 1471 q 527 1478 464 1475 q 641 1485 590 1482 q 715 1490 692 1489 l 731 1478 q 724 1428 729 1450 q 714 1394 718 1406 l 283 1394 z "},"Ọ":{"ha":1011,"x_min":88,"x_max":924,"o":"m 483 0 q 396 14 444 0 q 299 49 347 28 q 212 94 250 69 q 156 139 174 118 q 104 267 121 185 q 88 449 88 350 q 96 608 88 529 q 118 751 104 686 q 147 851 132 815 q 220 900 176 874 q 317 949 264 926 q 430 986 371 972 q 549 1000 489 1000 q 630 988 583 1000 q 724 956 676 976 q 810 913 771 936 q 868 867 849 889 q 900 784 888 833 q 918 678 913 735 q 924 561 924 621 q 915 399 924 479 q 892 254 906 319 q 861 150 878 189 q 771 84 829 119 q 638 24 713 49 q 483 0 564 0 m 514 94 q 597 106 553 94 q 678 133 642 117 q 732 161 715 149 q 759 256 747 200 q 778 380 771 313 q 785 519 785 447 q 775 682 785 607 q 749 808 765 757 q 715 835 742 818 q 653 867 689 851 q 578 894 617 883 q 511 906 540 906 q 432 897 476 906 q 346 874 388 888 q 275 846 304 860 q 248 751 260 807 q 231 631 236 694 q 225 501 225 567 q 236 331 225 413 q 274 196 247 250 q 317 163 288 181 q 382 128 346 144 q 453 103 418 113 q 514 94 489 94 m 496 -272 q 474 -261 488 -272 q 447 -233 460 -250 q 424 -200 433 -217 q 415 -174 415 -183 q 427 -151 415 -164 q 457 -126 439 -137 q 492 -106 475 -114 q 521 -97 510 -97 q 544 -109 531 -97 q 569 -137 557 -121 q 590 -171 582 -154 q 597 -199 597 -187 q 578 -228 597 -211 q 536 -259 560 -246 q 496 -272 513 -272 z "},"Ò":{"ha":1011,"x_min":88,"x_max":924,"o":"m 483 0 q 396 14 444 0 q 299 49 347 28 q 212 94 250 69 q 156 139 174 118 q 104 267 121 185 q 88 449 88 350 q 96 608 88 529 q 118 751 104 686 q 147 851 132 815 q 220 900 176 874 q 317 949 264 926 q 430 986 371 972 q 549 1000 489 1000 q 630 988 583 1000 q 724 956 676 976 q 810 913 771 936 q 868 867 849 889 q 900 784 888 833 q 918 678 913 735 q 924 561 924 621 q 915 399 924 479 q 892 254 906 319 q 861 150 878 189 q 771 84 829 119 q 638 24 713 49 q 483 0 564 0 m 514 94 q 597 106 553 94 q 678 133 642 117 q 732 161 715 149 q 759 256 747 200 q 778 380 771 313 q 785 519 785 447 q 775 682 785 607 q 749 808 765 757 q 715 835 742 818 q 653 867 689 851 q 578 894 617 883 q 511 906 540 906 q 432 897 476 906 q 346 874 388 888 q 275 846 304 860 q 248 751 260 807 q 231 631 236 694 q 225 501 225 567 q 236 331 225 413 q 274 196 247 250 q 317 163 288 181 q 382 128 346 144 q 453 103 418 113 q 514 94 489 94 m 588 1068 l 335 1249 q 356 1286 342 1268 q 388 1317 371 1304 q 415 1331 406 1331 q 460 1302 428 1331 q 538 1222 493 1274 q 632 1100 583 1169 q 612 1081 625 1090 q 588 1068 599 1071 z "},"Ỏ":{"ha":1011,"x_min":88,"x_max":924,"o":"m 483 0 q 396 14 444 0 q 299 49 347 28 q 212 94 250 69 q 156 139 174 118 q 104 267 121 185 q 88 449 88 350 q 96 608 88 529 q 118 751 104 686 q 147 851 132 815 q 220 900 176 874 q 317 949 264 926 q 430 986 371 972 q 549 1000 489 1000 q 630 988 583 1000 q 724 956 676 976 q 810 913 771 936 q 868 867 849 889 q 900 784 888 833 q 918 678 913 735 q 924 561 924 621 q 915 399 924 479 q 892 254 906 319 q 861 150 878 189 q 771 84 829 119 q 638 24 713 49 q 483 0 564 0 m 514 94 q 597 106 553 94 q 678 133 642 117 q 732 161 715 149 q 759 256 747 200 q 778 380 771 313 q 785 519 785 447 q 775 682 785 607 q 749 808 765 757 q 715 835 742 818 q 653 867 689 851 q 578 894 617 883 q 511 906 540 906 q 432 897 476 906 q 346 874 388 888 q 275 846 304 860 q 248 751 260 807 q 231 631 236 694 q 225 501 225 567 q 236 331 225 413 q 274 196 247 250 q 317 163 288 181 q 382 128 346 144 q 453 103 418 113 q 514 94 489 94 m 479 1033 q 469 1080 474 1057 q 461 1126 464 1103 q 533 1142 511 1135 q 560 1166 554 1149 q 565 1221 565 1183 q 490 1232 525 1229 q 407 1235 454 1235 q 403 1251 406 1238 q 400 1274 400 1265 q 419 1288 406 1281 q 449 1301 433 1296 q 475 1307 465 1307 q 512 1301 488 1307 q 564 1284 536 1294 q 614 1260 592 1274 q 634 1211 628 1242 q 640 1158 640 1181 q 624 1132 640 1147 q 584 1103 608 1117 q 536 1083 560 1089 l 521 1033 l 479 1033 z "},"Ơ":{"ha":1011,"x_min":88,"x_max":924,"o":"m 483 0 q 396 14 444 0 q 299 49 347 28 q 212 94 250 69 q 156 139 174 118 q 104 267 121 185 q 88 449 88 350 q 96 608 88 529 q 118 751 104 686 q 147 851 132 815 q 220 900 176 874 q 317 949 264 926 q 430 986 371 972 q 549 1000 489 1000 q 630 988 583 1000 q 724 956 676 976 q 810 913 771 936 q 868 867 849 889 q 900 784 888 833 q 918 678 913 735 q 924 561 924 621 q 915 399 924 479 q 892 254 906 319 q 861 150 878 189 q 771 84 829 119 q 638 24 713 49 q 483 0 564 0 m 514 94 q 597 106 553 94 q 678 133 642 117 q 732 161 715 149 q 759 256 747 200 q 778 380 771 313 q 785 519 785 447 q 775 682 785 607 q 749 808 765 757 q 715 835 742 818 q 653 867 689 851 q 578 894 617 883 q 511 906 540 906 q 432 897 476 906 q 346 874 388 888 q 275 846 304 860 q 248 751 260 807 q 231 631 236 694 q 225 501 225 567 q 236 331 225 413 q 274 196 247 250 q 317 163 288 181 q 382 128 346 144 q 453 103 418 113 q 514 94 489 94 m 661 949 l 661 978 l 718 978 q 779 984 756 978 q 814 1005 803 990 q 825 1042 825 1019 q 819 1089 825 1060 q 806 1144 813 1118 q 833 1155 819 1151 q 857 1158 846 1158 q 878 1148 865 1158 q 902 1123 892 1138 q 913 1096 913 1108 q 896 1015 913 1050 q 838 960 879 979 q 719 940 796 940 q 692 942 710 940 q 661 949 675 943 z "},"Ớ":{"ha":1011,"x_min":88,"x_max":924,"o":"m 483 0 q 396 14 444 0 q 299 49 347 28 q 212 94 250 69 q 156 139 174 118 q 104 267 121 185 q 88 449 88 350 q 96 608 88 529 q 118 751 104 686 q 147 851 132 815 q 220 900 176 874 q 317 949 264 926 q 430 986 371 972 q 549 1000 489 1000 q 630 988 583 1000 q 724 956 676 976 q 810 913 771 936 q 868 867 849 889 q 900 784 888 833 q 918 678 913 735 q 924 561 924 621 q 915 399 924 479 q 892 254 906 319 q 861 150 878 189 q 771 84 829 119 q 638 24 713 49 q 483 0 564 0 m 514 94 q 597 106 553 94 q 678 133 642 117 q 732 161 715 149 q 759 256 747 200 q 778 380 771 313 q 785 519 785 447 q 775 682 785 607 q 749 808 765 757 q 715 835 742 818 q 653 867 689 851 q 578 894 617 883 q 511 906 540 906 q 432 897 476 906 q 346 874 388 888 q 275 846 304 860 q 248 751 260 807 q 231 631 236 694 q 225 501 225 567 q 236 331 225 413 q 274 196 247 250 q 317 163 288 181 q 382 128 346 144 q 453 103 418 113 q 514 94 489 94 m 661 949 l 661 978 l 718 978 q 779 984 756 978 q 814 1005 803 990 q 825 1042 825 1019 q 819 1089 825 1060 q 806 1144 813 1118 q 833 1155 819 1151 q 857 1158 846 1158 q 878 1148 865 1158 q 902 1123 892 1138 q 913 1096 913 1108 q 896 1015 913 1050 q 838 960 879 979 q 719 940 796 940 q 692 942 710 940 q 661 949 675 943 m 394 1068 q 369 1082 381 1072 q 351 1100 357 1092 q 443 1220 399 1168 q 521 1301 488 1272 q 567 1331 554 1331 q 594 1318 576 1331 q 626 1287 611 1306 q 649 1249 642 1268 l 394 1068 z "},"Ợ":{"ha":1011,"x_min":88,"x_max":924,"o":"m 483 0 q 396 14 444 0 q 299 49 347 28 q 212 94 250 69 q 156 139 174 118 q 104 267 121 185 q 88 449 88 350 q 96 608 88 529 q 118 751 104 686 q 147 851 132 815 q 220 900 176 874 q 317 949 264 926 q 430 986 371 972 q 549 1000 489 1000 q 630 988 583 1000 q 724 956 676 976 q 810 913 771 936 q 868 867 849 889 q 900 784 888 833 q 918 678 913 735 q 924 561 924 621 q 915 399 924 479 q 892 254 906 319 q 861 150 878 189 q 771 84 829 119 q 638 24 713 49 q 483 0 564 0 m 514 94 q 597 106 553 94 q 678 133 642 117 q 732 161 715 149 q 759 256 747 200 q 778 380 771 313 q 785 519 785 447 q 775 682 785 607 q 749 808 765 757 q 715 835 742 818 q 653 867 689 851 q 578 894 617 883 q 511 906 540 906 q 432 897 476 906 q 346 874 388 888 q 275 846 304 860 q 248 751 260 807 q 231 631 236 694 q 225 501 225 567 q 236 331 225 413 q 274 196 247 250 q 317 163 288 181 q 382 128 346 144 q 453 103 418 113 q 514 94 489 94 m 661 949 l 661 978 l 718 978 q 779 984 756 978 q 814 1005 803 990 q 825 1042 825 1019 q 819 1089 825 1060 q 806 1144 813 1118 q 833 1155 819 1151 q 857 1158 846 1158 q 878 1148 865 1158 q 902 1123 892 1138 q 913 1096 913 1108 q 896 1015 913 1050 q 838 960 879 979 q 719 940 796 940 q 692 942 710 940 q 661 949 675 943 m 479 -272 q 457 -261 471 -272 q 430 -233 443 -250 q 408 -200 417 -217 q 399 -174 399 -183 q 410 -151 399 -164 q 440 -126 422 -137 q 476 -106 458 -114 q 504 -97 493 -97 q 527 -109 514 -97 q 553 -137 540 -121 q 573 -171 565 -154 q 581 -199 581 -187 q 562 -228 581 -211 q 519 -259 543 -246 q 479 -272 496 -272 z "},"Ờ":{"ha":1011,"x_min":88,"x_max":924,"o":"m 483 0 q 396 14 444 0 q 299 49 347 28 q 212 94 250 69 q 156 139 174 118 q 104 267 121 185 q 88 449 88 350 q 96 608 88 529 q 118 751 104 686 q 147 851 132 815 q 220 900 176 874 q 317 949 264 926 q 430 986 371 972 q 549 1000 489 1000 q 630 988 583 1000 q 724 956 676 976 q 810 913 771 936 q 868 867 849 889 q 900 784 888 833 q 918 678 913 735 q 924 561 924 621 q 915 399 924 479 q 892 254 906 319 q 861 150 878 189 q 771 84 829 119 q 638 24 713 49 q 483 0 564 0 m 514 94 q 597 106 553 94 q 678 133 642 117 q 732 161 715 149 q 759 256 747 200 q 778 380 771 313 q 785 519 785 447 q 775 682 785 607 q 749 808 765 757 q 715 835 742 818 q 653 867 689 851 q 578 894 617 883 q 511 906 540 906 q 432 897 476 906 q 346 874 388 888 q 275 846 304 860 q 248 751 260 807 q 231 631 236 694 q 225 501 225 567 q 236 331 225 413 q 274 196 247 250 q 317 163 288 181 q 382 128 346 144 q 453 103 418 113 q 514 94 489 94 m 661 949 l 661 978 l 718 978 q 779 984 756 978 q 814 1005 803 990 q 825 1042 825 1019 q 819 1089 825 1060 q 806 1144 813 1118 q 833 1155 819 1151 q 857 1158 846 1158 q 878 1148 865 1158 q 902 1123 892 1138 q 913 1096 913 1108 q 896 1015 913 1050 q 838 960 879 979 q 719 940 796 940 q 692 942 710 940 q 661 949 675 943 m 571 1068 l 318 1249 q 340 1286 325 1268 q 372 1317 354 1304 q 399 1331 389 1331 q 444 1302 411 1331 q 522 1222 476 1274 q 615 1100 567 1169 q 595 1081 608 1090 q 571 1068 582 1071 z "},"Ở":{"ha":1011,"x_min":88,"x_max":924,"o":"m 483 0 q 396 14 444 0 q 299 49 347 28 q 212 94 250 69 q 156 139 174 118 q 104 267 121 185 q 88 449 88 350 q 96 608 88 529 q 118 751 104 686 q 147 851 132 815 q 220 900 176 874 q 317 949 264 926 q 430 986 371 972 q 549 1000 489 1000 q 630 988 583 1000 q 724 956 676 976 q 810 913 771 936 q 868 867 849 889 q 900 784 888 833 q 918 678 913 735 q 924 561 924 621 q 915 399 924 479 q 892 254 906 319 q 861 150 878 189 q 771 84 829 119 q 638 24 713 49 q 483 0 564 0 m 514 94 q 597 106 553 94 q 678 133 642 117 q 732 161 715 149 q 759 256 747 200 q 778 380 771 313 q 785 519 785 447 q 775 682 785 607 q 749 808 765 757 q 715 835 742 818 q 653 867 689 851 q 578 894 617 883 q 511 906 540 906 q 432 897 476 906 q 346 874 388 888 q 275 846 304 860 q 248 751 260 807 q 231 631 236 694 q 225 501 225 567 q 236 331 225 413 q 274 196 247 250 q 317 163 288 181 q 382 128 346 144 q 453 103 418 113 q 514 94 489 94 m 661 949 l 661 978 l 718 978 q 779 984 756 978 q 814 1005 803 990 q 825 1042 825 1019 q 819 1089 825 1060 q 806 1144 813 1118 q 833 1155 819 1151 q 857 1158 846 1158 q 878 1148 865 1158 q 902 1123 892 1138 q 913 1096 913 1108 q 896 1015 913 1050 q 838 960 879 979 q 719 940 796 940 q 692 942 710 940 q 661 949 675 943 m 463 1033 q 452 1080 457 1057 q 444 1126 447 1103 q 516 1142 494 1135 q 543 1166 538 1149 q 549 1221 549 1183 q 473 1232 508 1229 q 390 1235 438 1235 q 386 1251 389 1238 q 383 1274 383 1265 q 403 1288 389 1281 q 433 1301 417 1296 q 458 1307 449 1307 q 495 1301 471 1307 q 547 1284 519 1294 q 597 1260 575 1274 q 617 1211 611 1242 q 624 1158 624 1181 q 608 1132 624 1147 q 567 1103 592 1117 q 519 1083 543 1089 l 504 1033 l 463 1033 z "},"Ỡ":{"ha":1011,"x_min":88,"x_max":924,"o":"m 483 0 q 396 14 444 0 q 299 49 347 28 q 212 94 250 69 q 156 139 174 118 q 104 267 121 185 q 88 449 88 350 q 96 608 88 529 q 118 751 104 686 q 147 851 132 815 q 220 900 176 874 q 317 949 264 926 q 430 986 371 972 q 549 1000 489 1000 q 630 988 583 1000 q 724 956 676 976 q 810 913 771 936 q 868 867 849 889 q 900 784 888 833 q 918 678 913 735 q 924 561 924 621 q 915 399 924 479 q 892 254 906 319 q 861 150 878 189 q 771 84 829 119 q 638 24 713 49 q 483 0 564 0 m 514 94 q 597 106 553 94 q 678 133 642 117 q 732 161 715 149 q 759 256 747 200 q 778 380 771 313 q 785 519 785 447 q 775 682 785 607 q 749 808 765 757 q 715 835 742 818 q 653 867 689 851 q 578 894 617 883 q 511 906 540 906 q 432 897 476 906 q 346 874 388 888 q 275 846 304 860 q 248 751 260 807 q 231 631 236 694 q 225 501 225 567 q 236 331 225 413 q 274 196 247 250 q 317 163 288 181 q 382 128 346 144 q 453 103 418 113 q 514 94 489 94 m 661 949 l 661 978 l 718 978 q 779 984 756 978 q 814 1005 803 990 q 825 1042 825 1019 q 819 1089 825 1060 q 806 1144 813 1118 q 833 1155 819 1151 q 857 1158 846 1158 q 878 1148 865 1158 q 902 1123 892 1138 q 913 1096 913 1108 q 896 1015 913 1050 q 838 960 879 979 q 719 940 796 940 q 692 942 710 940 q 661 949 675 943 m 614 1083 q 554 1097 597 1083 q 459 1129 511 1110 q 363 1168 407 1149 l 261 1094 q 246 1103 254 1097 q 232 1122 238 1110 q 273 1183 250 1151 q 319 1236 296 1214 q 358 1258 342 1258 q 419 1245 375 1258 q 517 1214 463 1232 q 617 1178 571 1196 l 711 1264 q 733 1253 724 1260 q 746 1240 742 1246 q 703 1170 728 1207 q 655 1108 679 1133 q 614 1083 631 1083 z "},"Ő":{"ha":1011,"x_min":88,"x_max":924,"o":"m 483 0 q 396 14 444 0 q 299 49 347 28 q 212 94 250 69 q 156 139 174 118 q 104 267 121 185 q 88 449 88 350 q 96 608 88 529 q 118 751 104 686 q 147 851 132 815 q 220 900 176 874 q 317 949 264 926 q 430 986 371 972 q 549 1000 489 1000 q 630 988 583 1000 q 724 956 676 976 q 810 913 771 936 q 868 867 849 889 q 900 784 888 833 q 918 678 913 735 q 924 561 924 621 q 915 399 924 479 q 892 254 906 319 q 861 150 878 189 q 771 84 829 119 q 638 24 713 49 q 483 0 564 0 m 514 94 q 597 106 553 94 q 678 133 642 117 q 732 161 715 149 q 759 256 747 200 q 778 380 771 313 q 785 519 785 447 q 775 682 785 607 q 749 808 765 757 q 715 835 742 818 q 653 867 689 851 q 578 894 617 883 q 511 906 540 906 q 432 897 476 906 q 346 874 388 888 q 275 846 304 860 q 248 751 260 807 q 231 631 236 694 q 225 501 225 567 q 236 331 225 413 q 274 196 247 250 q 317 163 288 181 q 382 128 346 144 q 453 103 418 113 q 514 94 489 94 m 582 1068 q 556 1083 567 1074 q 538 1100 544 1092 q 629 1221 585 1168 q 707 1302 674 1274 q 753 1331 740 1331 q 780 1318 764 1331 q 812 1288 796 1306 q 833 1249 828 1269 l 582 1068 m 357 1068 q 333 1081 346 1071 q 314 1100 321 1090 q 406 1220 361 1168 q 483 1301 450 1272 q 529 1331 517 1331 q 556 1318 539 1331 q 589 1287 574 1306 q 611 1249 604 1268 l 357 1068 z "},"Ȏ":{"ha":1011,"x_min":88,"x_max":924,"o":"m 483 0 q 396 14 444 0 q 299 49 347 28 q 212 94 250 69 q 156 139 174 118 q 104 267 121 185 q 88 449 88 350 q 96 608 88 529 q 118 751 104 686 q 147 851 132 815 q 220 900 176 874 q 317 949 264 926 q 430 986 371 972 q 549 1000 489 1000 q 630 988 583 1000 q 724 956 676 976 q 810 913 771 936 q 868 867 849 889 q 900 784 888 833 q 918 678 913 735 q 924 561 924 621 q 915 399 924 479 q 892 254 906 319 q 861 150 878 189 q 771 84 829 119 q 638 24 713 49 q 483 0 564 0 m 514 94 q 597 106 553 94 q 678 133 642 117 q 732 161 715 149 q 759 256 747 200 q 778 380 771 313 q 785 519 785 447 q 775 682 785 607 q 749 808 765 757 q 715 835 742 818 q 653 867 689 851 q 578 894 617 883 q 511 906 540 906 q 432 897 476 906 q 346 874 388 888 q 275 846 304 860 q 248 751 260 807 q 231 631 236 694 q 225 501 225 567 q 236 331 225 413 q 274 196 247 250 q 317 163 288 181 q 382 128 346 144 q 453 103 418 113 q 514 94 489 94 m 507 1256 q 628 1212 589 1256 q 676 1093 667 1168 q 653 1085 668 1089 q 614 1081 638 1081 q 580 1154 604 1135 q 507 1174 556 1174 q 433 1154 457 1174 q 399 1081 410 1135 q 362 1085 378 1081 q 338 1093 346 1089 q 385 1210 346 1165 q 507 1256 424 1256 z "},"Ō":{"ha":1011,"x_min":88,"x_max":924,"o":"m 483 0 q 396 14 444 0 q 299 49 347 28 q 212 94 250 69 q 156 139 174 118 q 104 267 121 185 q 88 449 88 350 q 96 608 88 529 q 118 751 104 686 q 147 851 132 815 q 220 900 176 874 q 317 949 264 926 q 430 986 371 972 q 549 1000 489 1000 q 630 988 583 1000 q 724 956 676 976 q 810 913 771 936 q 868 867 849 889 q 900 784 888 833 q 918 678 913 735 q 924 561 924 621 q 915 399 924 479 q 892 254 906 319 q 861 150 878 189 q 771 84 829 119 q 638 24 713 49 q 483 0 564 0 m 514 94 q 597 106 553 94 q 678 133 642 117 q 732 161 715 149 q 759 256 747 200 q 778 380 771 313 q 785 519 785 447 q 775 682 785 607 q 749 808 765 757 q 715 835 742 818 q 653 867 689 851 q 578 894 617 883 q 511 906 540 906 q 432 897 476 906 q 346 874 388 888 q 275 846 304 860 q 248 751 260 807 q 231 631 236 694 q 225 501 225 567 q 236 331 225 413 q 274 196 247 250 q 317 163 288 181 q 382 128 346 144 q 453 103 418 113 q 514 94 489 94 m 283 1096 q 289 1147 283 1126 q 300 1172 294 1167 q 403 1174 343 1172 q 527 1180 464 1176 q 641 1187 590 1183 q 715 1192 692 1190 l 731 1179 q 724 1129 729 1151 q 714 1096 718 1107 l 283 1096 z "},"Ǫ":{"ha":1011,"x_min":88,"x_max":924,"o":"m 483 0 q 396 14 444 0 q 299 49 347 28 q 212 94 250 69 q 156 139 174 118 q 104 267 121 185 q 88 449 88 350 q 96 608 88 529 q 118 751 104 686 q 147 851 132 815 q 220 900 176 874 q 317 949 264 926 q 430 986 371 972 q 549 1000 489 1000 q 630 988 583 1000 q 724 956 676 976 q 810 913 771 936 q 868 867 849 889 q 900 784 888 833 q 918 678 913 735 q 924 561 924 621 q 915 399 924 479 q 892 254 906 319 q 861 150 878 189 q 771 84 829 119 q 638 24 713 49 q 483 0 564 0 m 514 94 q 597 106 553 94 q 678 133 642 117 q 732 161 715 149 q 759 256 747 200 q 778 380 771 313 q 785 519 785 447 q 775 682 785 607 q 749 808 765 757 q 715 835 742 818 q 653 867 689 851 q 578 894 617 883 q 511 906 540 906 q 432 897 476 906 q 346 874 388 888 q 275 846 304 860 q 248 751 260 807 q 231 631 236 694 q 225 501 225 567 q 236 331 225 413 q 274 196 247 250 q 317 163 288 181 q 382 128 346 144 q 453 103 418 113 q 514 94 489 94 m 503 -278 q 474 -270 496 -278 q 427 -249 453 -262 q 379 -217 401 -235 q 347 -179 357 -199 q 365 -108 347 -144 q 413 -39 383 -72 q 478 19 443 -6 l 571 19 q 506 -37 533 -4 q 465 -100 479 -71 q 450 -142 450 -129 q 528 -189 481 -175 q 626 -201 575 -203 q 633 -211 629 -204 q 638 -225 638 -218 q 576 -262 618 -247 q 503 -278 533 -278 z "},"Ø":{"ha":1011,"x_min":88,"x_max":924,"o":"m 311 -131 q 267 -122 286 -131 q 240 -106 249 -114 l 543 713 q 601 869 572 790 q 653 1017 629 949 q 692 1128 678 1085 q 744 1111 725 1124 q 769 1088 763 1099 l 311 -131 m 483 0 q 396 14 444 0 q 299 49 347 28 q 212 94 250 69 q 156 139 174 118 q 104 267 121 185 q 88 449 88 350 q 96 608 88 529 q 118 751 104 686 q 147 851 132 815 q 220 900 176 874 q 317 949 264 926 q 430 986 371 972 q 549 1000 489 1000 q 630 988 583 1000 q 724 956 676 976 q 810 913 771 936 q 868 867 849 889 q 900 784 888 833 q 918 678 913 735 q 924 561 924 621 q 915 399 924 479 q 892 254 906 319 q 861 150 878 189 q 771 84 829 119 q 638 24 713 49 q 483 0 564 0 m 514 94 q 597 106 553 94 q 678 133 642 117 q 732 161 715 149 q 759 256 747 200 q 778 380 771 313 q 785 519 785 447 q 775 682 785 607 q 749 808 765 757 q 715 835 742 818 q 653 867 689 851 q 578 894 617 883 q 511 906 540 906 q 432 897 476 906 q 346 874 388 888 q 275 846 304 860 q 248 751 260 807 q 231 631 236 694 q 225 501 225 567 q 236 331 225 413 q 274 196 247 250 q 317 163 288 181 q 382 128 346 144 q 453 103 418 113 q 514 94 489 94 z "},"Ǿ":{"ha":1011,"x_min":88,"x_max":924,"o":"m 311 -131 q 267 -122 286 -131 q 240 -106 249 -114 l 543 713 q 601 869 572 790 q 653 1017 629 949 q 692 1128 678 1085 q 744 1111 725 1124 q 769 1088 763 1099 l 311 -131 m 483 0 q 396 14 444 0 q 299 49 347 28 q 212 94 250 69 q 156 139 174 118 q 104 267 121 185 q 88 449 88 350 q 96 608 88 529 q 118 751 104 686 q 147 851 132 815 q 220 900 176 874 q 317 949 264 926 q 430 986 371 972 q 549 1000 489 1000 q 630 988 583 1000 q 724 956 676 976 q 810 913 771 936 q 868 867 849 889 q 900 784 888 833 q 918 678 913 735 q 924 561 924 621 q 915 399 924 479 q 892 254 906 319 q 861 150 878 189 q 771 84 829 119 q 638 24 713 49 q 483 0 564 0 m 514 94 q 597 106 553 94 q 678 133 642 117 q 732 161 715 149 q 759 256 747 200 q 778 380 771 313 q 785 519 785 447 q 775 682 785 607 q 749 808 765 757 q 715 835 742 818 q 653 867 689 851 q 578 894 617 883 q 511 906 540 906 q 432 897 476 906 q 346 874 388 888 q 275 846 304 860 q 248 751 260 807 q 231 631 236 694 q 225 501 225 567 q 236 331 225 413 q 274 196 247 250 q 317 163 288 181 q 382 128 346 144 q 453 103 418 113 q 514 94 489 94 m 394 1068 q 369 1082 381 1072 q 351 1100 357 1092 q 443 1220 399 1168 q 521 1301 488 1272 q 567 1331 554 1331 q 594 1318 576 1331 q 626 1287 611 1306 q 649 1249 642 1268 l 394 1068 z "},"Õ":{"ha":1011,"x_min":88,"x_max":924,"o":"m 483 0 q 396 14 444 0 q 299 49 347 28 q 212 94 250 69 q 156 139 174 118 q 104 267 121 185 q 88 449 88 350 q 96 608 88 529 q 118 751 104 686 q 147 851 132 815 q 220 900 176 874 q 317 949 264 926 q 430 986 371 972 q 549 1000 489 1000 q 630 988 583 1000 q 724 956 676 976 q 810 913 771 936 q 868 867 849 889 q 900 784 888 833 q 918 678 913 735 q 924 561 924 621 q 915 399 924 479 q 892 254 906 319 q 861 150 878 189 q 771 84 829 119 q 638 24 713 49 q 483 0 564 0 m 514 94 q 597 106 553 94 q 678 133 642 117 q 732 161 715 149 q 759 256 747 200 q 778 380 771 313 q 785 519 785 447 q 775 682 785 607 q 749 808 765 757 q 715 835 742 818 q 653 867 689 851 q 578 894 617 883 q 511 906 540 906 q 432 897 476 906 q 346 874 388 888 q 275 846 304 860 q 248 751 260 807 q 231 631 236 694 q 225 501 225 567 q 236 331 225 413 q 274 196 247 250 q 317 163 288 181 q 382 128 346 144 q 453 103 418 113 q 514 94 489 94 m 632 1083 q 572 1097 615 1083 q 477 1129 529 1110 q 381 1168 425 1149 l 279 1094 q 264 1103 272 1097 q 250 1122 256 1110 q 291 1183 268 1151 q 337 1236 314 1214 q 376 1258 360 1258 q 437 1245 393 1258 q 535 1214 481 1232 q 635 1178 589 1196 l 729 1264 q 751 1253 742 1260 q 764 1240 760 1246 q 722 1170 746 1207 q 673 1108 697 1133 q 632 1083 649 1083 z "},"Ȭ":{"ha":1011,"x_min":88,"x_max":924,"o":"m 483 0 q 396 14 444 0 q 299 49 347 28 q 212 94 250 69 q 156 139 174 118 q 104 267 121 185 q 88 449 88 350 q 96 608 88 529 q 118 751 104 686 q 147 851 132 815 q 220 900 176 874 q 317 949 264 926 q 430 986 371 972 q 549 1000 489 1000 q 630 988 583 1000 q 724 956 676 976 q 810 913 771 936 q 868 867 849 889 q 900 784 888 833 q 918 678 913 735 q 924 561 924 621 q 915 399 924 479 q 892 254 906 319 q 861 150 878 189 q 771 84 829 119 q 638 24 713 49 q 483 0 564 0 m 514 94 q 597 106 553 94 q 678 133 642 117 q 732 161 715 149 q 759 256 747 200 q 778 380 771 313 q 785 519 785 447 q 775 682 785 607 q 749 808 765 757 q 715 835 742 818 q 653 867 689 851 q 578 894 617 883 q 511 906 540 906 q 432 897 476 906 q 346 874 388 888 q 275 846 304 860 q 248 751 260 807 q 231 631 236 694 q 225 501 225 567 q 236 331 225 413 q 274 196 247 250 q 317 163 288 181 q 382 128 346 144 q 453 103 418 113 q 514 94 489 94 m 632 1083 q 572 1097 615 1083 q 477 1129 529 1110 q 381 1168 425 1149 l 279 1094 q 264 1103 272 1097 q 250 1122 256 1110 q 291 1183 268 1151 q 337 1236 314 1214 q 376 1258 360 1258 q 437 1245 393 1258 q 535 1214 481 1232 q 635 1178 589 1196 l 729 1264 q 751 1253 742 1260 q 764 1240 760 1246 q 722 1170 746 1207 q 673 1108 697 1133 q 632 1083 649 1083 m 283 1347 q 289 1398 283 1378 q 300 1424 294 1418 q 403 1426 343 1424 q 527 1431 464 1428 q 641 1438 590 1435 q 715 1443 692 1442 l 731 1431 q 724 1381 729 1403 q 714 1347 718 1358 l 283 1347 z "},"Œ":{"ha":1414,"x_min":88,"x_max":1331,"o":"m 483 0 q 396 14 444 0 q 299 49 347 28 q 212 94 250 69 q 156 139 174 118 q 104 267 121 183 q 88 449 88 350 q 96 607 88 528 q 118 750 104 686 q 147 850 132 814 q 220 900 176 874 q 317 949 264 926 q 430 986 371 972 q 549 1000 489 1000 q 615 994 575 1000 q 694 978 656 988 l 1199 978 q 1267 949 1232 968 q 1324 907 1303 929 q 1307 769 1319 829 q 1286 679 1294 710 q 1242 684 1260 679 q 1215 693 1224 689 l 1182 888 q 1111 897 1156 892 q 1015 906 1067 901 q 913 910 964 910 q 860 895 878 910 q 837 856 843 881 q 831 800 831 831 l 831 542 q 940 546 886 543 q 1042 552 993 549 q 1132 560 1092 556 l 1146 547 q 1139 499 1143 522 q 1129 468 1135 476 l 831 468 l 831 185 q 823 127 831 151 q 807 93 815 103 l 1189 93 l 1261 319 q 1303 313 1285 319 q 1331 297 1322 306 q 1328 217 1331 260 q 1321 133 1325 174 q 1314 61 1317 93 q 1281 36 1301 50 q 1238 12 1260 22 q 1201 0 1215 1 q 1118 2 1167 0 q 1014 8 1069 4 q 899 16 958 11 q 784 26 840 21 q 681 38 728 32 q 585 10 636 21 q 483 0 533 0 m 514 94 q 606 105 556 94 q 700 131 657 115 l 700 865 q 642 885 676 876 q 572 899 607 893 q 511 906 536 906 q 432 897 476 906 q 346 874 388 888 q 275 846 304 860 q 248 752 260 808 q 231 631 236 696 q 225 501 225 567 q 236 331 225 413 q 274 196 247 250 q 316 163 288 181 q 381 128 344 144 q 453 103 418 113 q 514 94 488 94 z "},"P":{"ha":854,"x_min":69,"x_max":804,"o":"m 335 0 q 299 3 326 0 q 239 12 272 7 q 171 22 206 17 q 109 34 136 28 q 69 44 82 40 q 74 64 69 54 q 83 78 78 74 l 121 83 q 162 99 147 88 q 182 137 176 110 q 188 217 188 164 l 188 797 q 192 856 188 833 q 202 892 196 879 q 213 907 208 904 l 85 907 q 75 919 79 911 q 69 935 71 926 q 93 954 76 944 q 127 971 110 964 q 151 978 144 978 l 603 978 q 669 953 635 969 q 733 917 703 938 q 783 875 764 897 q 799 819 794 853 q 804 747 804 785 q 797 648 804 697 q 777 559 790 599 q 746 503 764 519 q 697 467 728 486 q 626 432 665 447 q 544 411 588 417 l 319 411 l 319 182 q 311 124 319 149 q 296 90 303 100 l 435 75 q 442 63 439 72 q 444 44 444 54 q 394 14 426 28 q 335 0 361 0 m 319 490 q 493 495 417 492 q 622 506 569 499 q 649 560 639 528 q 665 632 660 593 q 671 713 671 671 q 661 813 671 767 q 628 883 651 860 q 565 898 603 893 q 485 906 526 903 q 410 910 443 910 q 357 896 376 910 q 328 858 338 882 q 319 800 319 833 l 319 490 z "},"Þ":{"ha":836,"x_min":69,"x_max":796,"o":"m 335 0 q 299 3 326 0 q 239 12 272 7 q 171 22 206 17 q 109 34 136 28 q 69 44 82 40 q 74 64 69 54 q 83 78 78 74 l 121 83 q 162 98 147 88 q 182 136 176 108 q 188 217 188 164 l 188 797 q 192 856 188 833 q 202 892 196 879 q 213 907 208 904 l 85 907 q 75 919 79 911 q 69 935 71 926 q 93 954 76 944 q 127 971 110 964 q 151 978 144 978 l 431 978 q 443 960 438 972 q 449 932 449 947 l 390 914 q 334 876 349 900 q 319 793 319 851 l 319 750 l 600 750 q 663 726 629 742 q 726 689 696 710 q 775 646 756 668 q 790 594 785 624 q 796 533 796 564 q 781 431 796 482 q 743 351 767 381 q 694 317 726 336 q 623 282 663 297 q 542 261 583 267 l 319 261 l 319 182 q 311 124 319 149 q 296 90 303 100 l 433 75 q 440 63 436 72 q 443 44 443 54 q 391 13 422 26 q 335 0 360 0 m 319 336 q 491 342 414 338 q 621 356 568 347 q 650 427 639 383 q 661 518 661 471 q 652 598 661 563 q 626 656 643 633 q 564 669 601 664 q 485 678 526 675 q 410 681 444 681 q 340 651 360 681 q 319 572 319 622 l 319 336 z "},"Q":{"ha":1011,"x_min":88,"x_max":924,"o":"m 724 -278 q 663 -265 703 -278 q 576 -231 624 -253 q 481 -185 528 -210 q 399 -135 435 -160 q 346 -89 363 -110 q 369 -31 349 -64 q 408 24 389 1 l 476 19 l 458 -51 q 522 -91 481 -68 q 615 -135 564 -114 q 717 -169 665 -156 q 813 -182 769 -182 l 867 -182 q 876 -196 872 -186 q 879 -217 879 -206 q 837 -246 865 -232 q 778 -269 808 -260 q 724 -278 747 -278 m 483 0 q 396 14 444 0 q 299 49 347 28 q 212 94 250 69 q 156 139 174 118 q 104 267 121 185 q 88 449 88 350 q 96 608 88 529 q 118 751 104 686 q 147 851 132 815 q 220 900 176 874 q 317 949 264 926 q 430 986 371 972 q 549 1000 489 1000 q 630 988 583 1000 q 724 956 676 976 q 810 913 771 936 q 868 867 849 889 q 900 784 888 833 q 918 678 913 735 q 924 561 924 621 q 915 399 924 479 q 892 254 906 319 q 861 150 878 189 q 771 84 829 119 q 638 24 713 49 q 483 0 564 0 m 514 94 q 597 106 553 94 q 678 133 642 117 q 732 161 715 149 q 759 256 747 200 q 778 380 771 313 q 785 519 785 447 q 775 682 785 607 q 749 808 765 757 q 715 835 742 818 q 653 867 689 851 q 578 894 617 883 q 511 906 540 906 q 432 897 476 906 q 346 874 388 888 q 275 846 304 860 q 248 751 260 807 q 231 631 236 694 q 225 501 225 567 q 236 331 225 413 q 274 196 247 250 q 317 163 288 181 q 382 128 346 144 q 453 103 418 113 q 514 94 489 94 z "},"R":{"ha":939,"x_min":69,"x_max":932,"o":"m 335 0 q 299 3 326 0 q 239 12 272 7 q 171 22 206 17 q 109 34 136 28 q 69 44 82 40 q 74 64 69 54 q 83 78 78 74 l 121 83 q 163 99 149 88 q 183 138 178 111 q 188 217 188 165 l 188 797 q 192 856 188 833 q 202 892 196 879 q 213 907 208 904 l 85 907 q 75 919 79 911 q 69 935 71 926 q 93 954 76 944 q 127 971 110 964 q 151 978 144 978 l 624 978 q 689 954 656 969 q 752 919 722 939 q 801 878 782 900 q 818 824 813 856 q 824 758 824 793 q 816 667 824 711 q 795 587 808 622 q 764 535 782 551 q 720 508 749 521 q 658 483 692 494 q 593 463 624 471 l 593 457 q 621 430 610 444 q 649 385 632 415 l 725 246 q 772 166 750 201 q 823 109 794 131 q 892 86 851 88 l 919 85 q 928 71 924 81 q 932 47 932 61 q 890 20 914 31 q 842 5 867 10 q 797 0 818 0 q 692 43 733 0 q 619 154 651 86 l 511 385 q 482 430 497 415 q 438 444 467 444 l 319 444 l 319 182 q 311 124 319 149 q 296 90 303 100 l 435 75 q 442 63 439 72 q 444 44 444 54 q 394 14 426 28 q 335 0 361 0 m 319 521 q 440 523 381 521 q 552 529 500 525 q 640 538 604 533 q 677 624 665 569 q 689 732 689 678 q 678 820 689 781 q 647 883 668 860 q 581 898 622 893 q 497 906 540 903 q 419 910 454 910 q 344 881 368 910 q 319 800 319 853 l 319 521 z "},"Ŕ":{"ha":939,"x_min":69,"x_max":932,"o":"m 335 0 q 299 3 326 0 q 239 12 272 7 q 171 22 206 17 q 109 34 136 28 q 69 44 82 40 q 74 64 69 54 q 83 78 78 74 l 121 83 q 163 99 149 88 q 183 138 178 111 q 188 217 188 165 l 188 797 q 192 856 188 833 q 202 892 196 879 q 213 907 208 904 l 85 907 q 75 919 79 911 q 69 935 71 926 q 93 954 76 944 q 127 971 110 964 q 151 978 144 978 l 624 978 q 689 954 656 969 q 752 919 722 939 q 801 878 782 900 q 818 824 813 856 q 824 758 824 793 q 816 667 824 711 q 795 587 808 622 q 764 535 782 551 q 720 508 749 521 q 658 483 692 494 q 593 463 624 471 l 593 457 q 621 430 610 444 q 649 385 632 415 l 725 246 q 772 166 750 201 q 823 109 794 131 q 892 86 851 88 l 919 85 q 928 71 924 81 q 932 47 932 61 q 890 20 914 31 q 842 5 867 10 q 797 0 818 0 q 692 43 733 0 q 619 154 651 86 l 511 385 q 482 430 497 415 q 438 444 467 444 l 319 444 l 319 182 q 311 124 319 149 q 296 90 303 100 l 435 75 q 442 63 439 72 q 444 44 444 54 q 394 14 426 28 q 335 0 361 0 m 319 521 q 440 523 381 521 q 552 529 500 525 q 640 538 604 533 q 677 624 665 569 q 689 732 689 678 q 678 820 689 781 q 647 883 668 860 q 581 898 622 893 q 497 906 540 903 q 419 910 454 910 q 344 881 368 910 q 319 800 319 853 l 319 521 m 375 1068 q 349 1082 361 1072 q 332 1100 338 1092 q 424 1220 379 1168 q 501 1301 468 1272 q 547 1331 535 1331 q 574 1318 557 1331 q 607 1287 592 1306 q 629 1249 622 1268 l 375 1068 z "},"Ř":{"ha":939,"x_min":69,"x_max":932,"o":"m 335 0 q 299 3 326 0 q 239 12 272 7 q 171 22 206 17 q 109 34 136 28 q 69 44 82 40 q 74 64 69 54 q 83 78 78 74 l 121 83 q 163 99 149 88 q 183 138 178 111 q 188 217 188 165 l 188 797 q 192 856 188 833 q 202 892 196 879 q 213 907 208 904 l 85 907 q 75 919 79 911 q 69 935 71 926 q 93 954 76 944 q 127 971 110 964 q 151 978 144 978 l 624 978 q 689 954 656 969 q 752 919 722 939 q 801 878 782 900 q 818 824 813 856 q 824 758 824 793 q 816 667 824 711 q 795 587 808 622 q 764 535 782 551 q 720 508 749 521 q 658 483 692 494 q 593 463 624 471 l 593 457 q 621 430 610 444 q 649 385 632 415 l 725 246 q 772 166 750 201 q 823 109 794 131 q 892 86 851 88 l 919 85 q 928 71 924 81 q 932 47 932 61 q 890 20 914 31 q 842 5 867 10 q 797 0 818 0 q 692 43 733 0 q 619 154 651 86 l 511 385 q 482 430 497 415 q 438 444 467 444 l 319 444 l 319 182 q 311 124 319 149 q 296 90 303 100 l 435 75 q 442 63 439 72 q 444 44 444 54 q 394 14 426 28 q 335 0 361 0 m 319 521 q 440 523 381 521 q 552 529 500 525 q 640 538 604 533 q 677 624 665 569 q 689 732 689 678 q 678 820 689 781 q 647 883 668 860 q 581 898 622 893 q 497 906 540 903 q 419 910 454 910 q 344 881 368 910 q 319 800 319 853 l 319 521 m 469 1071 q 424 1099 451 1071 q 359 1178 397 1126 q 271 1297 321 1229 q 286 1316 275 1306 q 310 1329 297 1326 l 471 1192 l 629 1329 q 653 1316 643 1325 q 668 1299 664 1307 q 579 1176 617 1228 q 515 1098 542 1125 q 469 1071 488 1071 z "},"Ŗ":{"ha":939,"x_min":69,"x_max":932,"o":"m 335 0 q 299 3 326 0 q 239 12 272 7 q 171 22 206 17 q 109 34 136 28 q 69 44 82 40 q 74 64 69 54 q 83 78 78 74 l 121 83 q 163 99 149 88 q 183 138 178 111 q 188 217 188 165 l 188 797 q 192 856 188 833 q 202 892 196 879 q 213 907 208 904 l 85 907 q 75 919 79 911 q 69 935 71 926 q 93 954 76 944 q 127 971 110 964 q 151 978 144 978 l 624 978 q 689 954 656 969 q 752 919 722 939 q 801 878 782 900 q 818 824 813 856 q 824 758 824 793 q 816 667 824 711 q 795 587 808 622 q 764 535 782 551 q 720 508 749 521 q 658 483 692 494 q 593 463 624 471 l 593 457 q 621 430 610 444 q 649 385 632 415 l 725 246 q 772 166 750 201 q 823 109 794 131 q 892 86 851 88 l 919 85 q 928 71 924 81 q 932 47 932 61 q 890 20 914 31 q 842 5 867 10 q 797 0 818 0 q 692 43 733 0 q 619 154 651 86 l 511 385 q 482 430 497 415 q 438 444 467 444 l 319 444 l 319 182 q 311 124 319 149 q 296 90 303 100 l 435 75 q 442 63 439 72 q 444 44 444 54 q 394 14 426 28 q 335 0 361 0 m 319 521 q 440 523 381 521 q 552 529 500 525 q 640 538 604 533 q 677 624 665 569 q 689 732 689 678 q 678 820 689 781 q 647 883 668 860 q 581 898 622 893 q 497 906 540 903 q 419 910 454 910 q 344 881 368 910 q 319 800 319 853 l 319 521 m 444 -347 q 411 -337 426 -347 q 389 -317 396 -326 q 435 -279 410 -303 q 472 -228 461 -256 l 492 -258 q 458 -247 478 -258 q 421 -219 439 -236 q 391 -182 403 -201 q 379 -146 379 -162 q 391 -123 379 -136 q 421 -99 403 -110 q 456 -79 439 -87 q 483 -71 474 -71 q 507 -83 494 -71 q 532 -110 519 -94 q 552 -144 544 -126 q 560 -172 560 -161 q 545 -210 560 -182 q 509 -269 531 -237 q 469 -324 488 -301 q 444 -347 451 -347 z "},"Ȑ":{"ha":939,"x_min":69,"x_max":932,"o":"m 335 0 q 299 3 326 0 q 239 12 272 7 q 171 22 206 17 q 109 34 136 28 q 69 44 82 40 q 74 64 69 54 q 83 78 78 74 l 121 83 q 163 99 149 88 q 183 138 178 111 q 188 217 188 165 l 188 797 q 192 856 188 833 q 202 892 196 879 q 213 907 208 904 l 85 907 q 75 919 79 911 q 69 935 71 926 q 93 954 76 944 q 127 971 110 964 q 151 978 144 978 l 624 978 q 689 954 656 969 q 752 919 722 939 q 801 878 782 900 q 818 824 813 856 q 824 758 824 793 q 816 667 824 711 q 795 587 808 622 q 764 535 782 551 q 720 508 749 521 q 658 483 692 494 q 593 463 624 471 l 593 457 q 621 430 610 444 q 649 385 632 415 l 725 246 q 772 166 750 201 q 823 109 794 131 q 892 86 851 88 l 919 85 q 928 71 924 81 q 932 47 932 61 q 890 20 914 31 q 842 5 867 10 q 797 0 818 0 q 692 43 733 0 q 619 154 651 86 l 511 385 q 482 430 497 415 q 438 444 467 444 l 319 444 l 319 182 q 311 124 319 149 q 296 90 303 100 l 435 75 q 442 63 439 72 q 444 44 444 54 q 394 14 426 28 q 335 0 361 0 m 319 521 q 440 523 381 521 q 552 529 500 525 q 640 538 604 533 q 677 624 665 569 q 689 732 689 678 q 678 820 689 781 q 647 883 668 860 q 581 898 622 893 q 497 906 540 903 q 419 910 454 910 q 344 881 368 910 q 319 800 319 853 l 319 521 m 400 1068 l 157 1246 q 178 1284 164 1265 q 209 1315 193 1303 q 235 1326 225 1326 q 279 1298 247 1326 q 354 1218 311 1269 q 442 1099 397 1167 q 426 1081 438 1090 q 400 1068 414 1072 m 617 1068 l 372 1247 q 393 1283 379 1265 q 424 1314 407 1301 q 451 1326 440 1326 q 494 1298 463 1326 q 570 1218 526 1269 q 657 1099 614 1167 q 641 1081 653 1090 q 617 1068 629 1071 z "},"Ȓ":{"ha":939,"x_min":69,"x_max":932,"o":"m 335 0 q 299 3 326 0 q 239 12 272 7 q 171 22 206 17 q 109 34 136 28 q 69 44 82 40 q 74 64 69 54 q 83 78 78 74 l 121 83 q 163 99 149 88 q 183 138 178 111 q 188 217 188 165 l 188 797 q 192 856 188 833 q 202 892 196 879 q 213 907 208 904 l 85 907 q 75 919 79 911 q 69 935 71 926 q 93 954 76 944 q 127 971 110 964 q 151 978 144 978 l 624 978 q 689 954 656 969 q 752 919 722 939 q 801 878 782 900 q 818 824 813 856 q 824 758 824 793 q 816 667 824 711 q 795 587 808 622 q 764 535 782 551 q 720 508 749 521 q 658 483 692 494 q 593 463 624 471 l 593 457 q 621 430 610 444 q 649 385 632 415 l 725 246 q 772 166 750 201 q 823 109 794 131 q 892 86 851 88 l 919 85 q 928 71 924 81 q 932 47 932 61 q 890 20 914 31 q 842 5 867 10 q 797 0 818 0 q 692 43 733 0 q 619 154 651 86 l 511 385 q 482 430 497 415 q 438 444 467 444 l 319 444 l 319 182 q 311 124 319 149 q 296 90 303 100 l 435 75 q 442 63 439 72 q 444 44 444 54 q 394 14 426 28 q 335 0 361 0 m 319 521 q 440 523 381 521 q 552 529 500 525 q 640 538 604 533 q 677 624 665 569 q 689 732 689 678 q 678 820 689 781 q 647 883 668 860 q 581 898 622 893 q 497 906 540 903 q 419 910 454 910 q 344 881 368 910 q 319 800 319 853 l 319 521 m 471 1256 q 592 1212 553 1256 q 640 1093 631 1168 q 617 1085 632 1089 q 578 1081 601 1081 q 544 1154 568 1135 q 471 1174 519 1174 q 397 1154 421 1174 q 363 1081 374 1135 q 326 1085 342 1081 q 301 1093 310 1089 q 349 1210 310 1165 q 471 1256 388 1256 z "},"S":{"ha":847,"x_min":94,"x_max":763,"o":"m 392 0 q 319 9 361 0 q 234 33 278 18 q 153 67 190 49 q 94 103 117 86 q 102 192 96 146 q 117 281 108 239 q 132 349 125 322 q 176 344 157 349 q 203 338 196 340 l 235 149 q 294 125 260 136 q 367 107 329 114 q 429 100 404 100 q 488 106 456 100 q 551 122 519 113 q 601 142 582 132 q 621 205 614 167 q 628 283 628 243 q 626 333 628 307 q 618 381 624 360 q 516 415 576 396 q 390 454 456 433 q 264 497 324 475 q 163 539 204 518 q 113 581 122 560 q 107 619 110 597 q 104 664 104 640 q 115 785 104 724 q 139 881 125 846 q 201 922 163 900 q 283 960 239 943 q 372 989 328 978 q 449 1000 415 1000 q 550 988 497 1000 q 650 957 603 976 q 728 915 697 938 q 724 854 728 888 q 714 788 719 821 q 702 727 708 754 q 690 682 696 700 q 648 688 668 682 q 618 697 628 693 l 590 872 q 538 888 565 881 q 480 900 510 896 q 417 904 450 904 q 368 901 394 904 q 316 892 342 899 q 265 878 290 886 q 246 804 251 849 q 240 715 240 760 q 242 676 240 694 q 244 642 243 657 q 338 609 278 628 q 467 569 399 590 q 600 527 536 549 q 706 483 664 506 q 754 439 749 460 q 761 389 760 413 q 763 336 763 365 q 755 225 763 274 q 731 129 747 176 q 678 92 714 114 q 592 49 642 69 q 491 14 543 28 q 392 0 439 0 z "},"Ś":{"ha":847,"x_min":94,"x_max":763,"o":"m 392 0 q 319 9 361 0 q 234 33 278 18 q 153 67 190 49 q 94 103 117 86 q 102 192 96 146 q 117 281 108 239 q 132 349 125 322 q 176 344 157 349 q 203 338 196 340 l 235 149 q 294 125 260 136 q 367 107 329 114 q 429 100 404 100 q 488 106 456 100 q 551 122 519 113 q 601 142 582 132 q 621 205 614 167 q 628 283 628 243 q 626 333 628 307 q 618 381 624 360 q 516 415 576 396 q 390 454 456 433 q 264 497 324 475 q 163 539 204 518 q 113 581 122 560 q 107 619 110 597 q 104 664 104 640 q 115 785 104 724 q 139 881 125 846 q 201 922 163 900 q 283 960 239 943 q 372 989 328 978 q 449 1000 415 1000 q 550 988 497 1000 q 650 957 603 976 q 728 915 697 938 q 724 854 728 888 q 714 788 719 821 q 702 727 708 754 q 690 682 696 700 q 648 688 668 682 q 618 697 628 693 l 590 872 q 538 888 565 881 q 480 900 510 896 q 417 904 450 904 q 368 901 394 904 q 316 892 342 899 q 265 878 290 886 q 246 804 251 849 q 240 715 240 760 q 242 676 240 694 q 244 642 243 657 q 338 609 278 628 q 467 569 399 590 q 600 527 536 549 q 706 483 664 506 q 754 439 749 460 q 761 389 760 413 q 763 336 763 365 q 755 225 763 274 q 731 129 747 176 q 678 92 714 114 q 592 49 642 69 q 491 14 543 28 q 392 0 439 0 m 329 1068 q 303 1082 315 1072 q 286 1100 292 1092 q 378 1220 333 1168 q 456 1301 422 1272 q 501 1331 489 1331 q 528 1318 511 1331 q 561 1287 546 1306 q 583 1249 576 1268 l 329 1068 z "},"Ꞌ":{"ha":258,"x_min":17,"x_max":217,"o":"m 81 586 l 81 953 q 70 981 81 971 q 17 1010 60 990 q 22 1039 18 1028 q 29 1053 26 1050 q 73 1063 46 1057 q 126 1072 100 1068 q 164 1075 151 1075 q 202 1061 188 1075 q 217 1026 217 1047 q 213 988 217 1018 q 207 938 210 958 l 156 604 q 127 592 147 597 q 81 586 107 586 z "},"Š":{"ha":847,"x_min":94,"x_max":763,"o":"m 392 0 q 319 9 361 0 q 234 33 278 18 q 153 67 190 49 q 94 103 117 86 q 102 192 96 146 q 117 281 108 239 q 132 349 125 322 q 176 344 157 349 q 203 338 196 340 l 235 149 q 294 125 260 136 q 367 107 329 114 q 429 100 404 100 q 488 106 456 100 q 551 122 519 113 q 601 142 582 132 q 621 205 614 167 q 628 283 628 243 q 626 333 628 307 q 618 381 624 360 q 516 415 576 396 q 390 454 456 433 q 264 497 324 475 q 163 539 204 518 q 113 581 122 560 q 107 619 110 597 q 104 664 104 640 q 115 785 104 724 q 139 881 125 846 q 201 922 163 900 q 283 960 239 943 q 372 989 328 978 q 449 1000 415 1000 q 550 988 497 1000 q 650 957 603 976 q 728 915 697 938 q 724 854 728 888 q 714 788 719 821 q 702 727 708 754 q 690 682 696 700 q 648 688 668 682 q 618 697 628 693 l 590 872 q 538 888 565 881 q 480 900 510 896 q 417 904 450 904 q 368 901 394 904 q 316 892 342 899 q 265 878 290 886 q 246 804 251 849 q 240 715 240 760 q 242 676 240 694 q 244 642 243 657 q 338 609 278 628 q 467 569 399 590 q 600 527 536 549 q 706 483 664 506 q 754 439 749 460 q 761 389 760 413 q 763 336 763 365 q 755 225 763 274 q 731 129 747 176 q 678 92 714 114 q 592 49 642 69 q 491 14 543 28 q 392 0 439 0 m 424 1071 q 378 1099 406 1071 q 313 1178 351 1126 q 225 1297 275 1229 q 240 1316 229 1306 q 264 1329 251 1326 l 425 1192 l 583 1329 q 608 1316 597 1325 q 622 1299 618 1307 q 533 1176 571 1228 q 469 1098 496 1125 q 424 1071 442 1071 z "},"Ş":{"ha":847,"x_min":94,"x_max":763,"o":"m 392 0 q 319 9 361 0 q 234 33 278 18 q 153 67 190 49 q 94 103 117 86 q 102 192 96 146 q 117 281 108 239 q 132 349 125 322 q 176 344 157 349 q 203 338 196 340 l 235 149 q 294 125 260 136 q 367 107 329 114 q 429 100 404 100 q 488 106 456 100 q 551 122 519 113 q 601 142 582 132 q 621 205 614 167 q 628 283 628 243 q 626 333 628 307 q 618 381 624 360 q 516 415 576 396 q 390 454 456 433 q 264 497 324 475 q 163 539 204 518 q 113 581 122 560 q 107 619 110 597 q 104 664 104 640 q 115 785 104 724 q 139 881 125 846 q 201 922 163 900 q 283 960 239 943 q 372 989 328 978 q 449 1000 415 1000 q 550 988 497 1000 q 650 957 603 976 q 728 915 697 938 q 724 854 728 888 q 714 788 719 821 q 702 727 708 754 q 690 682 696 700 q 648 688 668 682 q 618 697 628 693 l 590 872 q 538 888 565 881 q 480 900 510 896 q 417 904 450 904 q 368 901 394 904 q 316 892 342 899 q 265 878 290 886 q 246 804 251 849 q 240 715 240 760 q 242 676 240 694 q 244 642 243 657 q 338 609 278 628 q 467 569 399 590 q 600 527 536 549 q 706 483 664 506 q 754 439 749 460 q 761 389 760 413 q 763 336 763 365 q 755 225 763 274 q 731 129 747 176 q 678 92 714 114 q 592 49 642 69 q 491 14 543 28 q 392 0 439 0 m 429 -278 q 397 -272 417 -278 q 362 -259 378 -267 q 340 -244 346 -251 q 343 -228 340 -235 q 347 -219 346 -222 q 431 -218 394 -219 q 499 -210 467 -217 q 509 -178 506 -199 q 513 -143 513 -157 q 479 -126 503 -136 q 428 -108 456 -117 q 381 -96 401 -100 q 369 -75 375 -89 q 364 -47 364 -61 q 389 1 376 -22 q 418 51 401 24 l 465 51 l 436 -51 q 511 -71 474 -57 q 574 -100 549 -85 q 599 -126 599 -115 q 590 -181 599 -149 q 568 -231 582 -212 q 518 -255 546 -244 q 466 -272 490 -265 q 429 -278 442 -278 z "},"Ŝ":{"ha":847,"x_min":94,"x_max":763,"o":"m 392 0 q 319 9 361 0 q 234 33 278 18 q 153 67 190 49 q 94 103 117 86 q 102 192 96 146 q 117 281 108 239 q 132 349 125 322 q 176 344 157 349 q 203 338 196 340 l 235 149 q 294 125 260 136 q 367 107 329 114 q 429 100 404 100 q 488 106 456 100 q 551 122 519 113 q 601 142 582 132 q 621 205 614 167 q 628 283 628 243 q 626 333 628 307 q 618 381 624 360 q 516 415 576 396 q 390 454 456 433 q 264 497 324 475 q 163 539 204 518 q 113 581 122 560 q 107 619 110 597 q 104 664 104 640 q 115 785 104 724 q 139 881 125 846 q 201 922 163 900 q 283 960 239 943 q 372 989 328 978 q 449 1000 415 1000 q 550 988 497 1000 q 650 957 603 976 q 728 915 697 938 q 724 854 728 888 q 714 788 719 821 q 702 727 708 754 q 690 682 696 700 q 648 688 668 682 q 618 697 628 693 l 590 872 q 538 888 565 881 q 480 900 510 896 q 417 904 450 904 q 368 901 394 904 q 316 892 342 899 q 265 878 290 886 q 246 804 251 849 q 240 715 240 760 q 242 676 240 694 q 244 642 243 657 q 338 609 278 628 q 467 569 399 590 q 600 527 536 549 q 706 483 664 506 q 754 439 749 460 q 761 389 760 413 q 763 336 763 365 q 755 225 763 274 q 731 129 747 176 q 678 92 714 114 q 592 49 642 69 q 491 14 543 28 q 392 0 439 0 m 263 1071 q 240 1085 250 1076 q 225 1103 229 1094 q 315 1228 276 1176 q 381 1307 353 1279 q 424 1335 408 1335 q 468 1306 440 1335 q 534 1226 496 1278 q 622 1103 572 1174 q 608 1086 618 1096 q 583 1071 599 1076 l 424 1211 l 263 1071 z "}}}
